<svg fill="none" height="20" viewBox="0 0 20 20" width="20" xmlns="http://www.w3.org/2000/svg"><g fill="#212121"><path d="m8.12387 2c-.56705 0-1.08563.31977-1.34026.82643l-.58949 1.17297h-1.68948c-1.38071 0-2.5 1.11928-2.5 2.5v8.0006c0 1.3807 1.11929 2.5 2.5 2.5h5.09501c-.16194-.3168-.29407-.6514-.39268-1h-4.70233c-.82843 0-1.5-.6716-1.5-1.5v-8.0006c0-.82843.67157-1.5 1.5-1.5h1.99779c.18902 0 .36188-.10659.44676-.27548l.72793-1.44844c.08488-.16889.25774-.27548.44675-.27548h3.76423c.1894 0 .3625.10702.4472.27643l.7231 1.44653c.0847.16942.2578.27644.4472.27644h1.999c.8285 0 1.5.67157 1.5 1.5v3.10272c.3579.18336.693.40478 1 .65888v-3.7616c0-1.38071-1.1192-2.5-2.5-2.5h-1.6899l-.5849-1.1701c-.2541-.50824-.7735-.8293-1.3417-.8293z"/><path d="m9.99994 6.00003c1.87616 0 3.45056 1.29166 3.88266 3.03423-.3371.03766-.665.10578-.9809.20155-.3379-1.2867-1.509-2.23578-2.90176-2.23578-1.65686 0-3 1.34315-3 2.99997 0 1.3928.94909 2.5639 2.2358 2.9018-.09577.3159-.16389.6438-.20154.9809-1.74258-.432-3.03426-2.0065-3.03426-3.8827 0-2.20911 1.79086-3.99997 4-3.99997z"/><path d="m18.9999 14.5c0 2.4853-2.0147 4.5-4.5 4.5-2.4852 0-4.49996-2.0147-4.49996-4.5s2.01476-4.5 4.49996-4.5c2.4853 0 4.5 2.0147 4.5 4.5zm-4-2c0-.2761-.2238-.5-.5-.5-.2761 0-.5.2239-.5.5v1.5h-1.5c-.2761 0-.5.2239-.5.5s.2239.5.5.5h1.5v1.5c0 .2761.2239.5.5.5.2762 0 .5-.2239.5-.5v-1.5h1.5c.2762 0 .5-.2239.5-.5s-.2238-.5-.5-.5h-1.5z"/></g></svg>