<svg height="16" viewBox="0 0 16 16" width="16" xmlns="http://www.w3.org/2000/svg"><path d="m10.404 5.11-1.015-1.014-5.075 5.074c-.841.841-.841 2.204 0 3.044s2.204.841 3.045 0l6.09-6.089c1.402-1.401 1.402-3.673 0-5.074s-3.674-1.402-5.075 0l-6.394 6.393c-.005.005-.01.009-.014.013-1.955 1.955-1.955 5.123 0 7.077s5.123 1.954 7.078 0c.004-.004.008-.009.013-.014l.001.001 4.365-4.364-1.015-1.014-4.365 4.363c-.005.004-.009.009-.013.013-1.392 1.392-3.656 1.392-5.048 0s-1.392-3.655 0-5.047c.005-.005.009-.009.014-.013l-.001-.001 6.395-6.393c.839-.84 2.205-.84 3.045 0s.839 2.205 0 3.044l-6.09 6.089c-.28.28-.735.28-1.015 0s-.28-.735 0-1.014l5.075-5.075z"/></svg>