<svg xmlns="http://www.w3.org/2000/svg" xmlns:xlink="http://www.w3.org/1999/xlink" version="1.1" width="1000" height="1000" viewBox="0 0 1000 1000" xml:space="preserve">
<desc>Created with Fabric.js 3.5.0</desc>
<defs>
</defs>
<rect x="0" y="0" width="100%" height="100%" fill="#ffffff"/>
<g transform="matrix(7.3982 0 0 7.3982 500.0008 500.0005)" id="419459">
<path style="stroke: none; stroke-width: 1; stroke-dasharray: none; stroke-linecap: butt; stroke-dashoffset: 0; stroke-linejoin: miter; stroke-miterlimit: 4; is-custom-font: none; font-file-url: none; fill: rgb(0,0,0); fill-rule: evenodd; opacity: 1;" vector-effect="non-scaling-stroke" transform=" translate(-61.4359, -36.6364)" d="M 104.27 58.88 l -0.54 -19.99 l -32.85 9.49 c -2.96 0.65 -5.88 0.96 -8.74 0.97 c -3.07 0.01 -6.09 -0.32 -9.06 -0.97 L 21.7 38.79 v 20.27 c 0.9 10.53 31.11 13.75 40.38 14.19 c 7.43 0.36 36.78 -3.52 40.64 -9.57 C 103.55 62.36 104.07 60.76 104.27 58.88 L 104.27 58.88 z M 117.58 24.5 v 24.43 h 0.77 c 0.53 0 0.96 0.43 0.96 0.96 v 6.57 c 0 0.52 -0.43 0.96 -0.96 0.96 h -0.77 v 2.3 c 0.98 0.18 1.73 1.05 1.73 2.08 v 0 c 0 1.16 -0.96 2.12 -2.12 2.12 h -3.79 c -1.16 0 -2.12 -0.95 -2.12 -2.12 v 0 c 0 -1.03 0.75 -1.9 1.73 -2.08 v -2.3 h -0.77 c -0.52 0 -0.96 -0.43 -0.96 -0.96 v -6.57 c 0 -0.53 0.43 -0.96 0.96 -0.96 h 0.77 v -23 L 73.03 38.35 c -7.24 1.72 -14.48 1.84 -21.72 0 L 7.18 25.18 l -3.99 -1.19 c -4.97 -2.03 -3.73 -6.8 0.9 -7.9 L 54 1.19 c 5.15 -1.47 10.29 -1.7 15.44 0 l 49.01 14.72 c 5.33 1.3 6.38 6.23 0.18 8.26 L 117.58 24.5 L 117.58 24.5 z" stroke-linecap="round"/>
</g>
<g transform="matrix(1 0 0 1 500 669.3846)" style="" id="861562">
		
<path xml:space="preserve" font-family="B612" font-size="120" font-style="normal" font-weight="bold" style="stroke: none; stroke-width: 1; stroke-dasharray: none; stroke-linecap: butt; stroke-dashoffset: 0; stroke-linejoin: miter; stroke-miterlimit: 4; is-custom-font: none; font-file-url: none; fill: rgb(255,255,255); fill-rule: nonzero; opacity: 1; white-space: pre;" d="M-161.70-40.36L-160.74-30.10L-160.74-16.30L-159-16.30Q-156.18-16.30-153.33-17.08Q-150.48-17.86-148.20-19.51Q-145.92-21.16-144.48-23.74Q-143.04-26.32-143.04-29.98L-143.04-29.98Q-143.04-33.28-144.42-35.38Q-145.80-37.48-147.96-38.62Q-150.12-39.76-152.73-40.18Q-155.34-40.60-157.80-40.60L-157.80-40.60Q-158.64-40.60-159.72-40.54Q-160.80-40.48-161.70-40.36L-161.70-40.36ZM-153.90 37.70L-181.80 37.70L-181.80-38.02L-183.72-51.16Q-181.14-51.52-178.08-51.82Q-175.02-52.12-171.99-52.36Q-168.96-52.60-166.20-52.72Q-163.44-52.84-161.46-52.84L-161.46-52.84Q-154.26-52.84-147.54-51.91Q-140.82-50.98-135.63-48.58Q-130.44-46.18-127.32-41.95Q-124.20-37.72-124.20-31.18L-124.20-31.18Q-124.20-27.94-125.13-25.06Q-126.06-22.18-127.71-19.75Q-129.36-17.32-131.73-15.31Q-134.10-13.30-136.98-11.86L-136.98-11.86Q-133.14-10.54-129.75-8.68Q-126.36-6.82-123.84-4.24Q-121.32-1.66-119.88 1.67Q-118.44 5.00-118.44 9.20L-118.44 9.20Q-118.44 14.48-119.94 18.65Q-121.44 22.82-123.99 25.97Q-126.54 29.12-130.02 31.37Q-133.50 33.62-137.43 35.03Q-141.36 36.44-145.59 37.07Q-149.82 37.70-153.90 37.70L-153.90 37.70ZM-160.74-3.88L-160.74 24.02L-157.32 24.02Q-152.82 24.02-149.31 23.33Q-145.80 22.64-143.37 20.96Q-140.94 19.28-139.65 16.58Q-138.36 13.88-138.36 9.80L-138.36 9.80Q-138.36 5.90-139.62 3.29Q-140.88 0.68-143.10-0.91Q-145.32-2.50-148.38-3.19Q-151.44-3.88-155.04-3.88L-155.04-3.88L-160.74-3.88ZM-107.04 27.44L-107.04 27.44Q-107.04 25.16-106.17 23.15Q-105.30 21.14-103.80 19.61Q-102.30 18.08-100.29 17.21Q-98.28 16.34-96 16.34L-96 16.34Q-93.72 16.34-91.68 17.21Q-89.64 18.08-88.14 19.61Q-86.64 21.14-85.77 23.15Q-84.90 25.16-84.90 27.44L-84.90 27.44Q-84.90 29.78-85.77 31.82Q-86.64 33.86-88.11 35.39Q-89.58 36.92-91.59 37.82Q-93.60 38.72-95.88 38.72L-95.88 38.72Q-98.16 38.72-100.23 37.82Q-102.30 36.92-103.80 35.39Q-105.30 33.86-106.17 31.82Q-107.04 29.78-107.04 27.44ZM-29.46 37.70L-50.52 37.70L-50.52-38.62L-74.16-38.62L-74.16-52.30L-6.06-52.30L-6.06-38.62L-29.46-38.62L-29.46 37.70ZM41.88 20.18L51.12 28.22Q48.90 30.50 46.32 32.42Q43.74 34.34 40.62 35.72Q37.50 37.10 33.78 37.88Q30.06 38.66 25.56 38.66L25.56 38.66Q16.92 38.66 10.80 35.84Q4.68 33.02 0.81 28.31Q-3.06 23.60-4.83 17.48Q-6.60 11.36-6.60 4.70L-6.60 4.70Q-6.60 0.44-5.76-3.73Q-4.92-7.90-3.21-11.65Q-1.50-15.40 1.05-18.64Q3.60-21.88 7.02-24.22Q10.44-26.56 14.73-27.91Q19.02-29.26 24.18-29.26L24.18-29.26Q31.38-29.26 36.66-27.13Q41.94-25.00 45.36-21.19Q48.78-17.38 50.46-12.04Q52.14-6.70 52.14-0.22L52.14-0.22Q52.14 1.40 51.93 4.04Q51.72 6.68 51.42 9.74L51.42 9.74L11.22 9.74Q11.34 12.98 12.60 15.89Q13.86 18.80 15.93 20.96Q18 23.12 20.76 24.41Q23.52 25.70 26.76 25.70L26.76 25.70Q29.40 25.70 31.77 25.10Q34.14 24.50 36.09 23.63Q38.04 22.76 39.54 21.83Q41.04 20.90 41.88 20.18L41.88 20.18ZM18.36-2.56L35.10-2.62Q35.10-5.38 34.68-7.84Q34.26-10.30 33.12-12.19Q31.98-14.08 30.03-15.19Q28.08-16.30 25.02-16.30L25.02-16.30Q22.44-16.30 20.49-15.40Q18.54-14.50 17.13-13.15Q15.72-11.80 14.82-10.30Q13.92-8.80 13.44-7.66L13.44-7.66L7.98-1.48L18.36-2.56ZM113.34-19.96L104.28-11.14Q102.48-12.88 100.83-13.90Q99.18-14.92 97.68-15.46Q96.18-16.00 94.71-16.15Q93.24-16.30 91.80-16.30L91.80-16.30Q88.32-16.30 85.89-14.62Q83.46-12.94 81.93-10.15Q80.40-7.36 79.71-3.70Q79.02-0.04 79.02 3.92L79.02 3.92Q79.02 8.06 79.68 11.99Q80.34 15.92 81.87 18.98Q83.40 22.04 85.98 23.87Q88.56 25.70 92.40 25.70L92.40 25.70Q93.96 25.70 95.76 25.28Q97.56 24.86 99.39 24.14Q101.22 23.42 102.99 22.46Q104.76 21.50 106.32 20.42L106.32 20.42L113.04 32.12Q108.66 35.12 103.32 36.92Q97.98 38.72 91.62 38.72L91.62 38.72Q83.52 38.72 77.46 35.75Q71.40 32.78 67.32 27.86Q63.24 22.94 61.20 16.52Q59.16 10.10 59.16 3.20L59.16 3.20Q59.16-3.04 61.14-8.92Q63.12-14.80 67.17-19.33Q71.22-23.86 77.37-26.59Q83.52-29.32 91.92-29.32L91.92-29.32Q98.40-29.32 103.56-27.19Q108.72-25.06 113.34-19.96L113.34-19.96ZM143.76-11.38L143.76 37.70L124.20 37.70L124.20-45.04L122.88-58.30L143.76-60.16L143.76-19.42L150.96-28.72Q152.58-29.02 154.23-29.17Q155.88-29.32 157.38-29.32L157.38-29.32Q162.66-29.32 166.83-27.73Q171-26.14 173.88-23.11Q176.76-20.08 178.26-15.61Q179.76-11.14 179.76-5.38L179.76-5.38L179.76 37.70L160.20 37.70L160.20-5.86Q160.20-8.98 159.69-11.02Q159.18-13.06 158.34-14.23Q157.50-15.40 156.42-15.85Q155.34-16.30 154.20-16.30L154.20-16.30Q152.88-16.30 151.47-15.94Q150.06-15.58 148.65-14.95Q147.24-14.32 145.98-13.39Q144.72-12.46 143.76-11.38L143.76-11.38Z"/></g>
</svg>