<?xml version="1.0" encoding="UTF-8"?>
<!DOCTYPE svg PUBLIC "-//W3C//DTD SVG 1.1//EN" "http://www.w3.org/Graphics/SVG/1.1/DTD/svg11.dtd">
<svg xmlns="http://www.w3.org/2000/svg" version="1.1" width="291px" height="291px" style="shape-rendering:geometricPrecision; text-rendering:geometricPrecision; image-rendering:optimizeQuality; fill-rule:evenodd; clip-rule:evenodd" xmlns:xlink="http://www.w3.org/1999/xlink">
<g><path style="opacity:0.999" fill="#050605" d="M 137.5,4.5 C 142.167,4.5 146.833,4.5 151.5,4.5C 179.701,6.56532 205.367,15.5653 228.5,31.5C 237.073,38.5674 245.239,46.2341 253,54.5C 259.083,62.4017 264.917,70.4017 270.5,78.5C 270.328,79.4916 270.662,80.1583 271.5,80.5C 272.992,84.8178 274.992,88.8178 277.5,92.5C 285.997,113.654 289.997,135.654 289.5,158.5C 288.518,161.962 288.185,165.629 288.5,169.5C 280.651,212.159 258.651,245.326 222.5,269C 217.757,272.038 212.757,274.538 207.5,276.5C 194.257,279.695 181.257,279.028 168.5,274.5C 166.365,272.929 164.032,271.596 161.5,270.5C 155.238,266.246 149.238,261.58 143.5,256.5C 138.5,251.833 133.5,247.167 128.5,242.5C 122.138,236.151 114.471,232.151 105.5,230.5C 102.456,228.989 99.1224,228.322 95.5,228.5C 83.6023,227.429 71.6023,226.429 59.5,225.5C 54.0223,225.215 49.0223,223.548 44.5,220.5C 40.8333,217.167 37.1667,213.833 33.5,210.5C 16.4068,189.627 7.07347,165.627 5.5,138.5C 5.26185,130.12 5.76185,121.787 7,113.5C 9.33624,103.661 12.1696,93.9943 15.5,84.5C 16.3382,84.1583 16.6716,83.4916 16.5,82.5C 18.341,80.1515 19.6743,77.4848 20.5,74.5C 21.3382,74.1583 21.6716,73.4916 21.5,72.5C 23.2503,71.3406 24.2503,69.674 24.5,67.5C 25.9063,67.0269 26.573,66.0269 26.5,64.5C 28.9,62.7036 30.5667,60.3702 31.5,57.5C 33.914,56.0892 35.5806,54.0892 36.5,51.5C 41.8333,46.8333 46.8333,41.8333 51.5,36.5C 59.6684,30.5831 68.0018,24.9164 76.5,19.5C 79.4848,18.6743 82.1515,17.341 84.5,15.5C 92.1683,13.1108 99.835,10.6108 107.5,8C 117.378,5.77282 127.378,4.60616 137.5,4.5 Z"/></g>
<g><path style="opacity:0.832" fill="#0a0e08" d="M 127.5,-0.5 C 139.167,-0.5 150.833,-0.5 162.5,-0.5C 234.167,13.1667 276.833,55.8333 290.5,127.5C 290.5,130.5 290.5,133.5 290.5,136.5C 289.185,127.86 287.352,119.193 285,110.5C 283.353,104.034 280.853,98.0342 277.5,92.5C 276.54,87.9136 274.54,83.9136 271.5,80.5C 270.662,80.1583 270.328,79.4916 270.5,78.5C 260.749,59.0801 246.749,43.4135 228.5,31.5C 207.441,14.984 183.441,5.65065 156.5,3.5C 154.735,2.53862 152.735,2.20528 150.5,2.5C 129.844,1.61734 109.844,4.78401 90.5,12C 88.2726,12.941 86.2726,14.1077 84.5,15.5C 82.1515,17.341 79.4848,18.6743 76.5,19.5C 66.9457,23.4383 58.6123,29.105 51.5,36.5C 45.5,40.5 40.5,45.5 36.5,51.5C 34.086,52.9108 32.4194,54.9108 31.5,57.5C 29.1,59.2964 27.4333,61.6298 26.5,64.5C 25.0937,64.9731 24.427,65.9731 24.5,67.5C 22.7497,68.6594 21.7497,70.326 21.5,72.5C 21.6716,73.4916 21.3382,74.1583 20.5,74.5C 18.127,76.5792 16.7936,79.2459 16.5,82.5C 16.6716,83.4916 16.3382,84.1583 15.5,84.5C 8.88151,97.2901 4.88151,110.957 3.5,125.5C -0.186639,163.913 8.98003,198.913 31,230.5C 32.7186,233.288 34.8852,235.621 37.5,237.5C 41.7984,244.739 47.4651,250.739 54.5,255.5C 63.2301,263.378 72.8968,270.045 83.5,275.5C 83.8333,275.333 84.1667,275.167 84.5,275C 80.9409,272.402 81.6076,271.902 86.5,273.5C 85.1498,272.35 85.3164,271.683 87,271.5C 88.4651,272.33 89.9651,272.496 91.5,272C 86.3256,270.249 81.659,267.749 77.5,264.5C 96.2951,271.986 115.295,278.653 134.5,284.5C 121.604,281.943 108.937,278.776 96.5,275C 108.419,279.472 120.419,283.305 132.5,286.5C 120.944,284.696 109.611,282.196 98.5,279C 110.152,283.55 122.152,286.884 134.5,289C 132.19,289.497 129.857,289.663 127.5,289.5C 116.855,286.835 106.188,283.835 95.5,280.5C 96.1667,281.167 96.8333,281.833 97.5,282.5C 55.5569,267.726 26.0569,239.726 9,198.5C 4.8642,186.616 1.69753,174.616 -0.5,162.5C -0.5,150.833 -0.5,139.167 -0.5,127.5C 13.1667,55.8333 55.8333,13.1667 127.5,-0.5 Z"/></g>
<g><path style="opacity:1" fill="#5b9d40" d="M 51.5,36.5 C 46.8333,41.8333 41.8333,46.8333 36.5,51.5C 40.5,45.5 45.5,40.5 51.5,36.5 Z"/></g>
<g><path style="opacity:1" fill="#5c9e40" d="M 76.5,19.5 C 68.0018,24.9164 59.6684,30.5831 51.5,36.5C 58.6123,29.105 66.9457,23.4383 76.5,19.5 Z"/></g>
<g><path style="opacity:1" fill="#dfa54d" d="M 219.5,31.5 C 222.116,32.4798 224.449,33.9798 226.5,36C 224.536,37.7944 223.036,37.2944 222,34.5C 220.049,36.1371 220.216,37.6371 222.5,39C 221.451,39.4922 220.451,39.3256 219.5,38.5C 216.833,39.8333 216.833,41.1667 219.5,42.5C 222.187,41.9394 222.187,42.6061 219.5,44.5C 217.321,43.2433 215.321,41.7433 213.5,40C 216.368,37.7595 218.368,34.9262 219.5,31.5 Z"/></g>
<g><path style="opacity:1" fill="#dba24c" d="M 70.5,29.5 C 73.462,29.1167 74.462,30.1167 73.5,32.5C 72.549,31.6744 71.549,31.5078 70.5,32C 71.9657,35.3204 74.299,37.6538 77.5,39C 75.8333,40.1667 74.1667,41.3333 72.5,42.5C 72.4851,39.1651 70.9851,36.1651 68,33.5C 67.6667,34.8333 67.3333,36.1667 67,37.5C 66.1301,36.8921 65.6301,36.0588 65.5,35C 66.7416,32.7277 68.4083,30.8944 70.5,29.5 Z"/></g>
<g><path style="opacity:1" fill="#dea44d" d="M 92.5,18.5 C 93.9953,18.4148 94.9953,19.0815 95.5,20.5C 94.6086,21.5896 93.6086,21.5896 92.5,20.5C 91.3861,21.723 91.2195,23.0563 92,24.5C 93.0495,23.4829 94.2161,23.3162 95.5,24C 93.7448,24.7199 92.9115,25.8866 93,27.5C 95.0846,28.6469 96.5846,27.9803 97.5,25.5C 98.731,26.6507 98.731,27.8173 97.5,29C 95.3502,30.5899 93.0168,31.2566 90.5,31C 90.9574,30.586 91.2907,30.086 91.5,29.5C 90.44,26.5324 88.7733,24.0324 86.5,22C 88.4319,20.5415 90.4319,19.3748 92.5,18.5 Z"/></g>
<g><path style="opacity:1" fill="#d39c49" d="M 200.5,20.5 C 202.14,21.3201 203.807,22.1534 205.5,23C 202.886,25.7174 200.886,28.8841 199.5,32.5C 198.328,32.0814 197.328,31.4147 196.5,30.5C 199.497,27.8379 200.831,24.5046 200.5,20.5 Z"/></g>
<g><path style="opacity:1" fill="#5a9b3f" d="M 151.5,4.5 C 152.919,3.54885 154.585,3.21552 156.5,3.5C 183.441,5.65065 207.441,14.984 228.5,31.5C 205.367,15.5653 179.701,6.56532 151.5,4.5 Z"/></g>
<g><path style="opacity:1" fill="#d29c49" d="M 178.5,13.5 C 181.38,13.0325 183.713,13.8659 185.5,16C 183.895,19.4691 182.895,19.3025 182.5,15.5C 179.648,15.3524 177.981,16.6857 177.5,19.5C 178.107,23.4837 179.773,24.1504 182.5,21.5C 183.73,25.0826 182.396,26.2493 178.5,25C 173.248,21.1732 173.248,17.3399 178.5,13.5 Z"/></g>
<g><path style="opacity:1" fill="#dda44d" d="M 155.5,8.5 C 159.419,7.74635 160.753,9.07969 159.5,12.5C 158.377,10.711 157.044,10.3776 155.5,11.5C 157.231,13.3447 158.898,15.178 160.5,17C 159.202,20.2052 156.868,21.2052 153.5,20C 152.269,18.8173 152.269,17.6507 153.5,16.5C 154.623,18.289 155.956,18.6224 157.5,17.5C 155.64,16.0613 153.973,14.3947 152.5,12.5C 153.172,10.8405 154.172,9.50716 155.5,8.5 Z"/></g>
<g><path style="opacity:1" fill="#e0a64e" d="M 113.5,11.5 C 118.894,10.5545 120.561,12.5545 118.5,17.5C 119.5,19.1667 120.833,20.5 122.5,21.5C 121.833,21.8333 121.167,22.1667 120.5,22.5C 118.795,21.455 117.295,20.1217 116,18.5C 115.405,19.8989 115.572,21.2322 116.5,22.5C 115.277,23.6139 113.944,23.7805 112.5,23C 113.365,19.6116 112.698,16.4449 110.5,13.5C 111.602,12.8243 112.602,12.1577 113.5,11.5 Z"/></g>
<g><path style="opacity:1" fill="#241d12" d="M 114.5,13.5 C 117.861,14.2032 118.194,15.5365 115.5,17.5C 114.571,16.3112 114.238,14.9778 114.5,13.5 Z"/></g>
<g><path style="opacity:1" fill="#2b481f" d="M 150.5,2.5 C 152.735,2.20528 154.735,2.53862 156.5,3.5C 154.585,3.21552 152.919,3.54885 151.5,4.5C 146.833,4.5 142.167,4.5 137.5,4.5C 141.833,3.83333 146.167,3.16667 150.5,2.5 Z"/></g>
<g><path style="opacity:1" fill="#5d9f40" d="M 150.5,2.5 C 146.167,3.16667 141.833,3.83333 137.5,4.5C 127.378,4.60616 117.378,5.77282 107.5,8C 99.835,10.6108 92.1683,13.1108 84.5,15.5C 86.2726,14.1077 88.2726,12.941 90.5,12C 109.844,4.78401 129.844,1.61734 150.5,2.5 Z"/></g>
<g><path style="opacity:1" fill="#dda44d" d="M 51.5,44.5 C 55.5248,46.6798 57.6915,50.0132 58,54.5C 56.9384,55.8993 55.605,56.8993 54,57.5C 51.1776,55.3475 48.3442,53.1808 45.5,51C 46.3333,50.1667 47.1667,49.3333 48,48.5C 49.641,52.3234 52.4743,54.3234 56.5,54.5C 55.7614,50.5922 53.4281,48.0922 49.5,47C 50.3805,46.2917 51.0472,45.4584 51.5,44.5 Z"/></g>
<g><path style="opacity:1" fill="#dea54d" d="M 238.5,46.5 C 240.439,47.0138 241.439,48.3472 241.5,50.5C 239.853,58.1559 240.853,58.4892 244.5,51.5C 245.415,52.3279 246.081,53.3279 246.5,54.5C 243.391,56.475 240.557,58.8084 238,61.5C 237.13,60.8921 236.63,60.0588 236.5,59C 239.703,50.7885 238.87,49.9552 234,56.5C 233.075,55.9535 232.242,55.2868 231.5,54.5C 235.321,53.0195 237.655,50.3528 238.5,46.5 Z"/></g>
<g><path style="opacity:1" fill="#57953d" d="M 36.5,51.5 C 35.5806,54.0892 33.914,56.0892 31.5,57.5C 32.4194,54.9108 34.086,52.9108 36.5,51.5 Z"/></g>
<g><path style="opacity:1" fill="#5ea141" d="M 228.5,31.5 C 246.749,43.4135 260.749,59.0801 270.5,78.5C 264.917,70.4017 259.083,62.4017 253,54.5C 245.239,46.2341 237.073,38.5674 228.5,31.5 Z"/></g>
<g><path style="opacity:1" fill="#528d3a" d="M 31.5,57.5 C 30.5667,60.3702 28.9,62.7036 26.5,64.5C 27.4333,61.6298 29.1,59.2964 31.5,57.5 Z"/></g>
<g><path style="opacity:1" fill="#54913b" d="M 26.5,64.5 C 26.573,66.0269 25.9063,67.0269 24.5,67.5C 24.427,65.9731 25.0937,64.9731 26.5,64.5 Z"/></g>
<g><path style="opacity:1" fill="#528d39" d="M 24.5,67.5 C 24.2503,69.674 23.2503,71.3406 21.5,72.5C 21.7497,70.326 22.7497,68.6594 24.5,67.5 Z"/></g>
<g><path style="opacity:1" fill="#e5aa50" d="M 33.5,64.5 C 39.1376,63.6363 40.8043,65.8029 38.5,71C 39.3839,72.098 40.3839,72.598 41.5,72.5C 40.9169,74.0016 40.0836,75.3349 39,76.5C 36.6466,73.6524 33.8133,71.3191 30.5,69.5C 31.7629,67.9713 32.7629,66.3046 33.5,64.5 Z"/></g>
<g><path style="opacity:1" fill="#1c170f" d="M 34.5,66.5 C 37.2748,66.8338 37.9415,68.1671 36.5,70.5C 34.2038,69.6317 33.5371,68.2984 34.5,66.5 Z"/></g>
<g><path style="opacity:1" fill="#d69e4a" d="M 253.5,68.5 C 257.361,68.5179 260.027,70.3513 261.5,74C 260.991,75.1685 260.158,76.0019 259,76.5C 258.506,74.8659 258.34,73.1992 258.5,71.5C 254.355,70.9575 252.188,72.6241 252,76.5C 256.711,78.3906 256.544,79.224 251.5,79C 248.589,74.8101 249.256,71.3101 253.5,68.5 Z"/></g>
<g><path style="opacity:1" fill="#eeeeee" d="M 156.5,147.5 C 157.404,148.209 157.737,149.209 157.5,150.5C 156.201,158.635 151.535,163.802 143.5,166C 129.414,169.769 116.581,167.269 105,158.5C 104.333,152.833 104.333,147.167 105,141.5C 109.33,154.834 118.33,162.834 132,165.5C 138.886,165.318 144.886,162.985 150,158.5C 153.578,149.16 150.745,142.66 141.5,139C 133.857,137.226 126.191,135.56 118.5,134C 115.716,133.108 113.05,131.942 110.5,130.5C 88.8683,137.931 73.3683,131.265 64,110.5C 59.7667,88.4594 68.2667,73.9594 89.5,67C 99.6566,65.2771 108.99,67.2771 117.5,73C 120.997,76.6938 120.83,80.5272 117,84.5C 107.997,70.2131 95.8303,66.3797 80.5,73C 74.073,78.6923 71.073,85.859 71.5,94.5C 72.5235,116.358 83.8568,127.525 105.5,128C 105.833,127.667 106.167,127.333 106.5,127C 101.538,117.545 103.872,110.211 113.5,105C 127.462,98.6342 141.129,99.3009 154.5,107C 155.574,107.739 156.241,108.739 156.5,110C 155.791,112.629 154.791,115.129 153.5,117.5C 149.682,114.182 146.015,110.682 142.5,107C 135.871,103.69 128.871,102.69 121.5,104C 113.702,106.728 110.869,111.895 113,119.5C 114.263,121.797 116.097,122.63 118.5,122C 119.726,120.365 121.059,118.865 122.5,117.5C 122.833,117.667 123.167,117.833 123.5,118C 122.36,119.973 121.027,121.807 119.5,123.5C 129.231,125.984 138.897,128.65 148.5,131.5C 151.213,136.925 153.879,142.259 156.5,147.5 Z"/></g>
<g><path style="opacity:1" fill="#4b8034" d="M 20.5,74.5 C 19.6743,77.4848 18.341,80.1515 16.5,82.5C 16.7936,79.2459 18.127,76.5792 20.5,74.5 Z"/></g>
<g><path style="opacity:1" fill="#54913b" d="M 271.5,80.5 C 274.54,83.9136 276.54,87.9136 277.5,92.5C 274.992,88.8178 272.992,84.8178 271.5,80.5 Z"/></g>
<g><path style="opacity:1" fill="#d8a04b" d="M 268.5,89.5 C 269.376,89.3691 270.043,89.7025 270.5,90.5C 271.214,92.8111 272.214,94.9777 273.5,97C 272.167,97.6667 270.833,97.6667 269.5,97C 270.731,95.8173 270.731,94.6507 269.5,93.5C 268.029,94.3805 267.196,95.7139 267,97.5C 265.89,95.9632 264.39,95.2965 262.5,95.5C 262.5,96.5 262.5,97.5 262.5,98.5C 265.957,98.6672 266.29,99.6672 263.5,101.5C 261.914,99.3295 260.58,96.9962 259.5,94.5C 263.082,93.5502 266.082,91.8835 268.5,89.5 Z"/></g>
<g><path style="opacity:1" fill="#e3a84f" d="M 21.5,84.5 C 23.9758,87.5567 27.3092,88.89 31.5,88.5C 31.6882,90.1033 31.1882,91.4366 30,92.5C 28.5114,90.6682 26.678,89.8348 24.5,90C 26.1667,91.6667 27.8333,93.3333 29.5,95C 27.1667,95.3333 24.8333,95.6667 22.5,96C 24.0249,97.0086 25.6916,97.5086 27.5,97.5C 27.719,98.675 27.3857,99.675 26.5,100.5C 23.3926,97.6104 20.0592,95.9437 16.5,95.5C 16.8333,94.8333 17.1667,94.1667 17.5,93.5C 19.7662,92.6858 22.0995,92.1858 24.5,92C 21.0696,90.325 20.0696,87.825 21.5,84.5 Z"/></g>
<g><path style="opacity:1" fill="#eeeeee" d="M 182.5,98.5 C 191.979,97.9529 200.979,99.7862 209.5,104C 211.327,104.899 212.66,106.233 213.5,108C 212.333,110.833 211.167,113.667 210,116.5C 205.651,109.813 199.818,104.979 192.5,102C 184.845,100.37 177.845,101.704 171.5,106C 167.242,111.03 167.576,115.697 172.5,120C 182.275,123.423 192.275,126.09 202.5,128C 214.381,133.325 217.881,142.158 213,154.5C 208.948,160.119 203.448,163.619 196.5,165C 183.714,167.095 172.214,164.262 162,156.5C 161.333,151.167 161.333,145.833 162,140.5C 165.987,153.488 174.654,161.155 188,163.5C 195.264,163.525 201.597,161.192 207,156.5C 210.06,149.441 208.56,143.608 202.5,139C 192.651,135.829 182.651,133.163 172.5,131C 158.12,123.913 156.787,114.913 168.5,104C 173.017,101.445 177.684,99.6121 182.5,98.5 Z"/></g>
<g><path style="opacity:1" fill="#5a9b3f" d="M 277.5,92.5 C 280.853,98.0342 283.353,104.034 285,110.5C 287.352,119.193 289.185,127.86 290.5,136.5C 290.5,144.833 290.5,153.167 290.5,161.5C 289.596,160.791 289.263,159.791 289.5,158.5C 289.997,135.654 285.997,113.654 277.5,92.5 Z"/></g>
<g><path style="opacity:1" fill="#57953d" d="M 15.5,84.5 C 12.1696,93.9943 9.33624,103.661 7,113.5C 5.76185,121.787 5.26185,130.12 5.5,138.5C 4.83333,134.167 4.16667,129.833 3.5,125.5C 4.88151,110.957 8.88151,97.2901 15.5,84.5 Z"/></g>
<g><path style="opacity:1" fill="#dda44d" d="M 12.5,112.5 C 20.8666,112.331 23.1999,115.831 19.5,123C 10.8017,123.773 8.46836,120.273 12.5,112.5 Z"/></g>
<g><path style="opacity:1" fill="#0e0c07" d="M 12.5,115.5 C 16.9315,114.53 19.2648,116.197 19.5,120.5C 17.4727,120.662 15.4727,120.495 13.5,120C 12.6198,118.644 12.2865,117.144 12.5,115.5 Z"/></g>
<g><path style="opacity:1" fill="#74c850" d="M 3.5,125.5 C 4.16667,129.833 4.83333,134.167 5.5,138.5C 7.07347,165.627 16.4068,189.627 33.5,210.5C 33.5855,212.533 33.2521,214.699 32.5,217C 33.2948,218.582 34.4615,218.749 36,217.5C 37.8116,219.312 39.6449,221.145 41.5,223C 40.5509,223.617 39.7175,223.451 39,222.5C 38.5439,223.744 39.0439,224.577 40.5,225C 38.4873,225.875 38.4873,227.209 40.5,229C 40.5,230.667 40.5,232.333 40.5,234C 43.0445,236.501 42.5445,237.001 39,235.5C 37.2382,235.944 37.4049,236.444 39.5,237C 38.9056,237.464 38.2389,237.631 37.5,237.5C 34.8852,235.621 32.7186,233.288 31,230.5C 8.98003,198.913 -0.186639,163.913 3.5,125.5 Z"/></g>
<g><path style="opacity:1" fill="#dda44d" d="M 270.5,130.5 C 271.675,130.281 272.675,130.614 273.5,131.5C 272.147,132.524 271.48,133.857 271.5,135.5C 272.5,135.5 273.5,135.5 274.5,135.5C 275.062,130.499 277.228,129.499 281,132.5C 281.494,134.134 281.66,135.801 281.5,137.5C 280.325,137.719 279.325,137.386 278.5,136.5C 279.428,135.232 279.595,133.899 279,132.5C 277.708,134.249 276.542,136.082 275.5,138C 274.167,138.667 272.833,138.667 271.5,138C 270.565,135.619 270.232,133.119 270.5,130.5 Z"/></g>
<g><path style="opacity:1" fill="#dca34d" d="M 7.5,138.5 C 8.97782,138.238 10.3112,138.571 11.5,139.5C 9.99512,140.842 9.32846,142.508 9.5,144.5C 11.8333,144.5 14.1667,144.5 16.5,144.5C 16.6715,142.508 16.0049,140.842 14.5,139.5C 15.6888,138.571 17.0222,138.238 18.5,138.5C 19.335,147.487 15.835,149.82 8,145.5C 7.50335,143.19 7.33669,140.857 7.5,138.5 Z"/></g>
<g><path style="opacity:1" fill="#919191" d="M 157.5,150.5 C 157.737,149.209 157.404,148.209 156.5,147.5C 157.053,144.263 156.387,141.096 154.5,138C 154.667,137.5 154.833,137 155,136.5C 158.123,140.955 158.957,145.622 157.5,150.5 Z"/></g>
<g><path style="opacity:1" fill="#406631" d="M 289.5,158.5 C 289.263,159.791 289.596,160.791 290.5,161.5C 290.5,161.833 290.5,162.167 290.5,162.5C 289.833,164.833 289.167,167.167 288.5,169.5C 288.185,165.629 288.518,161.962 289.5,158.5 Z"/></g>
<g><path style="opacity:1" fill="#e4a94f" d="M 272.5,153.5 C 281.058,152.528 283.391,155.694 279.5,163C 270.751,164.426 268.418,161.259 272.5,153.5 Z"/></g>
<g><path style="opacity:1" fill="#0f0d08" d="M 272.5,156.5 C 274.833,156.5 277.167,156.5 279.5,156.5C 279.5,157.833 279.5,159.167 279.5,160.5C 277.143,160.663 274.81,160.497 272.5,160C 271.316,158.855 271.316,157.688 272.5,156.5 Z"/></g>
<g><path style="opacity:1" fill="#d9a14c" d="M 268.5,177.5 C 276.51,178.083 278.51,181.75 274.5,188.5C 273.5,188 272.5,187.5 271.5,187C 275.641,184.121 275.308,181.955 270.5,180.5C 267.501,181.156 266.834,182.823 268.5,185.5C 267.675,186.386 266.675,186.719 265.5,186.5C 264.924,182.888 265.924,179.888 268.5,177.5 Z"/></g>
<g><path style="opacity:1" fill="#bea542" d="M 89.5,193.5 C 94.1667,193.5 98.8333,193.5 103.5,193.5C 103.79,197.554 103.123,198.054 101.5,195C 100.207,194.51 98.8734,194.343 97.5,194.5C 97.1975,199.43 97.5308,204.263 98.5,209C 96.8333,209.667 95.1667,209.667 93.5,209C 95.407,204.482 96.0736,199.648 95.5,194.5C 93.0194,194.323 91.1861,195.323 90,197.5C 89.51,196.207 89.3433,194.873 89.5,193.5 Z"/></g>
<g><path style="opacity:1" fill="#c7ad45" d="M 64.5,194.5 C 65.7082,193.218 67.0416,193.218 68.5,194.5C 71.3333,198.167 74.1667,201.833 77,205.5C 77.7927,201.577 77.626,197.744 76.5,194C 77.8333,193.333 79.1667,193.333 80.5,194C 80,194.5 79.5,195 79,195.5C 78.6667,200.167 78.3333,204.833 78,209.5C 74.6667,205.5 71.3333,201.5 68,197.5C 67.2073,201.423 67.374,205.256 68.5,209C 67.1667,209.667 65.8333,209.667 64.5,209C 65.7522,206.959 66.4188,204.625 66.5,202C 66.3333,199.833 66.1667,197.667 66,195.5C 65.6174,194.944 65.1174,194.611 64.5,194.5 Z"/></g>
<g><path style="opacity:1" fill="#fcdc58" d="M 86.5,208.5 C 86.1583,209.338 85.4916,209.672 84.5,209.5C 84.3341,204.489 84.5007,199.489 85,194.5C 85.1745,199.351 85.6745,204.018 86.5,208.5 Z"/></g>
<g><path style="opacity:1" fill="#ccb247" d="M 110.5,194.5 C 111.708,193.218 113.042,193.218 114.5,194.5C 116.333,198.167 118.167,201.833 120,205.5C 120.333,205.167 120.667,204.833 121,204.5C 121.236,206.3 120.736,207.966 119.5,209.5C 117.671,205.842 115.838,202.176 114,198.5C 113.211,202.091 113.378,205.591 114.5,209C 113.167,209.667 111.833,209.667 110.5,209C 111.76,206.787 112.426,204.287 112.5,201.5C 112.471,198.731 111.805,196.397 110.5,194.5 Z"/></g>
<g><path style="opacity:1" fill="#fcdc58" d="M 135.5,208.5 C 135.158,209.338 134.492,209.672 133.5,209.5C 133.334,204.489 133.501,199.489 134,194.5C 134.174,199.351 134.674,204.018 135.5,208.5 Z"/></g>
<g><path style="opacity:1" fill="#0c0b07" d="M 158.5,194.5 C 165.286,194.383 168.119,197.717 167,204.5C 166.338,205.984 165.504,207.317 164.5,208.5C 157.393,208.325 154.56,204.658 156,197.5C 157.045,196.627 157.878,195.627 158.5,194.5 Z"/></g>
<g><path style="opacity:1" fill="#ccb247" d="M 204.5,194.5 C 205.708,193.218 207.042,193.218 208.5,194.5C 210.333,198.167 212.167,201.833 214,205.5C 214.333,205.167 214.667,204.833 215,204.5C 215.236,206.3 214.736,207.966 213.5,209.5C 211.671,205.842 209.838,202.176 208,198.5C 207.211,202.091 207.378,205.591 208.5,209C 207.167,209.667 205.833,209.667 204.5,209C 205.76,206.787 206.426,204.287 206.5,201.5C 206.471,198.731 205.805,196.397 204.5,194.5 Z"/></g>
<g><path style="opacity:1" fill="#83722e" d="M 86.5,208.5 C 85.6745,204.018 85.1745,199.351 85,194.5C 84.5007,199.489 84.3341,204.489 84.5,209.5C 83.7611,209.631 83.0944,209.464 82.5,209C 83.8333,204 83.8333,199 82.5,194C 84.1667,193.333 85.8333,193.333 87.5,194C 86.5308,198.737 86.1975,203.57 86.5,208.5 Z"/></g>
<g><path style="opacity:1" fill="#83722e" d="M 135.5,208.5 C 134.674,204.018 134.174,199.351 134,194.5C 133.501,199.489 133.334,204.489 133.5,209.5C 132.761,209.631 132.094,209.464 131.5,209C 132.833,204 132.833,199 131.5,194C 133.167,193.333 134.833,193.333 136.5,194C 135.531,198.737 135.197,203.57 135.5,208.5 Z"/></g>
<g><path style="opacity:1" fill="#d3b84a" d="M 158.5,194.5 C 166.478,192.635 169.978,195.969 169,204.5C 168.252,206.751 166.752,208.084 164.5,208.5C 165.504,207.317 166.338,205.984 167,204.5C 168.119,197.717 165.286,194.383 158.5,194.5 Z"/></g>
<g><path style="opacity:1" fill="#cbb147" d="M 193.5,198.5 C 193.44,194.673 194.607,194.006 197,196.5C 198.514,201.029 200.681,205.195 203.5,209C 201.833,209.667 200.167,209.667 198.5,209C 199.479,207.221 199.146,205.555 197.5,204C 195.527,203.505 193.527,203.338 191.5,203.5C 191.402,201.447 192.069,199.78 193.5,198.5 Z"/></g>
<g><path style="opacity:1" fill="#15130b" d="M 193.5,198.5 C 195.912,198.694 196.912,200.027 196.5,202.5C 195.127,202.657 193.793,202.49 192.5,202C 193.337,200.989 193.67,199.822 193.5,198.5 Z"/></g>
<g><path style="opacity:1" fill="#d5b94a" d="M 158.5,194.5 C 157.878,195.627 157.045,196.627 156,197.5C 154.56,204.658 157.393,208.325 164.5,208.5C 156.029,210.193 152.529,206.526 154,197.5C 155.129,195.859 156.629,194.859 158.5,194.5 Z"/></g>
<g><path style="opacity:1" fill="#d39c49" d="M 258.5,199.5 C 261.737,201.949 265.403,203.616 269.5,204.5C 268.917,206.002 268.084,207.335 267,208.5C 264.829,204.907 261.829,203.574 258,204.5C 257.616,202.803 257.782,201.137 258.5,199.5 Z"/></g>
<g><path style="opacity:1" fill="#cdb247" d="M 139.5,193.5 C 143.226,193.177 146.893,193.511 150.5,194.5C 148.084,199.001 145.417,203.334 142.5,207.5C 145.612,208.983 148.445,208.65 151,206.5C 151.483,207.448 151.649,208.448 151.5,209.5C 147.445,209.824 143.445,209.491 139.5,208.5C 142.417,204.334 145.084,200.001 147.5,195.5C 144.718,194.048 142.218,194.381 140,196.5C 139.517,195.552 139.351,194.552 139.5,193.5 Z"/></g>
<g><path style="opacity:1" fill="#cfb448" d="M 179.5,200.5 C 180.945,203.118 182.611,205.618 184.5,208C 187.217,209.033 189.051,208.2 190,205.5C 190.318,207.061 191.151,208.228 192.5,209C 185.709,211.243 181.042,209.076 178.5,202.5C 177.675,201.614 176.675,201.281 175.5,201.5C 175.232,204.119 175.565,206.619 176.5,209C 174.833,209.667 173.167,209.667 171.5,209C 172.76,206.787 173.426,204.287 173.5,201.5C 173.426,198.713 172.76,196.213 171.5,194C 174.5,193.333 177.5,193.333 180.5,194C 183.243,196.611 182.91,198.778 179.5,200.5 Z"/></g>
<g><path style="opacity:1" fill="#0e0e08" d="M 179.5,200.5 C 178.167,200.5 176.833,200.5 175.5,200.5C 175.5,198.5 175.5,196.5 175.5,194.5C 176.833,194.5 178.167,194.5 179.5,194.5C 179.5,196.5 179.5,198.5 179.5,200.5 Z"/></g>
<g><path style="opacity:1" fill="#b59d40" d="M 125.5,193.5 C 126.552,193.351 127.552,193.517 128.5,194C 127.529,199.072 127.195,204.238 127.5,209.5C 126.127,209.657 124.793,209.49 123.5,209C 124.516,208.481 125.182,207.647 125.5,206.5C 123.572,202.008 123.572,197.674 125.5,193.5 Z"/></g>
<g><path style="opacity:1" fill="#b59d40" d="M 219.5,193.5 C 220.552,193.351 221.552,193.517 222.5,194C 221.529,199.072 221.195,204.238 221.5,209.5C 220.127,209.657 218.793,209.49 217.5,209C 218.516,208.481 219.182,207.647 219.5,206.5C 217.572,202.008 217.572,197.674 219.5,193.5 Z"/></g>
<g><path style="opacity:1" fill="#d79f4b" d="M 249.5,215.5 C 252.163,219.064 255.163,221.564 258.5,223C 257.015,225.156 255.515,227.323 254,229.5C 253.167,228.667 252.333,227.833 251.5,227C 253.286,226.804 254.619,225.971 255.5,224.5C 253.741,223.246 252.241,223.579 251,225.5C 250.405,224.101 250.572,222.768 251.5,221.5C 250.045,220.255 248.711,220.422 247.5,222C 248.711,222.893 248.711,223.726 247.5,224.5C 246.5,224.167 245.833,223.5 245.5,222.5C 246.889,220.132 248.222,217.799 249.5,215.5 Z"/></g>
<g><path style="opacity:1" fill="#518b38" d="M 33.5,210.5 C 37.1667,213.833 40.8333,217.167 44.5,220.5C 43.9119,222.205 43.5786,223.872 43.5,225.5C 45.1014,226.204 46.4348,227.371 47.5,229C 44.8817,230.974 45.0483,232.807 48,234.5C 49.8333,234.333 51.6667,234.167 53.5,234C 48.5531,236.12 48.5531,238.453 53.5,241C 49.675,242.768 49.675,244.768 53.5,247C 53.1667,247.333 52.8333,247.667 52.5,248C 56.6165,249.872 57.2832,252.372 54.5,255.5C 47.4651,250.739 41.7984,244.739 37.5,237.5C 38.2389,237.631 38.9056,237.464 39.5,237C 37.4049,236.444 37.2382,235.944 39,235.5C 42.5445,237.001 43.0445,236.501 40.5,234C 40.5,232.333 40.5,230.667 40.5,229C 38.4873,227.209 38.4873,225.875 40.5,225C 39.0439,224.577 38.5439,223.744 39,222.5C 39.7175,223.451 40.5509,223.617 41.5,223C 39.6449,221.145 37.8116,219.312 36,217.5C 34.4615,218.749 33.2948,218.582 32.5,217C 33.2521,214.699 33.5855,212.533 33.5,210.5 Z"/></g>
<g><path style="opacity:1" fill="#406d2d" d="M 95.5,228.5 C 99.1224,228.322 102.456,228.989 105.5,230.5C 101.352,230.393 98.019,229.727 95.5,228.5 Z"/></g>
<g><path style="opacity:1" fill="#203119" d="M 59.5,225.5 C 71.6023,226.429 83.6023,227.429 95.5,228.5C 98.019,229.727 101.352,230.393 105.5,230.5C 114.471,232.151 122.138,236.151 128.5,242.5C 128.631,243.239 128.464,243.906 128,244.5C 127.282,243.549 126.449,243.383 125.5,244C 126.5,245 127.5,246 128.5,247C 127.833,247.333 127.167,247.667 126.5,248C 127.5,249 128.5,250 129.5,251C 128.906,251.464 128.239,251.631 127.5,251.5C 126.153,250.972 124.819,250.805 123.5,251C 125.349,252.093 127.016,253.426 128.5,255C 127.451,255.492 126.451,255.326 125.5,254.5C 125.167,255.167 124.833,255.833 124.5,256.5C 122.37,255.533 120.37,254.366 118.5,253C 119.167,252.333 119.833,251.667 120.5,251C 115.863,248.511 111.196,246.344 106.5,244.5C 101.043,241.712 95.376,240.712 89.5,241.5C 86.7196,240.922 84.0529,240.255 81.5,239.5C 75.9112,237.854 69.5779,236.354 62.5,235C 64.3817,234.802 66.0484,234.302 67.5,233.5C 78.7215,234.778 89.7215,236.778 100.5,239.5C 105.353,241.34 110.353,243.007 115.5,244.5C 117.84,245.086 120.007,246.086 122,247.5C 122.5,247 123,246.5 123.5,246C 120.436,244.141 117.436,242.308 114.5,240.5C 107.238,236.431 99.5709,234.764 91.5,235.5C 84.0271,234.624 76.6938,233.624 69.5,232.5C 68.4723,231.705 66.8056,231.038 64.5,230.5C 62.8008,230.34 61.1341,230.506 59.5,231C 63.5,231.667 63.5,232.333 59.5,233C 61.5951,233.556 61.7618,234.056 60,234.5C 58.7753,234.138 57.6086,233.638 56.5,233C 58.8776,232.026 58.5443,231.359 55.5,231C 59.5,230.333 59.5,229.667 55.5,229C 59.5,228.333 59.5,227.667 55.5,227C 57.0581,226.79 58.3915,226.29 59.5,225.5 Z"/></g>
<g><path style="opacity:1" fill="#3c662a" d="M 91.5,235.5 C 99.5709,234.764 107.238,236.431 114.5,240.5C 107.012,238.045 99.3457,236.378 91.5,235.5 Z"/></g>
<g><path style="opacity:1" fill="#060906" d="M 69.5,232.5 C 76.6938,233.624 84.0271,234.624 91.5,235.5C 99.3457,236.378 107.012,238.045 114.5,240.5C 117.436,242.308 120.436,244.141 123.5,246C 123,246.5 122.5,247 122,247.5C 120.007,246.086 117.84,245.086 115.5,244.5C 111.044,241.459 106.044,239.792 100.5,239.5C 89.7215,236.778 78.7215,234.778 67.5,233.5C 66.1266,233.657 64.7932,233.49 63.5,233C 65.4727,232.505 67.4727,232.338 69.5,232.5 Z"/></g>
<g><path style="opacity:1" fill="#3d692b" d="M 64.5,230.5 C 63.0484,229.698 61.3817,229.198 59.5,229C 65.8363,228.848 72.1697,229.181 78.5,230C 73.8452,230.499 69.1785,230.666 64.5,230.5 Z"/></g>
<g><path style="opacity:1" fill="#cc9747" d="M 233.5,235.5 C 235.433,237.937 237.6,240.271 240,242.5C 240.603,239.094 241.769,238.761 243.5,241.5C 241.517,243.984 239.35,246.317 237,248.5C 235.978,247.646 235.145,246.646 234.5,245.5C 235.274,244.289 236.107,244.289 237,245.5C 236.292,242.124 234.126,239.958 230.5,239C 231.71,237.961 232.71,236.794 233.5,235.5 Z"/></g>
<g><path style="opacity:1" fill="#3c672b" d="M 100.5,239.5 C 106.044,239.792 111.044,241.459 115.5,244.5C 110.353,243.007 105.353,241.34 100.5,239.5 Z"/></g>
<g><path style="opacity:1" fill="#43722f" d="M 89.5,241.5 C 95.376,240.712 101.043,241.712 106.5,244.5C 100.859,243.372 95.1924,242.372 89.5,241.5 Z"/></g>
<g><path style="opacity:1" fill="#11180e" d="M 69.5,238.5 C 73.5,238.833 77.5,239.167 81.5,239.5C 84.0529,240.255 86.7196,240.922 89.5,241.5C 95.1924,242.372 100.859,243.372 106.5,244.5C 111.196,246.344 115.863,248.511 120.5,251C 119.833,251.667 119.167,252.333 118.5,253C 120.37,254.366 122.37,255.533 124.5,256.5C 124.833,255.833 125.167,255.167 125.5,254.5C 126.451,255.326 127.451,255.492 128.5,255C 127.016,253.426 125.349,252.093 123.5,251C 124.819,250.805 126.153,250.972 127.5,251.5C 128.145,252.812 129.145,253.812 130.5,254.5C 130.109,253.282 130.776,252.448 132.5,252C 131.04,251.189 130.707,250.355 131.5,249.5C 133.316,250.815 134.983,252.315 136.5,254C 135.016,256.475 132.349,258.142 128.5,259C 129.833,260 131.167,261 132.5,262C 131.167,262 129.833,262 128.5,262C 129.91,263.372 131.577,264.205 133.5,264.5C 134.463,265.363 134.463,266.03 133.5,266.5C 131.925,265.544 130.258,264.877 128.5,264.5C 124.419,261.126 119.753,258.793 114.5,257.5C 111.135,255.538 107.468,254.038 103.5,253C 91.1229,249.822 78.7896,246.489 66.5,243C 77.7898,245.091 89.1231,247.257 100.5,249.5C 88.6761,246.161 76.6761,242.994 64.5,240C 65.1667,239.833 65.8333,239.667 66.5,239.5C 80.5059,242.668 94.5059,245.501 108.5,248C 95.4829,244.369 82.4829,241.202 69.5,238.5 Z"/></g>
<g><path style="opacity:1" fill="#3a622a" d="M 44.5,220.5 C 49.0223,223.548 54.0223,225.215 59.5,225.5C 58.3915,226.29 57.0581,226.79 55.5,227C 59.5,227.667 59.5,228.333 55.5,229C 59.5,229.667 59.5,230.333 55.5,231C 58.5443,231.359 58.8776,232.026 56.5,233C 57.6086,233.638 58.7753,234.138 60,234.5C 61.7618,234.056 61.5951,233.556 59.5,233C 63.5,232.333 63.5,231.667 59.5,231C 61.1341,230.506 62.8008,230.34 64.5,230.5C 66.8056,231.038 68.4723,231.705 69.5,232.5C 67.4727,232.338 65.4727,232.505 63.5,233C 64.7932,233.49 66.1266,233.657 67.5,233.5C 66.0484,234.302 64.3817,234.802 62.5,235C 69.5779,236.354 75.9112,237.854 81.5,239.5C 77.5,239.167 73.5,238.833 69.5,238.5C 82.4829,241.202 95.4829,244.369 108.5,248C 94.5059,245.501 80.5059,242.668 66.5,239.5C 65.8333,239.667 65.1667,239.833 64.5,240C 76.6761,242.994 88.6761,246.161 100.5,249.5C 89.1231,247.257 77.7898,245.091 66.5,243C 78.7896,246.489 91.1229,249.822 103.5,253C 107.468,254.038 111.135,255.538 114.5,257.5C 100.288,253.364 85.955,249.697 71.5,246.5C 70.209,246.263 69.209,246.596 68.5,247.5C 68.0618,247.435 67.7284,247.601 67.5,248C 68.4158,248.278 69.0825,248.778 69.5,249.5C 68.448,249.351 67.448,249.517 66.5,250C 68.0664,250.608 69.3998,251.442 70.5,252.5C 68.6214,252.393 68.2881,252.893 69.5,254C 71.8333,255 74.1667,256 76.5,257C 75.1011,257.595 73.7678,257.428 72.5,256.5C 71.537,256.97 71.537,257.637 72.5,258.5C 71.7611,258.369 71.0944,258.536 70.5,259C 72.8981,260.524 75.2314,262.024 77.5,263.5C 77.5,263.833 77.5,264.167 77.5,264.5C 81.659,267.749 86.3256,270.249 91.5,272C 89.9651,272.496 88.4651,272.33 87,271.5C 85.3164,271.683 85.1498,272.35 86.5,273.5C 81.6076,271.902 80.9409,272.402 84.5,275C 84.1667,275.167 83.8333,275.333 83.5,275.5C 72.8968,270.045 63.2301,263.378 54.5,255.5C 57.2832,252.372 56.6165,249.872 52.5,248C 52.8333,247.667 53.1667,247.333 53.5,247C 49.675,244.768 49.675,242.768 53.5,241C 48.5531,238.453 48.5531,236.12 53.5,234C 51.6667,234.167 49.8333,234.333 48,234.5C 45.0483,232.807 44.8817,230.974 47.5,229C 46.4348,227.371 45.1014,226.204 43.5,225.5C 43.5786,223.872 43.9119,222.205 44.5,220.5 Z"/></g>
<g><path style="opacity:1" fill="#0c120a" d="M 69.5,238.5 C 67.0108,238.702 64.6775,238.202 62.5,237C 65.0583,236.725 67.3916,237.225 69.5,238.5 Z"/></g>
<g><path style="opacity:1" fill="#447530" d="M 68.5,247.5 C 69.209,246.596 70.209,246.263 71.5,246.5C 85.3926,250.981 99.3926,255.481 113.5,260C 98.4399,256.316 83.4399,252.15 68.5,247.5 Z"/></g>
<g><path style="opacity:1" fill="#0e130b" d="M 71.5,246.5 C 85.955,249.697 100.288,253.364 114.5,257.5C 118.849,260.341 123.516,262.674 128.5,264.5C 128.265,265.097 127.765,265.43 127,265.5C 124.95,264.209 122.783,263.709 120.5,264C 125.068,266.452 129.735,268.618 134.5,270.5C 135.463,271.363 135.463,272.03 134.5,272.5C 131.376,270.423 128.042,269.257 124.5,269C 128.714,271.274 133.047,273.274 137.5,275C 135.512,275.18 133.512,275.014 131.5,274.5C 135.869,276.796 140.536,278.629 145.5,280C 142.456,280.359 142.122,281.026 144.5,282C 142.447,282.325 140.447,281.991 138.5,281C 139.5,280.667 140.5,280.333 141.5,280C 139.564,279.187 137.564,278.687 135.5,278.5C 135.918,279.222 136.584,279.722 137.5,280C 133.124,279.659 128.791,278.826 124.5,277.5C 113.195,272.731 101.528,268.731 89.5,265.5C 84.1397,262.597 78.473,260.264 72.5,258.5C 71.537,257.637 71.537,256.97 72.5,256.5C 73.7678,257.428 75.1011,257.595 76.5,257C 74.1667,256 71.8333,255 69.5,254C 68.2881,252.893 68.6214,252.393 70.5,252.5C 69.3998,251.442 68.0664,250.608 66.5,250C 67.448,249.517 68.448,249.351 69.5,249.5C 69.0825,248.778 68.4158,248.278 67.5,248C 67.7284,247.601 68.0618,247.435 68.5,247.5C 83.4399,252.15 98.4399,256.316 113.5,260C 99.3926,255.481 85.3926,250.981 71.5,246.5 Z"/></g>
<g><path style="opacity:1" fill="#467831" d="M 69.5,249.5 C 76.7839,251.261 83.7839,253.595 90.5,256.5C 83.0854,255.14 76.0854,252.806 69.5,249.5 Z"/></g>
<g><path style="opacity:1" fill="#41702e" d="M 100.5,249.5 C 106.442,250.425 112.109,252.258 117.5,255C 111.602,253.867 105.935,252.034 100.5,249.5 Z"/></g>
<g><path style="opacity:1" fill="#447530" d="M 70.5,252.5 C 73.5418,252.733 76.2084,253.733 78.5,255.5C 75.4582,255.267 72.7916,254.267 70.5,252.5 Z"/></g>
<g><path style="opacity:1" fill="#e1a64e" d="M 216.5,249.5 C 217.687,253.811 220.687,256.311 225.5,257C 223.253,260.162 221.086,259.995 219,256.5C 219.763,259.42 219.097,261.753 217,263.5C 216.667,260.5 216.333,257.5 216,254.5C 214.933,253.809 213.766,253.309 212.5,253C 213.731,251.595 215.064,250.429 216.5,249.5 Z"/></g>
<g><path style="opacity:1" fill="#477a32" d="M 78.5,255.5 C 85.7839,257.261 92.7839,259.595 99.5,262.5C 92.0854,261.14 85.0854,258.806 78.5,255.5 Z"/></g>
<g><path style="opacity:1" fill="#477a32" d="M 90.5,256.5 C 94.1621,256.723 97.4954,257.723 100.5,259.5C 96.8379,259.277 93.5046,258.277 90.5,256.5 Z"/></g>
<g><path style="opacity:1" fill="#416f2e" d="M 114.5,257.5 C 119.753,258.793 124.419,261.126 128.5,264.5C 123.516,262.674 118.849,260.341 114.5,257.5 Z"/></g>
<g><path style="opacity:1" fill="#29421e" d="M 128.5,242.5 C 133.5,247.167 138.5,251.833 143.5,256.5C 143.586,257.496 143.252,258.329 142.5,259C 145.844,261.004 148.177,263.337 149.5,266C 146.833,266.667 146.833,267.333 149.5,268C 148.584,268.374 147.75,268.874 147,269.5C 145.274,267.985 143.774,266.318 142.5,264.5C 138.639,265.499 138.639,266.665 142.5,268C 140.203,269.16 140.536,270.16 143.5,271C 142.833,271.333 142.167,271.667 141.5,272C 146.27,273.223 146.437,274.39 142,275.5C 140.775,275.138 139.609,274.638 138.5,274C 139.167,273.667 139.833,273.333 140.5,273C 138.593,271.878 136.593,271.045 134.5,270.5C 133.448,268.345 134.114,268.012 136.5,269.5C 136.109,268.282 136.776,267.448 138.5,267C 136.922,265.906 135.255,265.072 133.5,264.5C 131.577,264.205 129.91,263.372 128.5,262C 129.833,262 131.167,262 132.5,262C 131.167,261 129.833,260 128.5,259C 132.349,258.142 135.016,256.475 136.5,254C 134.983,252.315 133.316,250.815 131.5,249.5C 130.707,250.355 131.04,251.189 132.5,252C 130.776,252.448 130.109,253.282 130.5,254.5C 129.145,253.812 128.145,252.812 127.5,251.5C 128.239,251.631 128.906,251.464 129.5,251C 128.5,250 127.5,249 126.5,248C 127.167,247.667 127.833,247.333 128.5,247C 127.5,246 126.5,245 125.5,244C 126.449,243.383 127.282,243.549 128,244.5C 128.464,243.906 128.631,243.239 128.5,242.5 Z"/></g>
<g><path style="opacity:1" fill="#487c33" d="M 116.5,271.5 C 104.685,268.173 93.0183,264.34 81.5,260C 93.5462,262.738 105.213,266.571 116.5,271.5 Z"/></g>
<g><path style="opacity:1" fill="#477a32" d="M 100.5,259.5 C 104.915,259.861 108.915,261.194 112.5,263.5C 108.216,262.739 104.216,261.405 100.5,259.5 Z"/></g>
<g><path style="opacity:1" fill="#497c33" d="M 72.5,258.5 C 78.473,260.264 84.1397,262.597 89.5,265.5C 83.3653,264.127 77.6986,261.793 72.5,258.5 Z"/></g>
<g><path style="opacity:1" fill="#4a7f34" d="M 99.5,262.5 C 103.915,262.861 107.915,264.194 111.5,266.5C 107.216,265.739 103.216,264.405 99.5,262.5 Z"/></g>
<g><path style="opacity:1" fill="#43732f" d="M 112.5,263.5 C 116.062,263.965 119.395,265.132 122.5,267C 118.852,266.728 115.518,265.562 112.5,263.5 Z"/></g>
<g><path style="opacity:1" fill="#497d33" d="M 89.5,265.5 C 101.528,268.731 113.195,272.731 124.5,277.5C 112.472,274.269 100.805,270.269 89.5,265.5 Z"/></g>
<g><path style="opacity:1" fill="#0a1009" d="M 72.5,258.5 C 77.6986,261.793 83.3653,264.127 89.5,265.5C 100.805,270.269 112.472,274.269 124.5,277.5C 128.381,279.469 132.381,281.136 136.5,282.5C 116.363,277.565 96.6965,271.232 77.5,263.5C 75.2314,262.024 72.8981,260.524 70.5,259C 71.0944,258.536 71.7611,258.369 72.5,258.5 Z"/></g>
<g><path style="opacity:1" fill="#4a7f34" d="M 111.5,266.5 C 114.311,266.826 116.978,267.659 119.5,269C 116.461,269.264 113.794,268.431 111.5,266.5 Z"/></g>
<g><path style="opacity:1" fill="#375c28" d="M 128.5,264.5 C 130.258,264.877 131.925,265.544 133.5,266.5C 134.463,266.03 134.463,265.363 133.5,264.5C 135.255,265.072 136.922,265.906 138.5,267C 136.776,267.448 136.109,268.282 136.5,269.5C 134.114,268.012 133.448,268.345 134.5,270.5C 129.735,268.618 125.068,266.452 120.5,264C 122.783,263.709 124.95,264.209 127,265.5C 127.765,265.43 128.265,265.097 128.5,264.5 Z"/></g>
<g><path style="opacity:1" fill="#4b8135" d="M 77.5,264.5 C 77.5,264.167 77.5,263.833 77.5,263.5C 96.6965,271.232 116.363,277.565 136.5,282.5C 137.263,283.268 138.263,283.768 139.5,284C 137.866,284.494 136.199,284.66 134.5,284.5C 115.295,278.653 96.2951,271.986 77.5,264.5 Z"/></g>
<g><path style="opacity:1" fill="#487b33" d="M 116.5,271.5 C 119.542,271.733 122.208,272.733 124.5,274.5C 121.458,274.267 118.792,273.267 116.5,271.5 Z"/></g>
<g><path style="opacity:1" fill="#457731" d="M 131.5,274.5 C 128.984,274.245 126.65,273.411 124.5,272C 127.242,271.705 129.575,272.538 131.5,274.5 Z"/></g>
<g><path style="opacity:1" fill="#4e8536" d="M 86.5,273.5 C 89.0163,273.755 91.3496,274.589 93.5,276C 90.7583,276.295 88.425,275.462 86.5,273.5 Z"/></g>
<g><path style="opacity:1" fill="#4b8035" d="M 134.5,284.5 C 135.263,285.268 136.263,285.768 137.5,286C 135.866,286.494 134.199,286.66 132.5,286.5C 120.419,283.305 108.419,279.472 96.5,275C 108.937,278.776 121.604,281.943 134.5,284.5 Z"/></g>
<g><path style="opacity:1" fill="#467831" d="M 124.5,274.5 C 128.537,275.065 132.203,276.399 135.5,278.5C 131.467,277.975 127.8,276.642 124.5,274.5 Z"/></g>
<g><path style="opacity:1" fill="#395f29" d="M 143.5,256.5 C 149.238,261.58 155.238,266.246 161.5,270.5C 158.279,274.189 154.279,277.022 149.5,279C 152.544,279.359 152.878,280.026 150.5,281C 154.791,281.177 158.458,279.677 161.5,276.5C 162.293,277.355 161.96,278.189 160.5,279C 158.833,280 157.167,281 155.5,282C 158.028,281.895 160.362,282.062 162.5,282.5C 165.278,282.819 168.945,283.319 173.5,284C 165.245,285.798 156.911,287.132 148.5,288C 152.535,288.697 156.535,288.53 160.5,287.5C 163.349,287.964 166.016,288.631 168.5,289.5C 166.265,289.205 164.265,289.539 162.5,290.5C 150.833,290.5 139.167,290.5 127.5,290.5C 127.5,290.167 127.5,289.833 127.5,289.5C 129.857,289.663 132.19,289.497 134.5,289C 122.152,286.884 110.152,283.55 98.5,279C 109.611,282.196 120.944,284.696 132.5,286.5C 134.199,286.66 135.866,286.494 137.5,286C 136.263,285.768 135.263,285.268 134.5,284.5C 136.199,284.66 137.866,284.494 139.5,284C 138.263,283.768 137.263,283.268 136.5,282.5C 132.381,281.136 128.381,279.469 124.5,277.5C 128.791,278.826 133.124,279.659 137.5,280C 136.584,279.722 135.918,279.222 135.5,278.5C 137.564,278.687 139.564,279.187 141.5,280C 140.5,280.333 139.5,280.667 138.5,281C 140.447,281.991 142.447,282.325 144.5,282C 142.122,281.026 142.456,280.359 145.5,280C 140.536,278.629 135.869,276.796 131.5,274.5C 133.512,275.014 135.512,275.18 137.5,275C 133.047,273.274 128.714,271.274 124.5,269C 128.042,269.257 131.376,270.423 134.5,272.5C 135.463,272.03 135.463,271.363 134.5,270.5C 136.593,271.045 138.593,271.878 140.5,273C 139.833,273.333 139.167,273.667 138.5,274C 139.609,274.638 140.775,275.138 142,275.5C 146.437,274.39 146.27,273.223 141.5,272C 142.167,271.667 142.833,271.333 143.5,271C 140.536,270.16 140.203,269.16 142.5,268C 138.639,266.665 138.639,265.499 142.5,264.5C 143.774,266.318 145.274,267.985 147,269.5C 147.75,268.874 148.584,268.374 149.5,268C 146.833,267.333 146.833,266.667 149.5,266C 148.177,263.337 145.844,261.004 142.5,259C 143.252,258.329 143.586,257.496 143.5,256.5 Z"/></g>
<g><path style="opacity:0.96" fill="#71c24e" d="M 168.5,274.5 C 181.257,279.028 194.257,279.695 207.5,276.5C 195.174,282.609 182.174,286.942 168.5,289.5C 166.016,288.631 163.349,287.964 160.5,287.5C 156.535,288.53 152.535,288.697 148.5,288C 156.911,287.132 165.245,285.798 173.5,284C 168.945,283.319 165.278,282.819 162.5,282.5C 163.222,282.082 163.722,281.416 164,280.5C 166.889,281.201 170.056,281.701 173.5,282C 172.084,279.735 170.084,278.569 167.5,278.5C 167.232,276.901 167.566,275.568 168.5,274.5 Z"/></g>
<g><path style="opacity:1" fill="#518b38" d="M 95.5,280.5 C 92.3093,279.908 89.3093,278.741 86.5,277C 89.9233,277.044 92.9233,278.21 95.5,280.5 Z"/></g>
<g><path style="opacity:1" fill="#4e8637" d="M 161.5,270.5 C 164.032,271.596 166.365,272.929 168.5,274.5C 167.566,275.568 167.232,276.901 167.5,278.5C 170.084,278.569 172.084,279.735 173.5,282C 170.056,281.701 166.889,281.201 164,280.5C 163.722,281.416 163.222,282.082 162.5,282.5C 160.362,282.062 158.028,281.895 155.5,282C 157.167,281 158.833,280 160.5,279C 161.96,278.189 162.293,277.355 161.5,276.5C 158.458,279.677 154.791,281.177 150.5,281C 152.878,280.026 152.544,279.359 149.5,279C 154.279,277.022 158.279,274.189 161.5,270.5 Z"/></g>
<g><path style="opacity:0.722" fill="#3d6a2b" d="M 95.5,280.5 C 106.188,283.835 116.855,286.835 127.5,289.5C 117.033,288.715 107.033,286.382 97.5,282.5C 96.8333,281.833 96.1667,281.167 95.5,280.5 Z"/></g>
</svg>
