<?xml version="1.0" encoding="UTF-8"?>
<!DOCTYPE svg PUBLIC "-//W3C//DTD SVG 1.1//EN" "http://www.w3.org/Graphics/SVG/1.1/DTD/svg11.dtd">
<svg xmlns="http://www.w3.org/2000/svg" version="1.1" width="160px" height="160px" style="shape-rendering:geometricPrecision; text-rendering:geometricPrecision; image-rendering:optimizeQuality; fill-rule:evenodd; clip-rule:evenodd" xmlns:xlink="http://www.w3.org/1999/xlink">
<g><path style="opacity:0.994" fill="#4f4f50" d="M 74.5,-0.5 C 79.1667,-0.5 83.8333,-0.5 88.5,-0.5C 87.7073,2.4188 86.3739,5.08546 84.5,7.5C 84.7093,8.08605 85.0426,8.58605 85.5,9C 83.5,9.66667 81.5,10.3333 79.5,11C 82.1667,12 84.8333,13 87.5,14C 84.9028,14.7792 84.9028,15.2792 87.5,15.5C 83.7397,17.9485 82.7397,21.2818 84.5,25.5C 83.078,26.925 81.4113,27.925 79.5,28.5C 82.6583,25.2058 83.1583,21.5392 81,17.5C 74.1815,15.7099 71.8482,18.3766 74,25.5C 74.5133,26.5266 75.0133,27.5266 75.5,28.5C 75.19,29.7383 74.69,29.7383 74,28.5C 72.3627,29.8329 71.5293,31.1663 71.5,32.5C 70.6919,32.1924 70.0253,31.6924 69.5,31C 70.5981,30.2303 70.5981,29.397 69.5,28.5C 70.9468,27.8658 71.6134,26.6991 71.5,25C 71.1661,22.8255 70.1661,20.9921 68.5,19.5C 69.6119,18.7348 70.2786,17.7348 70.5,16.5C 69.3915,15.71 68.0581,15.21 66.5,15C 69.6222,13.5792 69.9556,11.9125 67.5,10C 68.1667,9.66667 68.8333,9.33333 69.5,9C 68.5494,8.28248 68.3828,7.44915 69,6.5C 70.6971,3.98003 72.5305,1.6467 74.5,-0.5 Z"/></g>
<g><path style="opacity:0.911" fill="#595959" d="M 66.5,-0.5 C 69.1667,-0.5 71.8333,-0.5 74.5,-0.5C 72.5305,1.6467 70.6971,3.98003 69,6.5C 68.3828,7.44915 68.5494,8.28248 69.5,9C 68.8333,9.33333 68.1667,9.66667 67.5,10C 69.9556,11.9125 69.6222,13.5792 66.5,15C 68.0581,15.21 69.3915,15.71 70.5,16.5C 66.5,15.8333 64.8333,17.5 65.5,21.5C 64.213,22.7683 63.213,22.435 62.5,20.5C 61.2888,21.2739 61.2888,22.1072 62.5,23C 61.1416,23.9344 59.8083,24.7677 58.5,25.5C 56.0233,24.88 56.0233,23.88 58.5,22.5C 55.8333,20.8333 55.8333,19.1667 58.5,17.5C 56.9547,16.5481 55.288,16.2148 53.5,16.5C 53.5,20.1667 53.5,23.8333 53.5,27.5C 52.8333,28.1667 52.1667,28.8333 51.5,29.5C 51.5,29.1667 51.5,28.8333 51.5,28.5C 51.5,27.5 51.5,26.5 51.5,25.5C 49.0523,25.9153 47.7189,24.9153 47.5,22.5C 48.0708,20.2586 49.4042,18.5919 51.5,17.5C 48.7274,16.0695 46.5607,16.7362 45,19.5C 44.4436,21.8848 44.6103,24.2181 45.5,26.5C 44.8333,26.1667 44.1667,25.8333 43.5,25.5C 40.1043,25.3671 39.7709,24.3671 42.5,22.5C 41.1468,21.4763 40.4802,20.143 40.5,18.5C 42.1788,18.7148 43.1788,18.0481 43.5,16.5C 41.1047,15.1857 38.6047,15.1857 36,16.5C 35.3828,15.5509 35.5494,14.7175 36.5,14C 35.9056,13.5357 35.2389,13.369 34.5,13.5C 37.9305,10.2744 41.9305,7.77442 46.5,6C 53.119,3.29265 59.7857,1.12598 66.5,-0.5 Z"/></g>
<g><path style="opacity:0.951" fill="#3f3f42" d="M 98.5,1.5 C 107.095,3.47403 115.095,6.80736 122.5,11.5C 121.71,12.7942 120.71,13.9609 119.5,15C 121.359,15.6008 121.692,16.4341 120.5,17.5C 118.847,16.2006 117.347,16.5339 116,18.5C 115.174,16.5946 114.007,16.2612 112.5,17.5C 113.18,18.8599 113.847,20.1932 114.5,21.5C 112.486,21.3915 110.82,22.0582 109.5,23.5C 109.229,21.1789 109.896,19.1789 111.5,17.5C 109.167,16.1667 106.833,16.1667 104.5,17.5C 106.223,19.8676 106.89,22.5342 106.5,25.5C 105.609,26.1098 104.609,26.4431 103.5,26.5C 102.602,25.8423 101.602,25.1757 100.5,24.5C 100.957,23.7025 101.624,23.3691 102.5,23.5C 103.828,22.0903 103.495,20.9236 101.5,20C 102.416,19.7216 103.082,19.2216 103.5,18.5C 103.5,17.8333 103.5,17.1667 103.5,16.5C 101.735,15.5386 99.7354,15.2053 97.5,15.5C 97.5,19.1667 97.5,22.8333 97.5,26.5C 96.8333,26.5 96.1667,26.5 95.5,26.5C 95.5,23.1667 95.5,19.8333 95.5,16.5C 95.0825,15.7784 94.4158,15.2784 93.5,15C 94.4506,14.2825 94.6172,13.4491 94,12.5C 93.3457,13.6956 92.8457,13.6956 92.5,12.5C 93.0253,11.8076 93.6919,11.3076 94.5,11C 93.6919,10.6924 93.0253,10.1924 92.5,9.5C 93.9091,9.34586 95.5758,9.17919 97.5,9C 96.6919,8.69238 96.0253,8.19238 95.5,7.5C 97.415,5.92878 98.415,3.92878 98.5,1.5 Z"/></g>
<g><path style="opacity:0.973" fill="#5a5a5a" d="M 34.5,13.5 C 35.2389,13.369 35.9056,13.5357 36.5,14C 35.5494,14.7175 35.3828,15.5509 36,16.5C 38.6047,15.1857 41.1047,15.1857 43.5,16.5C 41.5,16.5 39.5,16.5 37.5,16.5C 37.5,20.5 37.5,24.5 37.5,28.5C 38.5,28.5 39.5,28.5 40.5,28.5C 40.6495,29.552 40.4828,30.552 40,31.5C 39.6667,31.1667 39.3333,30.8333 39,30.5C 36.7183,32.7817 34.0516,35.4484 31,38.5C 29.6102,42.2806 27.9435,45.9472 26,49.5C 24.3745,48.5881 23.5412,49.2547 23.5,51.5C 18.1254,51.8282 12.7921,51.4948 7.5,50.5C 7.14451,49.4777 6.47784,48.811 5.5,48.5C 11.1671,33.5013 20.8337,21.8347 34.5,13.5 Z"/></g>
<g><path style="opacity:1" fill="#efefef" d="M 43.5,16.5 C 43.1788,18.0481 42.1788,18.7148 40.5,18.5C 40.4802,20.143 41.1468,21.4763 42.5,22.5C 39.7709,24.3671 40.1043,25.3671 43.5,25.5C 43.5,26.5 43.5,27.5 43.5,28.5C 42.5,28.5 41.5,28.5 40.5,28.5C 39.5,28.5 38.5,28.5 37.5,28.5C 37.5,24.5 37.5,20.5 37.5,16.5C 39.5,16.5 41.5,16.5 43.5,16.5 Z"/></g>
<g><path style="opacity:1" fill="#eeeeee" d="M 51.5,28.5 C 49.1417,28.7475 47.1417,28.0808 45.5,26.5C 44.6103,24.2181 44.4436,21.8848 45,19.5C 46.5607,16.7362 48.7274,16.0695 51.5,17.5C 49.4042,18.5919 48.0708,20.2586 47.5,22.5C 47.7189,24.9153 49.0523,25.9153 51.5,25.5C 51.5,26.5 51.5,27.5 51.5,28.5 Z"/></g>
<g><path style="opacity:1" fill="#f1f1f1" d="M 58.5,25.5 C 59.404,26.209 59.7373,27.209 59.5,28.5C 57.2646,28.7947 55.2646,28.4614 53.5,27.5C 53.5,23.8333 53.5,20.1667 53.5,16.5C 55.288,16.2148 56.9547,16.5481 58.5,17.5C 55.8333,19.1667 55.8333,20.8333 58.5,22.5C 56.0233,23.88 56.0233,24.88 58.5,25.5 Z"/></g>
<g><path style="opacity:1" fill="#f0f0f0" d="M 79.5,28.5 C 78.1667,28.5 76.8333,28.5 75.5,28.5C 75.0133,27.5266 74.5133,26.5266 74,25.5C 71.8482,18.3766 74.1815,15.7099 81,17.5C 83.1583,21.5392 82.6583,25.2058 79.5,28.5 Z"/></g>
<g><path style="opacity:1" fill="#e9e9e9" d="M 87.5,15.5 C 88.5,15.5 89.5,15.5 90.5,15.5C 89.2758,17.8197 87.9425,20.153 86.5,22.5C 86.7189,24.9153 88.0523,25.9153 90.5,25.5C 90.5,26.5 90.5,27.5 90.5,28.5C 87.6874,28.9754 85.6874,27.9754 84.5,25.5C 82.7397,21.2818 83.7397,17.9485 87.5,15.5 Z"/></g>
<g><path style="opacity:1" fill="#dfdee0" d="M 95.5,16.5 C 95.5,19.8333 95.5,23.1667 95.5,26.5C 95.5,27.8333 94.8333,28.5 93.5,28.5C 92.5166,24.7016 92.1832,20.7016 92.5,16.5C 93.5,16.5 94.5,16.5 95.5,16.5 Z"/></g>
<g><path style="opacity:1" fill="#fbfbfc" d="M 103.5,16.5 C 103.5,17.1667 103.5,17.8333 103.5,18.5C 102.5,18.5 101.5,18.5 100.5,18.5C 100.831,20.3224 101.498,21.9891 102.5,23.5C 101.624,23.3691 100.957,23.7025 100.5,24.5C 101.602,25.1757 102.602,25.8423 103.5,26.5C 103.5,26.8333 103.5,27.1667 103.5,27.5C 101.833,27.5 100.167,27.5 98.5,27.5C 98.5,23.8333 98.5,20.1667 98.5,16.5C 100.167,16.5 101.833,16.5 103.5,16.5 Z"/></g>
<g><path style="opacity:1" fill="#eeefef" d="M 109.5,23.5 C 109.5,25.1667 109.5,26.8333 109.5,28.5C 108.5,28.5 107.5,28.5 106.5,28.5C 106.5,27.5 106.5,26.5 106.5,25.5C 106.89,22.5342 106.223,19.8676 104.5,17.5C 106.833,16.1667 109.167,16.1667 111.5,17.5C 109.896,19.1789 109.229,21.1789 109.5,23.5 Z"/></g>
<g><path style="opacity:1" fill="#eff0f1" d="M 120.5,17.5 C 119.559,19.0495 118.893,20.7162 118.5,22.5C 117.837,24.0419 117.17,25.7086 116.5,27.5C 115.83,25.7086 115.163,24.0419 114.5,22.5C 114.5,22.1667 114.5,21.8333 114.5,21.5C 113.847,20.1932 113.18,18.8599 112.5,17.5C 114.007,16.2612 115.174,16.5946 116,18.5C 117.347,16.5339 118.847,16.2006 120.5,17.5 Z"/></g>
<g><path style="opacity:0.993" fill="#26262b" d="M 131.5,18.5 C 135.898,21.8947 139.564,25.8947 142.5,30.5C 141.526,31.635 140.359,32.635 139,33.5C 136.63,38.0618 133.796,42.3951 130.5,46.5C 128.343,47.7904 126.01,48.6237 123.5,49C 123.957,49.414 124.291,49.914 124.5,50.5C 132.527,51.7702 140.527,51.7702 148.5,50.5C 148.389,51.1174 148.056,51.6174 147.5,52C 139.989,52.1712 132.655,52.6712 125.5,53.5C 124.167,55.5 122.5,57.1667 120.5,58.5C 118.453,58.5111 116.453,58.8444 114.5,59.5C 113.287,59.2528 112.62,58.5862 112.5,57.5C 112.5,57.1667 112.5,56.8333 112.5,56.5C 110.977,53.655 109.977,50.655 109.5,47.5C 111.143,47.5198 112.476,46.8532 113.5,45.5C 119.021,37.6276 123.521,29.6276 127,21.5C 128.129,19.8588 129.629,18.8588 131.5,18.5 Z"/></g>
<g><path style="opacity:1" fill="#5d5d5d" d="M 76.5,18.5 C 78.7224,18.5587 79.7224,19.7253 79.5,22C 79.6125,23.6624 78.9458,24.8291 77.5,25.5C 76.5258,23.2573 76.1924,20.924 76.5,18.5 Z"/></g>
<g><path style="opacity:1" fill="#4e4e4d" d="M 65.5,21.5 C 69.1654,23.374 69.1654,24.7073 65.5,25.5C 65.5,26.5 65.5,27.5 65.5,28.5C 66.5,28.5 67.5,28.5 68.5,28.5C 68.6495,29.552 68.4828,30.552 68,31.5C 67.6667,31.1667 67.3333,30.8333 67,30.5C 65.5905,31.7875 64.0905,32.9542 62.5,34C 62.9574,34.414 63.2907,34.914 63.5,35.5C 72.6646,36.4513 81.6646,37.7846 90.5,39.5C 94.5023,41.4788 98.8357,42.9788 103.5,44C 102.748,44.6708 102.414,45.5041 102.5,46.5C 99.2801,44.98 95.9468,43.6467 92.5,42.5C 86.7071,39.6105 80.7071,38.9438 74.5,40.5C 69.4391,40.7066 64.7725,42.0399 60.5,44.5C 58.4727,44.3379 56.4727,44.5045 54.5,45C 53.6634,46.0113 53.33,47.1779 53.5,48.5C 49.8039,51.5359 46.8039,55.2026 44.5,59.5C 42.1432,59.6633 39.8098,59.4966 37.5,59C 34.547,56.066 35.047,53.8993 39,52.5C 39.4922,51.451 39.3256,50.451 38.5,49.5C 40.73,47.5471 43.0633,45.7138 45.5,44C 45.0426,43.586 44.7093,43.086 44.5,42.5C 46.1932,41.7717 47.6932,40.7717 49,39.5C 49.3333,39.8333 49.6667,40.1667 50,40.5C 50.9301,38.4569 51.4301,36.6236 51.5,35C 50.5,34.6667 49.5,34.3333 48.5,34C 49.8333,33 51.1667,32 52.5,31C 51.944,30.6174 51.6107,30.1174 51.5,29.5C 52.1667,28.8333 52.8333,28.1667 53.5,27.5C 55.2646,28.4614 57.2646,28.7947 59.5,28.5C 59.7373,27.209 59.404,26.209 58.5,25.5C 59.8083,24.7677 61.1416,23.9344 62.5,23C 61.2888,22.1072 61.2888,21.2739 62.5,20.5C 63.213,22.435 64.213,22.7683 65.5,21.5 Z"/></g>
<g><path style="opacity:1" fill="#ededee" d="M 70.5,16.5 C 70.2786,17.7348 69.6119,18.7348 68.5,19.5C 70.1661,20.9921 71.1661,22.8255 71.5,25C 71.6134,26.6991 70.9468,27.8658 69.5,28.5C 69.1667,28.5 68.8333,28.5 68.5,28.5C 67.5,28.5 66.5,28.5 65.5,28.5C 65.5,27.5 65.5,26.5 65.5,25.5C 69.1654,24.7073 69.1654,23.374 65.5,21.5C 64.8333,17.5 66.5,15.8333 70.5,16.5 Z"/></g>
<g><path style="opacity:1" fill="#a6a6a9" d="M 103.5,16.5 C 101.833,16.5 100.167,16.5 98.5,16.5C 98.5,20.1667 98.5,23.8333 98.5,27.5C 100.167,27.5 101.833,27.5 103.5,27.5C 102.726,28.1471 101.726,28.4805 100.5,28.5C 98.9704,28.3601 97.9704,27.6935 97.5,26.5C 97.5,22.8333 97.5,19.1667 97.5,15.5C 99.7354,15.2053 101.735,15.5386 103.5,16.5 Z"/></g>
<g><path style="opacity:1" fill="#9a9a9c" d="M 103.5,18.5 C 103.082,19.2216 102.416,19.7216 101.5,20C 103.495,20.9236 103.828,22.0903 102.5,23.5C 101.498,21.9891 100.831,20.3224 100.5,18.5C 101.5,18.5 102.5,18.5 103.5,18.5 Z"/></g>
<g><path style="opacity:1" fill="#565656" d="M 43.5,25.5 C 44.1667,25.8333 44.8333,26.1667 45.5,26.5C 47.1417,28.0808 49.1417,28.7475 51.5,28.5C 51.5,28.8333 51.5,29.1667 51.5,29.5C 51.6107,30.1174 51.944,30.6174 52.5,31C 51.1667,32 49.8333,33 48.5,34C 49.5,34.3333 50.5,34.6667 51.5,35C 51.4301,36.6236 50.9301,38.4569 50,40.5C 49.6667,40.1667 49.3333,39.8333 49,39.5C 47.6932,40.7717 46.1932,41.7717 44.5,42.5C 44.7093,43.086 45.0426,43.586 45.5,44C 43.0633,45.7138 40.73,47.5471 38.5,49.5C 39.3256,50.451 39.4922,51.451 39,52.5C 35.047,53.8993 34.547,56.066 37.5,59C 39.8098,59.4966 42.1432,59.6633 44.5,59.5C 42.3926,60.4682 40.0593,60.8016 37.5,60.5C 34.7531,60.8134 32.0865,60.48 29.5,59.5C 27.8288,56.5079 25.8288,53.8413 23.5,51.5C 23.5412,49.2547 24.3745,48.5881 26,49.5C 27.9435,45.9472 29.6102,42.2806 31,38.5C 34.0516,35.4484 36.7183,32.7817 39,30.5C 39.3333,30.8333 39.6667,31.1667 40,31.5C 40.4828,30.552 40.6495,29.552 40.5,28.5C 41.5,28.5 42.5,28.5 43.5,28.5C 43.5,27.5 43.5,26.5 43.5,25.5 Z"/></g>
<g><path style="opacity:1" fill="#313135" d="M 122.5,11.5 C 125.81,13.4821 128.81,15.8154 131.5,18.5C 129.629,18.8588 128.129,19.8588 127,21.5C 123.521,29.6276 119.021,37.6276 113.5,45.5C 112.476,46.8532 111.143,47.5198 109.5,47.5C 109.977,50.655 110.977,53.655 112.5,56.5C 110.861,54.1939 108.861,52.1939 106.5,50.5C 104.833,49.5 103.5,48.1667 102.5,46.5C 102.414,45.5041 102.748,44.6708 103.5,44C 98.8357,42.9788 94.5023,41.4788 90.5,39.5C 90.2623,36.5918 91.2623,34.2585 93.5,32.5C 92.0977,31.1575 92.4311,30.3242 94.5,30C 93.944,29.6174 93.6107,29.1174 93.5,28.5C 94.8333,28.5 95.5,27.8333 95.5,26.5C 96.1667,26.5 96.8333,26.5 97.5,26.5C 97.9704,27.6935 98.9704,28.3601 100.5,28.5C 101.726,28.4805 102.726,28.1471 103.5,27.5C 103.5,27.1667 103.5,26.8333 103.5,26.5C 104.609,26.4431 105.609,26.1098 106.5,25.5C 106.5,26.5 106.5,27.5 106.5,28.5C 107.5,28.5 108.5,28.5 109.5,28.5C 109.5,26.8333 109.5,25.1667 109.5,23.5C 110.82,22.0582 112.486,21.3915 114.5,21.5C 114.5,21.8333 114.5,22.1667 114.5,22.5C 114.5,24.5 114.5,26.5 114.5,28.5C 115.833,28.5 117.167,28.5 118.5,28.5C 118.5,26.5 118.5,24.5 118.5,22.5C 118.893,20.7162 119.559,19.0495 120.5,17.5C 121.692,16.4341 121.359,15.6008 119.5,15C 120.71,13.9609 121.71,12.7942 122.5,11.5 Z"/></g>
<g><path style="opacity:1" fill="#8b8c8f" d="M 114.5,22.5 C 115.163,24.0419 115.83,25.7086 116.5,27.5C 117.17,25.7086 117.837,24.0419 118.5,22.5C 118.5,24.5 118.5,26.5 118.5,28.5C 117.167,28.5 115.833,28.5 114.5,28.5C 114.5,26.5 114.5,24.5 114.5,22.5 Z"/></g>
<g><path style="opacity:0.97" fill="#1b1b23" d="M 142.5,30.5 C 147.314,35.3358 150.981,41.0024 153.5,47.5C 151.589,48.075 149.922,49.075 148.5,50.5C 140.527,51.7702 132.527,51.7702 124.5,50.5C 124.291,49.914 123.957,49.414 123.5,49C 126.01,48.6237 128.343,47.7904 130.5,46.5C 133.796,42.3951 136.63,38.0618 139,33.5C 140.359,32.635 141.526,31.635 142.5,30.5 Z"/></g>
<g><path style="opacity:1" fill="#444446" d="M 88.5,-0.5 C 89.8333,-0.5 91.1667,-0.5 92.5,-0.5C 94.3736,0.285178 96.3736,0.951844 98.5,1.5C 98.415,3.92878 97.415,5.92878 95.5,7.5C 96.0253,8.19238 96.6919,8.69238 97.5,9C 95.5758,9.17919 93.9091,9.34586 92.5,9.5C 93.0253,10.1924 93.6919,10.6924 94.5,11C 93.6919,11.3076 93.0253,11.8076 92.5,12.5C 92.8457,13.6956 93.3457,13.6956 94,12.5C 94.6172,13.4491 94.4506,14.2825 93.5,15C 94.4158,15.2784 95.0825,15.7784 95.5,16.5C 94.5,16.5 93.5,16.5 92.5,16.5C 92.1832,20.7016 92.5166,24.7016 93.5,28.5C 93.6107,29.1174 93.944,29.6174 94.5,30C 92.4311,30.3242 92.0977,31.1575 93.5,32.5C 91.2623,34.2585 90.2623,36.5918 90.5,39.5C 81.6646,37.7846 72.6646,36.4513 63.5,35.5C 63.2907,34.914 62.9574,34.414 62.5,34C 64.0905,32.9542 65.5905,31.7875 67,30.5C 67.3333,30.8333 67.6667,31.1667 68,31.5C 68.4828,30.552 68.6495,29.552 68.5,28.5C 68.8333,28.5 69.1667,28.5 69.5,28.5C 70.5981,29.397 70.5981,30.2303 69.5,31C 70.0253,31.6924 70.6919,32.1924 71.5,32.5C 71.5293,31.1663 72.3627,29.8329 74,28.5C 74.69,29.7383 75.19,29.7383 75.5,28.5C 76.8333,28.5 78.1667,28.5 79.5,28.5C 81.4113,27.925 83.078,26.925 84.5,25.5C 85.6874,27.9754 87.6874,28.9754 90.5,28.5C 90.5,27.5 90.5,26.5 90.5,25.5C 88.0523,25.9153 86.7189,24.9153 86.5,22.5C 87.9425,20.153 89.2758,17.8197 90.5,15.5C 89.5,15.5 88.5,15.5 87.5,15.5C 84.9028,15.2792 84.9028,14.7792 87.5,14C 84.8333,13 82.1667,12 79.5,11C 81.5,10.3333 83.5,9.66667 85.5,9C 85.0426,8.58605 84.7093,8.08605 84.5,7.5C 86.3739,5.08546 87.7073,2.4188 88.5,-0.5 Z"/></g>
<g><path style="opacity:1" fill="#c6bf53" d="M 92.5,42.5 C 87.1457,41.5625 81.8124,41.5625 76.5,42.5C 76.7093,43.086 77.0426,43.586 77.5,44C 82.1929,44.9081 86.8596,45.9081 91.5,47C 92.056,47.3826 92.3893,47.8826 92.5,48.5C 91.8333,48.5 91.1667,48.5 90.5,48.5C 86.7968,46.945 82.7968,46.2783 78.5,46.5C 75.5,46.6667 72.5,46.8333 69.5,47C 68.5842,47.2784 67.9175,47.7784 67.5,48.5C 66.8333,48.8333 66.1667,49.1667 65.5,49.5C 64.8333,49.5 64.5,49.1667 64.5,48.5C 64.4208,47.0695 64.7542,45.7362 65.5,44.5C 68.5917,43.1455 71.5917,41.8122 74.5,40.5C 80.7071,38.9438 86.7071,39.6105 92.5,42.5 Z"/></g>
<g><path style="opacity:1" fill="#d2c82a" d="M 92.5,42.5 C 95.9468,43.6467 99.2801,44.98 102.5,46.5C 103.5,48.1667 104.833,49.5 106.5,50.5C 106.722,52.6075 107.722,54.2742 109.5,55.5C 107.955,56.4519 106.288,56.7852 104.5,56.5C 100.772,53.4411 96.772,50.7744 92.5,48.5C 92.3893,47.8826 92.056,47.3826 91.5,47C 86.8596,45.9081 82.1929,44.9081 77.5,44C 77.0426,43.586 76.7093,43.086 76.5,42.5C 81.8124,41.5625 87.1457,41.5625 92.5,42.5 Z"/></g>
<g><path style="opacity:1" fill="#c8c587" d="M 74.5,40.5 C 71.5917,41.8122 68.5917,43.1455 65.5,44.5C 64.7542,45.7362 64.4208,47.0695 64.5,48.5C 62.8333,47.5 61.5,46.1667 60.5,44.5C 64.7725,42.0399 69.4391,40.7066 74.5,40.5 Z"/></g>
<g><path style="opacity:1" fill="#423c14" d="M 90.5,48.5 C 84.1889,47.5731 77.8556,47.4065 71.5,48C 70.0267,48.7096 69.3601,49.8762 69.5,51.5C 68.0937,51.0269 67.427,50.0269 67.5,48.5C 67.9175,47.7784 68.5842,47.2784 69.5,47C 72.5,46.8333 75.5,46.6667 78.5,46.5C 82.7968,46.2783 86.7968,46.945 90.5,48.5 Z"/></g>
<g><path style="opacity:1" fill="#373836" d="M 90.5,48.5 C 91.4057,49.9649 92.739,50.9649 94.5,51.5C 95.2978,53.0777 95.7978,54.7444 96,56.5C 97.5883,54.0323 99.4216,53.8657 101.5,56C 103.141,57.129 104.141,58.629 104.5,60.5C 101.482,60.3354 98.4816,60.502 95.5,61C 94.944,61.3826 94.6107,61.8826 94.5,62.5C 93.6236,62.6309 92.9569,62.2975 92.5,61.5C 93.7665,59.0276 93.7665,56.6943 92.5,54.5C 89.3958,51.6118 86.7291,51.9451 84.5,55.5C 80.4862,55.6655 76.4862,55.4988 72.5,55C 71.2899,53.9609 70.2899,52.7942 69.5,51.5C 69.3601,49.8762 70.0267,48.7096 71.5,48C 77.8556,47.4065 84.1889,47.5731 90.5,48.5 Z"/></g>
<g><path style="opacity:0.926" fill="#d3d3d2" d="M 5.5,48.5 C 6.47784,48.811 7.14451,49.4777 7.5,50.5C 12.7921,51.4948 18.1254,51.8282 23.5,51.5C 25.8288,53.8413 27.8288,56.5079 29.5,59.5C 32.0865,60.48 34.7531,60.8134 37.5,60.5C 36.8902,61.391 36.5569,62.391 36.5,63.5C 33.8127,63.6641 31.146,63.4974 28.5,63C 26.8333,60.6667 25.1667,58.3333 23.5,56C 20.8333,55.8333 18.1667,55.6667 15.5,55.5C 12.4098,55.5217 9.74317,56.1883 7.5,57.5C 5.94678,59.385 3.94678,60.385 1.5,60.5C 2.23819,56.2854 3.57152,52.2854 5.5,48.5 Z"/></g>
<g><path style="opacity:1" fill="#a7a462" d="M 67.5,48.5 C 67.427,50.0269 68.0937,51.0269 69.5,51.5C 70.2899,52.7942 71.2899,53.9609 72.5,55C 76.4862,55.4988 80.4862,55.6655 84.5,55.5C 81.8333,56.1667 79.1667,56.8333 76.5,57.5C 71.7725,56.4594 68.1059,53.7927 65.5,49.5C 66.1667,49.1667 66.8333,48.8333 67.5,48.5 Z"/></g>
<g><path style="opacity:1" fill="#e5e5c6" d="M 153.5,47.5 C 155.567,52.7005 157.233,58.0339 158.5,63.5C 155.721,63.7214 153.054,63.388 150.5,62.5C 147.6,57.1304 142.933,55.1304 136.5,56.5C 137.609,55.71 138.942,55.21 140.5,55C 135.504,54.3893 130.504,53.8893 125.5,53.5C 132.655,52.6712 139.989,52.1712 147.5,52C 148.056,51.6174 148.389,51.1174 148.5,50.5C 149.922,49.075 151.589,48.075 153.5,47.5 Z"/></g>
<g><path style="opacity:1" fill="#47463d" d="M 60.5,44.5 C 61.5,46.1667 62.8333,47.5 64.5,48.5C 64.5,49.1667 64.8333,49.5 65.5,49.5C 68.1059,53.7927 71.7725,56.4594 76.5,57.5C 76.5,58.1667 76.5,58.8333 76.5,59.5C 71.8333,63.5 67.5,67.8333 63.5,72.5C 62.5,73.1667 61.5,73.8333 60.5,74.5C 60.7394,72.5328 60.4061,70.6995 59.5,69C 60.3247,67.3117 61.3247,67.1451 62.5,68.5C 63.7112,67.7261 63.7112,66.8928 62.5,66C 63.9506,66.2626 65.2839,66.0959 66.5,65.5C 66.1744,63.4898 65.8411,61.4898 65.5,59.5C 64.914,59.2907 64.414,58.9574 64,58.5C 63.2904,59.9733 62.1238,60.6399 60.5,60.5C 60.5,59.5 60.5,58.5 60.5,57.5C 55.2674,57.0986 52.6008,59.4319 52.5,64.5C 51.5,64.5 50.5,64.5 49.5,64.5C 50.1717,67.9419 49.1717,70.6086 46.5,72.5C 46.6178,69.3117 47.4511,66.3117 49,63.5C 52.6475,59.0181 56.4808,54.6848 60.5,50.5C 58.9553,46.3214 56.622,45.6547 53.5,48.5C 53.33,47.1779 53.6634,46.0113 54.5,45C 56.4727,44.5045 58.4727,44.3379 60.5,44.5 Z"/></g>
<g><path style="opacity:1" fill="#a9a655" d="M 106.5,50.5 C 108.861,52.1939 110.861,54.1939 112.5,56.5C 112.5,56.8333 112.5,57.1667 112.5,57.5C 109.615,57.8064 106.948,57.4731 104.5,56.5C 106.288,56.7852 107.955,56.4519 109.5,55.5C 107.722,54.2742 106.722,52.6075 106.5,50.5 Z"/></g>
<g><path style="opacity:1" fill="#c1bb2c" d="M 92.5,54.5 C 93.5,59.5 91.5,61.5 86.5,60.5C 83.8544,58.2202 80.8544,57.8868 77.5,59.5C 77.1667,59.5 76.8333,59.5 76.5,59.5C 76.5,58.8333 76.5,58.1667 76.5,57.5C 79.1667,56.8333 81.8333,56.1667 84.5,55.5C 86.7291,51.9451 89.3958,51.6118 92.5,54.5 Z"/></g>
<g><path style="opacity:1" fill="#302c17" d="M 90.5,48.5 C 91.1667,48.5 91.8333,48.5 92.5,48.5C 96.772,50.7744 100.772,53.4411 104.5,56.5C 106.948,57.4731 109.615,57.8064 112.5,57.5C 112.62,58.5862 113.287,59.2528 114.5,59.5C 116.453,58.8444 118.453,58.5111 120.5,58.5C 120.167,59.5 119.5,60.1667 118.5,60.5C 113.833,60.5 109.167,60.5 104.5,60.5C 104.141,58.629 103.141,57.129 101.5,56C 99.4216,53.8657 97.5883,54.0323 96,56.5C 95.7978,54.7444 95.2978,53.0777 94.5,51.5C 92.739,50.9649 91.4057,49.9649 90.5,48.5 Z"/></g>
<g><path style="opacity:1" fill="#e6e597" d="M 125.5,53.5 C 130.504,53.8893 135.504,54.3893 140.5,55C 138.942,55.21 137.609,55.71 136.5,56.5C 133.482,56.3354 130.482,56.502 127.5,57C 125.297,59.3722 122.963,61.5389 120.5,63.5C 119.833,62.8333 119.167,62.1667 118.5,61.5C 118.5,61.1667 118.5,60.8333 118.5,60.5C 119.5,60.1667 120.167,59.5 120.5,58.5C 122.5,57.1667 124.167,55.5 125.5,53.5 Z"/></g>
<g><path style="opacity:1" fill="#87834b" d="M 104.5,60.5 C 109.167,60.5 113.833,60.5 118.5,60.5C 118.5,60.8333 118.5,61.1667 118.5,61.5C 110.981,61.175 103.648,61.5084 96.5,62.5C 95.8333,62.5 95.1667,62.5 94.5,62.5C 94.6107,61.8826 94.944,61.3826 95.5,61C 98.4816,60.502 101.482,60.3354 104.5,60.5 Z"/></g>
<g><path style="opacity:1" fill="#535352" d="M 36.5,63.5 C 38.1667,63.5 39.8333,63.5 41.5,63.5C 40.2455,68.1056 39.2455,72.7723 38.5,77.5C 36.5,77.5 34.5,77.5 32.5,77.5C 28.4862,77.6655 24.4862,77.4988 20.5,77C 17.2634,73.0151 13.5967,72.5151 9.5,75.5C 8.62356,75.6309 7.95689,75.2975 7.5,74.5C 7.84569,73.3044 8.34569,73.3044 9,74.5C 10.9583,70.7088 13.125,67.0421 15.5,63.5C 16.6507,62.269 17.8173,62.269 19,63.5C 18.3829,61.9052 18.7163,60.5719 20,59.5C 20.5556,61.5951 21.0556,61.7618 21.5,60C 21.3699,58.9412 20.8699,58.1079 20,57.5C 15.8344,57.5368 11.6677,57.5368 7.5,57.5C 9.74317,56.1883 12.4098,55.5217 15.5,55.5C 18.1667,55.6667 20.8333,55.8333 23.5,56C 25.1667,58.3333 26.8333,60.6667 28.5,63C 31.146,63.4974 33.8127,63.6641 36.5,63.5 Z"/></g>
<g><path style="opacity:1" fill="#3b391f" d="M 92.5,54.5 C 93.7665,56.6943 93.7665,59.0276 92.5,61.5C 92.9569,62.2975 93.6236,62.6309 94.5,62.5C 93.8333,63.8333 92.8333,64.8333 91.5,65.5C 91.631,64.7611 91.4643,64.0944 91,63.5C 88.9737,63.0853 87.4737,62.0853 86.5,60.5C 91.5,61.5 93.5,59.5 92.5,54.5 Z"/></g>
<g><path style="opacity:1" fill="#dcd674" d="M 96.5,62.5 C 103.648,61.5084 110.981,61.175 118.5,61.5C 119.167,62.1667 119.833,62.8333 120.5,63.5C 120.5,64.1667 120.167,64.5 119.5,64.5C 114.5,64.5 109.5,64.5 104.5,64.5C 102.365,62.631 99.6981,61.9644 96.5,62.5 Z"/></g>
<g><path style="opacity:1" fill="#15161d" d="M 147.5,62.5 C 147.842,63.3382 148.508,63.6716 149.5,63.5C 145.424,67.0896 142.257,71.4229 140,76.5C 139.29,75.0267 138.124,74.3601 136.5,74.5C 136.666,78.8461 136.499,83.1794 136,87.5C 134.512,85.1798 132.679,85.0131 130.5,87C 132.421,90.0184 132.754,93.1851 131.5,96.5C 130.575,97.6405 129.741,97.6405 129,96.5C 128.544,97.7441 129.044,98.5774 130.5,99C 129.584,99.2784 128.918,99.7784 128.5,100.5C 127.761,100.369 127.094,100.536 126.5,101C 127.5,102 128.5,103 129.5,104C 134.489,104.499 139.489,104.666 144.5,104.5C 138.654,105.817 132.654,105.817 126.5,104.5C 124.411,101.405 121.744,99.0713 118.5,97.5C 112.681,96.6724 106.681,96.1724 100.5,96C 102.167,95.6667 103.833,95.3333 105.5,95C 104.833,94.6667 104.167,94.3333 103.5,94C 104.973,93.2904 105.64,92.1238 105.5,90.5C 98.7006,88.254 99.0339,86.9207 106.5,86.5C 106.281,87.675 106.614,88.675 107.5,89.5C 112.096,89.2784 116.763,89.1117 121.5,89C 123.552,88.0701 125.052,86.5701 126,84.5C 126.789,80.9085 126.622,77.4085 125.5,74C 126.996,73.4926 128.163,73.9926 129,75.5C 129.667,73.5 129.667,71.5 129,69.5C 128.667,70.1667 128.333,70.8333 128,71.5C 125.591,69.6913 124.591,67.3579 125,64.5C 128.535,68.4929 129.368,67.8262 127.5,62.5C 128.552,62.6495 129.552,62.4828 130.5,62C 130.833,61 131.167,60 131.5,59C 133.134,58.5065 134.801,58.3398 136.5,58.5C 136.5,59.8333 136.5,61.1667 136.5,62.5C 140.81,64.2243 141.476,63.2243 138.5,59.5C 140.421,58.359 142.421,58.1923 144.5,59C 145.163,60.5185 146.163,61.6851 147.5,62.5 Z"/></g>
<g><path style="opacity:1" fill="#d0ce9e" d="M 46.5,72.5 C 46.5,72.8333 46.5,73.1667 46.5,73.5C 43.4138,75.0956 42.7471,77.4289 44.5,80.5C 42.9891,79.4975 41.3224,78.8308 39.5,78.5C 39.7373,79.791 39.404,80.791 38.5,81.5C 34.7016,80.5166 30.7016,80.1832 26.5,80.5C 28.1561,78.9397 30.1561,77.9397 32.5,77.5C 34.5,77.5 36.5,77.5 38.5,77.5C 39.2455,72.7723 40.2455,68.1056 41.5,63.5C 39.8333,63.5 38.1667,63.5 36.5,63.5C 36.5569,62.391 36.8902,61.391 37.5,60.5C 40.0593,60.8016 42.3926,60.4682 44.5,59.5C 46.8039,55.2026 49.8039,51.5359 53.5,48.5C 56.622,45.6547 58.9553,46.3214 60.5,50.5C 56.4808,54.6848 52.6475,59.0181 49,63.5C 47.4511,66.3117 46.6178,69.3117 46.5,72.5 Z"/></g>
<g><path style="opacity:1" fill="#363636" d="M 86.5,60.5 C 87.4737,62.0853 88.9737,63.0853 91,63.5C 91.4643,64.0944 91.631,64.7611 91.5,65.5C 90.8333,66.8333 89.8333,67.8333 88.5,68.5C 83.5,68.5 78.5,68.5 73.5,68.5C 75.3753,61.5957 79.7086,58.929 86.5,60.5 Z"/></g>
<g><path style="opacity:1" fill="#424244" d="M 60.5,74.5 C 58.9772,78.6121 59.3105,82.6121 61.5,86.5C 61.4387,89.6294 60.1054,91.9627 57.5,93.5C 56.7189,92.2713 56.2189,90.938 56,89.5C 55.6667,91.1667 55.3333,92.8333 55,94.5C 54.6667,94.1667 54.3333,93.8333 54,93.5C 52.561,95.0139 51.061,95.3473 49.5,94.5C 51.1667,91.8333 52.8333,89.1667 54.5,86.5C 53.4227,84.0877 52.256,81.7543 51,79.5C 50.2023,82.8931 49.2023,86.2265 48,89.5C 47.4572,86.1322 47.6239,82.7989 48.5,79.5C 47.5,79.5 46.5,79.5 45.5,79.5C 45.5172,77.4352 45.8505,75.4352 46.5,73.5C 46.5,73.1667 46.5,72.8333 46.5,72.5C 49.1717,70.6086 50.1717,67.9419 49.5,64.5C 50.5,64.5 51.5,64.5 52.5,64.5C 52.6008,59.4319 55.2674,57.0986 60.5,57.5C 60.5,58.5 60.5,59.5 60.5,60.5C 62.1238,60.6399 63.2904,59.9733 64,58.5C 64.414,58.9574 64.914,59.2907 65.5,59.5C 65.8411,61.4898 66.1744,63.4898 66.5,65.5C 65.2839,66.0959 63.9506,66.2626 62.5,66C 63.7112,66.8928 63.7112,67.7261 62.5,68.5C 61.3247,67.1451 60.3247,67.3117 59.5,69C 60.4061,70.6995 60.7394,72.5328 60.5,74.5 Z"/></g>
<g><path style="opacity:1" fill="#aca955" d="M 76.5,59.5 C 76.8333,59.5 77.1667,59.5 77.5,59.5C 74.2039,63.2976 70.7039,66.9643 67,70.5C 66.5045,72.4727 66.3379,74.4727 66.5,76.5C 65.9779,74.7809 64.9779,73.4475 63.5,72.5C 67.5,67.8333 71.8333,63.5 76.5,59.5 Z"/></g>
<g><path style="opacity:1" fill="#202020" d="M 136.5,56.5 C 142.933,55.1304 147.6,57.1304 150.5,62.5C 149.5,62.5 148.5,62.5 147.5,62.5C 146.163,61.6851 145.163,60.5185 144.5,59C 142.421,58.1923 140.421,58.359 138.5,59.5C 141.476,63.2243 140.81,64.2243 136.5,62.5C 136.5,61.1667 136.5,59.8333 136.5,58.5C 134.801,58.3398 133.134,58.5065 131.5,59C 131.167,60 130.833,61 130.5,62C 129.552,62.4828 128.552,62.6495 127.5,62.5C 129.368,67.8262 128.535,68.4929 125,64.5C 124.591,67.3579 125.591,69.6913 128,71.5C 128.333,70.8333 128.667,70.1667 129,69.5C 129.667,71.5 129.667,73.5 129,75.5C 128.163,73.9926 126.996,73.4926 125.5,74C 126.622,77.4085 126.789,80.9085 126,84.5C 125.052,86.5701 123.552,88.0701 121.5,89C 116.763,89.1117 112.096,89.2784 107.5,89.5C 106.614,88.675 106.281,87.675 106.5,86.5C 107.833,86.5 108.5,85.8333 108.5,84.5C 108.833,84.5 109.167,84.5 109.5,84.5C 110.5,84.8333 111.167,85.5 111.5,86.5C 120.943,90.2453 125.11,86.912 124,76.5C 120.268,72.1823 116.102,71.5156 111.5,74.5C 110.272,75.3065 109.272,76.3065 108.5,77.5C 106.833,77.5 105.167,77.5 103.5,77.5C 103.47,76.5028 103.97,75.8361 105,75.5C 106.3,76.452 107.467,76.452 108.5,75.5C 107.147,74.4763 106.48,73.143 106.5,71.5C 105.5,71.5 104.5,71.5 103.5,71.5C 103.5,70.5 103.5,69.5 103.5,68.5C 106.361,68.3416 109.028,69.0083 111.5,70.5C 112.91,70.1322 113.91,69.2989 114.5,68C 110.56,66.9847 106.56,66.4847 102.5,66.5C 108.167,65.8333 113.833,65.1667 119.5,64.5C 120.167,64.5 120.5,64.1667 120.5,63.5C 122.963,61.5389 125.297,59.3722 127.5,57C 130.482,56.502 133.482,56.3354 136.5,56.5 Z"/></g>
<g><path style="opacity:1" fill="#0d0e15" d="M 149.5,63.5 C 151.805,63.8628 153.472,65.0294 154.5,67C 148.421,75.6235 142.754,84.6235 137.5,94C 138.668,95.4056 138.335,96.5723 136.5,97.5C 137.934,98.2298 139.1,99.2298 140,100.5C 140.419,99.3279 141.085,98.3279 142,97.5C 141.333,99.1667 141.333,100.833 142,102.5C 139.262,102.679 136.095,103.013 132.5,103.5C 130.583,103.246 129.249,102.246 128.5,100.5C 128.918,99.7784 129.584,99.2784 130.5,99C 129.044,98.5774 128.544,97.7441 129,96.5C 129.741,97.6405 130.575,97.6405 131.5,96.5C 132.754,93.1851 132.421,90.0184 130.5,87C 132.679,85.0131 134.512,85.1798 136,87.5C 136.499,83.1794 136.666,78.8461 136.5,74.5C 138.124,74.3601 139.29,75.0267 140,76.5C 142.257,71.4229 145.424,67.0896 149.5,63.5 Z"/></g>
<g><path style="opacity:1" fill="#282630" d="M 102.5,66.5 C 106.56,66.4847 110.56,66.9847 114.5,68C 113.91,69.2989 112.91,70.1322 111.5,70.5C 109.028,69.0083 106.361,68.3416 103.5,68.5C 103.5,69.5 103.5,70.5 103.5,71.5C 104.5,71.5 105.5,71.5 106.5,71.5C 106.48,73.143 107.147,74.4763 108.5,75.5C 107.467,76.452 106.3,76.452 105,75.5C 103.97,75.8361 103.47,76.5028 103.5,77.5C 102.167,77.5 100.833,77.5 99.5,77.5C 98.4537,75.2151 98.4537,72.8817 99.5,70.5C 98.5,70.5 97.5,70.5 96.5,70.5C 96.5,71.8333 96.5,73.1667 96.5,74.5C 94.5853,74.7845 92.9187,74.4511 91.5,73.5C 93.9198,69.0588 97.5865,66.7255 102.5,66.5 Z"/></g>
<g><path style="opacity:0.988" fill="#090910" d="M 147.5,62.5 C 148.5,62.5 149.5,62.5 150.5,62.5C 153.054,63.388 155.721,63.7214 158.5,63.5C 158.263,64.791 158.596,65.791 159.5,66.5C 159.5,75.1667 159.5,83.8333 159.5,92.5C 158.593,94.6568 157.927,96.9902 157.5,99.5C 151.494,97.0977 147.161,98.7644 144.5,104.5C 139.489,104.666 134.489,104.499 129.5,104C 128.5,103 127.5,102 126.5,101C 127.094,100.536 127.761,100.369 128.5,100.5C 129.249,102.246 130.583,103.246 132.5,103.5C 136.095,103.013 139.262,102.679 142,102.5C 141.333,100.833 141.333,99.1667 142,97.5C 141.085,98.3279 140.419,99.3279 140,100.5C 139.1,99.2298 137.934,98.2298 136.5,97.5C 138.335,96.5723 138.668,95.4056 137.5,94C 142.754,84.6235 148.421,75.6235 154.5,67C 153.472,65.0294 151.805,63.8628 149.5,63.5C 148.508,63.6716 147.842,63.3382 147.5,62.5 Z"/></g>
<g><path style="opacity:1" fill="#454328" d="M 86.5,60.5 C 79.7086,58.929 75.3753,61.5957 73.5,68.5C 78.5,68.5 83.5,68.5 88.5,68.5C 80.2301,67.4899 73.5635,70.3233 68.5,77C 67.5632,77.6917 66.8966,77.525 66.5,76.5C 66.3379,74.4727 66.5045,72.4727 67,70.5C 70.7039,66.9643 74.2039,63.2976 77.5,59.5C 80.8544,57.8868 83.8544,58.2202 86.5,60.5 Z"/></g>
<g><path style="opacity:1" fill="#d6d6d5" d="M 32.5,77.5 C 30.1561,77.9397 28.1561,78.9397 26.5,80.5C 24.4727,80.3379 22.4727,80.5045 20.5,81C 19.2949,82.3756 17.9616,83.5423 16.5,84.5C 10.0742,84.6409 7.7409,81.6409 9.5,75.5C 13.5967,72.5151 17.2634,73.0151 20.5,77C 24.4862,77.4988 28.4862,77.6655 32.5,77.5 Z"/></g>
<g><path style="opacity:1" fill="#373310" d="M 104.5,64.5 C 109.5,64.5 114.5,64.5 119.5,64.5C 113.833,65.1667 108.167,65.8333 102.5,66.5C 97.5865,66.7255 93.9198,69.0588 91.5,73.5C 87.1539,73.3343 82.8206,73.501 78.5,74C 75.8991,77.1117 72.8991,79.6117 69.5,81.5C 71.9619,78.5361 74.6286,75.7028 77.5,73C 85.9827,74.5331 92.6494,71.8664 97.5,65C 99.8098,64.5034 102.143,64.3367 104.5,64.5 Z"/></g>
<g><path style="opacity:1" fill="#454323" d="M 99.5,77.5 C 100.833,77.5 102.167,77.5 103.5,77.5C 105.167,77.5 106.833,77.5 108.5,77.5C 98.5,78.1667 88.5,78.8333 78.5,79.5C 78.1667,79.5 77.8333,79.5 77.5,79.5C 84.4238,77.5367 91.7572,76.8701 99.5,77.5 Z"/></g>
<g><path style="opacity:1" fill="#c2bb32" d="M 94.5,62.5 C 95.1667,62.5 95.8333,62.5 96.5,62.5C 99.6981,61.9644 102.365,62.631 104.5,64.5C 102.143,64.3367 99.8098,64.5034 97.5,65C 92.6494,71.8664 85.9827,74.5331 77.5,73C 74.6286,75.7028 71.9619,78.5361 69.5,81.5C 67.4268,83.5798 65.0934,85.2464 62.5,86.5C 60.7476,82.7727 60.081,78.7727 60.5,74.5C 61.5,73.8333 62.5,73.1667 63.5,72.5C 64.9779,73.4475 65.9779,74.7809 66.5,76.5C 66.8966,77.525 67.5632,77.6917 68.5,77C 73.5635,70.3233 80.2301,67.4899 88.5,68.5C 89.8333,67.8333 90.8333,66.8333 91.5,65.5C 92.8333,64.8333 93.8333,63.8333 94.5,62.5 Z"/></g>
<g><path style="opacity:1" fill="#cdc772" d="M 44.5,80.5 C 45.4731,82.9479 45.8064,85.6146 45.5,88.5C 44.8186,86.8415 43.9853,85.1749 43,83.5C 41.3374,87.7392 41.1708,92.0726 42.5,96.5C 40.098,91.8994 38.7647,86.8994 38.5,81.5C 39.404,80.791 39.7373,79.791 39.5,78.5C 41.3224,78.8308 42.9891,79.4975 44.5,80.5 Z"/></g>
<g><path style="opacity:1" fill="#f2ed8e" d="M 111.5,86.5 C 111.167,85.5 110.5,84.8333 109.5,84.5C 109.672,83.5084 109.338,82.8417 108.5,82.5C 98.5338,81.5011 88.5338,80.5011 78.5,79.5C 88.5,78.8333 98.5,78.1667 108.5,77.5C 109.272,76.3065 110.272,75.3065 111.5,74.5C 119.784,72.5005 123.451,75.8338 122.5,84.5C 118.879,85.3725 115.212,86.0392 111.5,86.5 Z"/></g>
<g><path style="opacity:1" fill="#4d4c4b" d="M 26.5,80.5 C 30.7016,80.1832 34.7016,80.5166 38.5,81.5C 38.7647,86.8994 40.098,91.8994 42.5,96.5C 42.5,97.8333 42.5,99.1667 42.5,100.5C 37.456,100.173 32.456,100.506 27.5,101.5C 25.8122,103.854 23.8122,105.854 21.5,107.5C 17.1667,107.5 12.8333,107.5 8.5,107.5C 8.05575,105.887 7.05575,104.72 5.5,104C 8.84722,99.6192 12.0139,95.1192 15,90.5C 15.7112,88.6332 15.2112,87.1332 13.5,86C 14.7375,85.7679 15.7375,85.2679 16.5,84.5C 17.9616,83.5423 19.2949,82.3756 20.5,81C 22.4727,80.5045 24.4727,80.3379 26.5,80.5 Z"/></g>
<g><path style="opacity:0.958" fill="#555555" d="M 7.5,57.5 C 11.6677,57.5368 15.8344,57.5368 20,57.5C 20.8699,58.1079 21.3699,58.9412 21.5,60C 21.0556,61.7618 20.5556,61.5951 20,59.5C 18.7163,60.5719 18.3829,61.9052 19,63.5C 17.8173,62.269 16.6507,62.269 15.5,63.5C 13.125,67.0421 10.9583,70.7088 9,74.5C 8.34569,73.3044 7.84569,73.3044 7.5,74.5C 7.95689,75.2975 8.62356,75.6309 9.5,75.5C 7.7409,81.6409 10.0742,84.6409 16.5,84.5C 15.7375,85.2679 14.7375,85.7679 13.5,86C 15.2112,87.1332 15.7112,88.6332 15,90.5C 12.0139,95.1192 8.84722,99.6192 5.5,104C 7.05575,104.72 8.05575,105.887 8.5,107.5C 7.16667,107.5 5.83333,107.5 4.5,107.5C 2.36934,102.64 0.702678,97.6395 -0.5,92.5C -0.5,83.8333 -0.5,75.1667 -0.5,66.5C 0.285178,64.6264 0.951844,62.6264 1.5,60.5C 3.94678,60.385 5.94678,59.385 7.5,57.5 Z"/></g>
<g><path style="opacity:1" fill="#36310d" d="M 108.5,82.5 C 109.338,82.8417 109.672,83.5084 109.5,84.5C 109.167,84.5 108.833,84.5 108.5,84.5C 99.3425,83.3424 90.0092,83.1757 80.5,84C 79.8971,86.0714 78.5638,87.2381 76.5,87.5C 74.4268,89.5798 72.0934,91.2464 69.5,92.5C 72.1456,89.1877 75.1456,86.1877 78.5,83.5C 88.4778,82.5015 98.4778,82.1681 108.5,82.5 Z"/></g>
<g><path style="opacity:1" fill="#27272c" d="M 108.5,84.5 C 108.5,85.8333 107.833,86.5 106.5,86.5C 99.0339,86.9207 98.7006,88.254 105.5,90.5C 105.64,92.1238 104.973,93.2904 103.5,94C 104.167,94.3333 104.833,94.6667 105.5,95C 103.833,95.3333 102.167,95.6667 100.5,96C 106.681,96.1724 112.681,96.6724 118.5,97.5C 111.978,97.1765 105.645,97.5098 99.5,98.5C 99.1667,98.5 98.8333,98.5 98.5,98.5C 97.5,98.5 96.5,98.5 95.5,98.5C 95.7733,96.549 95.1066,95.049 93.5,94C 90.9615,93.2042 88.6282,93.3709 86.5,94.5C 85.8333,94.8333 85.1667,95.1667 84.5,95.5C 80.4454,95.8242 76.4454,95.4909 72.5,94.5C 74.2889,92.3896 75.6223,90.0563 76.5,87.5C 78.5638,87.2381 79.8971,86.0714 80.5,84C 90.0092,83.1757 99.3425,83.3424 108.5,84.5 Z"/></g>
<g><path style="opacity:1" fill="#bfb837" d="M 77.5,79.5 C 77.8333,79.5 78.1667,79.5 78.5,79.5C 88.5338,80.5011 98.5338,81.5011 108.5,82.5C 98.4778,82.1681 88.4778,82.5015 78.5,83.5C 75.1456,86.1877 72.1456,89.1877 69.5,92.5C 64.3465,96.3095 60.3465,100.976 57.5,106.5C 56.596,105.791 56.2627,104.791 56.5,103.5C 55.1779,103.33 54.0113,103.663 53,104.5C 52.5357,103.906 52.369,103.239 52.5,102.5C 61.1133,95.2235 69.4466,87.5568 77.5,79.5 Z"/></g>
<g><path style="opacity:1" fill="#e2e2a8" d="M 111.5,86.5 C 115.212,86.0392 118.879,85.3725 122.5,84.5C 123.451,75.8338 119.784,72.5005 111.5,74.5C 116.102,71.5156 120.268,72.1823 124,76.5C 125.11,86.912 120.943,90.2453 111.5,86.5 Z"/></g>
<g><path style="opacity:1" fill="#383831" d="M 99.5,77.5 C 91.7572,76.8701 84.4238,77.5367 77.5,79.5C 69.4466,87.5568 61.1133,95.2235 52.5,102.5C 52.573,100.973 51.9063,99.9731 50.5,99.5C 48.63,95.8745 46.9633,92.2078 45.5,88.5C 45.8064,85.6146 45.4731,82.9479 44.5,80.5C 42.7471,77.4289 43.4138,75.0956 46.5,73.5C 45.8505,75.4352 45.5172,77.4352 45.5,79.5C 46.5,79.5 47.5,79.5 48.5,79.5C 47.6239,82.7989 47.4572,86.1322 48,89.5C 49.2023,86.2265 50.2023,82.8931 51,79.5C 52.256,81.7543 53.4227,84.0877 54.5,86.5C 52.8333,89.1667 51.1667,91.8333 49.5,94.5C 51.061,95.3473 52.561,95.0139 54,93.5C 54.3333,93.8333 54.6667,94.1667 55,94.5C 55.3333,92.8333 55.6667,91.1667 56,89.5C 56.2189,90.938 56.7189,92.2713 57.5,93.5C 60.1054,91.9627 61.4387,89.6294 61.5,86.5C 61.8333,86.5 62.1667,86.5 62.5,86.5C 65.0934,85.2464 67.4268,83.5798 69.5,81.5C 72.8991,79.6117 75.8991,77.1117 78.5,74C 82.8206,73.501 87.1539,73.3343 91.5,73.5C 92.9187,74.4511 94.5853,74.7845 96.5,74.5C 96.5,73.1667 96.5,71.8333 96.5,70.5C 97.5,70.5 98.5,70.5 99.5,70.5C 98.4537,72.8817 98.4537,75.2151 99.5,77.5 Z"/></g>
<g><path style="opacity:1" fill="#4d4c1b" d="M 60.5,74.5 C 60.081,78.7727 60.7476,82.7727 62.5,86.5C 62.1667,86.5 61.8333,86.5 61.5,86.5C 59.3105,82.6121 58.9772,78.6121 60.5,74.5 Z"/></g>
<g><path style="opacity:1" fill="#cec645" d="M 45.5,88.5 C 46.9633,92.2078 48.63,95.8745 50.5,99.5C 49.2794,98.9717 48.1127,98.305 47,97.5C 46.0922,99.4386 44.5922,100.439 42.5,100.5C 42.5,99.1667 42.5,97.8333 42.5,96.5C 41.1708,92.0726 41.3374,87.7392 43,83.5C 43.9853,85.1749 44.8186,86.8415 45.5,88.5 Z"/></g>
<g><path style="opacity:1" fill="#34332a" d="M 76.5,87.5 C 75.6223,90.0563 74.2889,92.3896 72.5,94.5C 76.4454,95.4909 80.4454,95.8242 84.5,95.5C 80.6877,96.3238 76.6877,96.8238 72.5,97C 68.8333,100.667 65.1667,104.333 61.5,108C 60.0024,108.585 59.0024,108.085 58.5,106.5C 62.1667,101.833 65.8333,97.1667 69.5,92.5C 72.0934,91.2464 74.4268,89.5798 76.5,87.5 Z"/></g>
<g><path style="opacity:1" fill="#413e05" d="M 69.5,92.5 C 65.8333,97.1667 62.1667,101.833 58.5,106.5C 58.1667,106.5 57.8333,106.5 57.5,106.5C 60.3465,100.976 64.3465,96.3095 69.5,92.5 Z"/></g>
<g><path style="opacity:1" fill="#e3dd6d" d="M 91.5,100.5 C 90.9032,101.139 90.0698,101.472 89,101.5C 87.3009,101.613 86.1342,100.947 85.5,99.5C 85.4836,95.7261 87.1503,94.7261 90.5,96.5C 91.4287,97.6888 91.762,99.0222 91.5,100.5 Z"/></g>
<g><path style="opacity:1" fill="#e2e5a3" d="M 98.5,98.5 C 98.8333,98.5 99.1667,98.5 99.5,98.5C 105.176,98.3339 110.843,98.5006 116.5,99C 114.942,99.21 113.609,99.71 112.5,100.5C 107.5,100.5 102.5,100.5 97.5,100.5C 97.8333,99.8333 98.1667,99.1667 98.5,98.5 Z"/></g>
<g><path style="opacity:0.955" fill="#f2f2ed" d="M 99.5,98.5 C 105.645,97.5098 111.978,97.1765 118.5,97.5C 121.744,99.0713 124.411,101.405 126.5,104.5C 132.654,105.817 138.654,105.817 144.5,104.5C 147.161,98.7644 151.494,97.0977 157.5,99.5C 156.262,104.895 154.262,109.895 151.5,114.5C 148.3,113.956 145.967,112.29 144.5,109.5C 138.347,108.672 132.013,108.172 125.5,108C 124.295,106.624 122.962,105.458 121.5,104.5C 119.575,100.992 116.575,99.659 112.5,100.5C 113.609,99.71 114.942,99.21 116.5,99C 110.843,98.5006 105.176,98.3339 99.5,98.5 Z"/></g>
<g><path style="opacity:1" fill="#b1ae5c" d="M 86.5,94.5 C 92.0233,93.6728 93.6899,95.6728 91.5,100.5C 91.762,99.0222 91.4287,97.6888 90.5,96.5C 87.1503,94.7261 85.4836,95.7261 85.5,99.5C 77.5777,96.9696 71.2444,98.9696 66.5,105.5C 66.5,105.833 66.5,106.167 66.5,106.5C 64.2459,107.415 62.2459,108.748 60.5,110.5C 58.7706,109.764 57.7706,108.43 57.5,106.5C 57.8333,106.5 58.1667,106.5 58.5,106.5C 59.0024,108.085 60.0024,108.585 61.5,108C 65.1667,104.333 68.8333,100.667 72.5,97C 76.6877,96.8238 80.6877,96.3238 84.5,95.5C 85.1667,95.1667 85.8333,94.8333 86.5,94.5 Z"/></g>
<g><path style="opacity:1" fill="#908b42" d="M 30.5,103.5 C 34.2984,102.517 38.2984,102.183 42.5,102.5C 44.4832,102.157 45.8166,102.824 46.5,104.5C 41.2599,103.551 35.9265,103.218 30.5,103.5 Z"/></g>
<g><path style="opacity:1" fill="#2d2c1c" d="M 86.5,94.5 C 88.6282,93.3709 90.9615,93.2042 93.5,94C 95.1066,95.049 95.7733,96.549 95.5,98.5C 96.5,98.5 97.5,98.5 98.5,98.5C 98.1667,99.1667 97.8333,99.8333 97.5,100.5C 96.5041,100.586 95.6708,100.252 95,99.5C 92.1456,102.28 88.9789,104.614 85.5,106.5C 85.6124,101.611 83.2791,99.6109 78.5,100.5C 76.8333,100.667 75.1667,100.833 73.5,101C 71.2657,102.75 68.9324,104.25 66.5,105.5C 71.2444,98.9696 77.5777,96.9696 85.5,99.5C 86.1342,100.947 87.3009,101.613 89,101.5C 90.0698,101.472 90.9032,101.139 91.5,100.5C 93.6899,95.6728 92.0233,93.6728 86.5,94.5 Z"/></g>
<g><path style="opacity:1" fill="#d0c61e" d="M 50.5,99.5 C 51.9063,99.9731 52.573,100.973 52.5,102.5C 52.369,103.239 52.5357,103.906 53,104.5C 54.0113,103.663 55.1779,103.33 56.5,103.5C 56.2627,104.791 56.596,105.791 57.5,106.5C 57.7706,108.43 58.7706,109.764 60.5,110.5C 58.3636,114.151 55.6969,114.484 52.5,111.5C 50.4707,109.142 48.4707,106.808 46.5,104.5C 45.8166,102.824 44.4832,102.157 42.5,102.5C 42.5,101.833 42.5,101.167 42.5,100.5C 44.5922,100.439 46.0922,99.4386 47,97.5C 48.1127,98.305 49.2794,98.9717 50.5,99.5 Z"/></g>
<g><path style="opacity:1" fill="#262627" d="M 97.5,100.5 C 102.5,100.5 107.5,100.5 112.5,100.5C 116.575,99.659 119.575,100.992 121.5,104.5C 119.095,104.134 116.762,103.467 114.5,102.5C 113.261,102.942 112.261,103.609 111.5,104.5C 109.034,103.366 106.367,103.199 103.5,104C 97.9626,109.099 91.6292,112.599 84.5,114.5C 79.0305,114.754 73.6972,114.087 68.5,112.5C 67.5084,112.672 66.8417,112.338 66.5,111.5C 65.438,109.766 65.438,108.099 66.5,106.5C 66.5,106.167 66.5,105.833 66.5,105.5C 68.9324,104.25 71.2657,102.75 73.5,101C 75.1667,100.833 76.8333,100.667 78.5,100.5C 83.2791,99.6109 85.6124,101.611 85.5,106.5C 88.9789,104.614 92.1456,102.28 95,99.5C 95.6708,100.252 96.5041,100.586 97.5,100.5 Z"/></g>
<g><path style="opacity:1" fill="#cac988" d="M 42.5,100.5 C 42.5,101.167 42.5,101.833 42.5,102.5C 38.2984,102.183 34.2984,102.517 30.5,103.5C 29.1667,104.167 28.1667,105.167 27.5,106.5C 24.3671,110.078 20.3671,111.411 15.5,110.5C 17.2488,109.015 19.2488,108.015 21.5,107.5C 23.8122,105.854 25.8122,103.854 27.5,101.5C 32.456,100.506 37.456,100.173 42.5,100.5 Z"/></g>
<g><path style="opacity:1" fill="#cac9ba" d="M 4.5,107.5 C 5.83333,107.5 7.16667,107.5 8.5,107.5C 12.8333,107.5 17.1667,107.5 21.5,107.5C 19.2488,108.015 17.2488,109.015 15.5,110.5C 12.1667,110.5 8.83333,110.5 5.5,110.5C 4.89022,109.609 4.55688,108.609 4.5,107.5 Z"/></g>
<g><path style="opacity:1" fill="#59583e" d="M 27.5,106.5 C 27.1412,108.371 26.1412,109.871 24.5,111C 18.1754,111.5 11.8421,111.666 5.5,111.5C 5.5,111.167 5.5,110.833 5.5,110.5C 8.83333,110.5 12.1667,110.5 15.5,110.5C 20.3671,111.411 24.3671,110.078 27.5,106.5 Z"/></g>
<g><path style="opacity:0.979" fill="#424243" d="M 30.5,103.5 C 35.9265,103.218 41.2599,103.551 46.5,104.5C 48.4707,106.808 50.4707,109.142 52.5,111.5C 51.5,111.5 50.5,111.5 49.5,111.5C 48.6981,112.952 48.1981,114.618 48,116.5C 47.3333,115.833 46.6667,115.167 46,114.5C 45.9489,111.723 45.7822,109.057 45.5,106.5C 42.9492,111.58 39.2826,112.913 34.5,110.5C 33.8333,110.833 33.1667,111.167 32.5,111.5C 33.376,112.251 34.376,112.751 35.5,113C 31.9818,115.186 30.1485,118.353 30,122.5C 29.028,124.305 27.8613,125.972 26.5,127.5C 26.7093,128.086 27.0426,128.586 27.5,129C 24.5066,130.159 22.8399,132.325 22.5,135.5C 15.3116,128.634 9.64496,120.634 5.5,111.5C 11.8421,111.666 18.1754,111.5 24.5,111C 26.1412,109.871 27.1412,108.371 27.5,106.5C 28.1667,105.167 29.1667,104.167 30.5,103.5 Z"/></g>
<g><path style="opacity:1" fill="#111117" d="M 124.5,110.5 C 125.913,111.766 127.246,112.432 128.5,112.5C 125.981,117.552 122.981,122.219 119.5,126.5C 122.076,127.883 121.742,128.717 118.5,129C 121.288,131.374 120.954,132.707 117.5,133C 118.416,133.278 119.082,133.778 119.5,134.5C 117.744,135.552 117.077,137.219 117.5,139.5C 116.833,139.5 116.167,139.5 115.5,139.5C 116.301,137.958 116.634,136.292 116.5,134.5C 115.167,134.5 113.833,134.5 112.5,134.5C 112.5,137.5 112.5,140.5 112.5,143.5C 112.167,143.5 111.833,143.5 111.5,143.5C 110.791,142.596 109.791,142.263 108.5,142.5C 108.48,140.857 109.147,139.524 110.5,138.5C 107.972,137.184 107.972,136.017 110.5,135C 109.552,134.517 108.552,134.351 107.5,134.5C 107.19,137.713 107.523,140.713 108.5,143.5C 107.167,144.833 105.833,144.833 104.5,143.5C 104.5,143.167 104.5,142.833 104.5,142.5C 105.993,141.688 106.66,140.355 106.5,138.5C 106.66,136.645 105.993,135.312 104.5,134.5C 103.4,133.442 102.066,132.608 100.5,132C 101.253,130.513 102.086,130.346 103,131.5C 103.317,129.699 103.984,129.366 105,130.5C 105.667,127.833 106.333,127.833 107,130.5C 108.294,129.146 108.46,127.812 107.5,126.5C 110.133,122.229 112.466,117.896 114.5,113.5C 113.5,113.5 112.5,113.5 111.5,113.5C 111.5,111.833 111.5,110.167 111.5,108.5C 114.777,108.784 117.943,108.451 121,107.5C 122.487,108.253 122.654,109.086 121.5,110C 122.448,110.483 123.448,110.649 124.5,110.5 Z"/></g>
<g><path style="opacity:0.946" fill="#07070f" d="M 124.5,110.5 C 130.979,109.509 137.646,109.176 144.5,109.5C 145.967,112.29 148.3,113.956 151.5,114.5C 146.576,125.657 139.243,134.99 129.5,142.5C 130.008,139.824 130.175,137.157 130,134.5C 129.333,137.167 128.667,137.167 128,134.5C 127.825,137.157 127.992,139.824 128.5,142.5C 118.789,151.02 107.455,156.353 94.5,158.5C 95.8438,156.832 97.1771,155.165 98.5,153.5C 98.3918,152.558 98.0585,151.725 97.5,151C 101.26,149.486 102.927,146.986 102.5,143.5C 103.167,143.5 103.833,143.5 104.5,143.5C 105.833,144.833 107.167,144.833 108.5,143.5C 109.5,143.5 110.5,143.5 111.5,143.5C 111.833,143.5 112.167,143.5 112.5,143.5C 113.978,142.552 114.978,141.219 115.5,139.5C 116.167,139.5 116.833,139.5 117.5,139.5C 117.5,140.833 117.5,142.167 117.5,143.5C 118.873,143.657 120.207,143.49 121.5,143C 119.679,140.544 119.012,137.711 119.5,134.5C 119.082,133.778 118.416,133.278 117.5,133C 120.954,132.707 121.288,131.374 118.5,129C 121.742,128.717 122.076,127.883 119.5,126.5C 122.981,122.219 125.981,117.552 128.5,112.5C 127.246,112.432 125.913,111.766 124.5,110.5 Z"/></g>
<g><path style="opacity:1" fill="#edeba4" d="M 111.5,104.5 C 107.618,109.437 102.952,113.437 97.5,116.5C 93.784,118.531 89.784,119.531 85.5,119.5C 87.1901,118.254 89.5235,116.921 92.5,115.5C 89.9135,114.52 87.2469,114.187 84.5,114.5C 91.6292,112.599 97.9626,109.099 103.5,104C 106.367,103.199 109.034,103.366 111.5,104.5 Z"/></g>
<g><path style="opacity:1" fill="#3d3e42" d="M 49.5,111.5 C 49.2965,113.39 49.9632,114.89 51.5,116C 50.7734,117.399 50.2734,118.899 50,120.5C 47.6858,123.555 45.5191,126.055 43.5,128C 45.1341,128.494 46.8008,128.66 48.5,128.5C 48.6567,129.873 48.49,131.207 48,132.5C 47.6667,131.833 47.3333,131.167 47,130.5C 46.5,131.667 45.6667,132.5 44.5,133C 44.7284,133.399 45.0618,133.565 45.5,133.5C 43.4621,136.344 43.1288,139.344 44.5,142.5C 42.8828,143.038 41.2161,143.371 39.5,143.5C 40.3045,141.164 39.9712,138.83 38.5,136.5C 39.3256,135.549 39.4922,134.549 39,133.5C 37.8881,136.754 37.3881,140.087 37.5,143.5C 36.8333,143.5 36.1667,143.5 35.5,143.5C 32.9084,141.911 32.9084,140.245 35.5,138.5C 32.972,137.184 32.972,136.017 35.5,135C 34.552,134.517 33.552,134.351 32.5,134.5C 32.5,137.5 32.5,140.5 32.5,143.5C 32.1667,143.5 31.8333,143.5 31.5,143.5C 30.8333,143.5 30.5,143.167 30.5,142.5C 32.6688,137.875 31.3355,135.209 26.5,134.5C 26.5,136.167 26.5,137.833 26.5,139.5C 24.8333,138.5 23.5,137.167 22.5,135.5C 22.8399,132.325 24.5066,130.159 27.5,129C 27.0426,128.586 26.7093,128.086 26.5,127.5C 27.8613,125.972 29.028,124.305 30,122.5C 30.1485,118.353 31.9818,115.186 35.5,113C 34.376,112.751 33.376,112.251 32.5,111.5C 33.1667,111.167 33.8333,110.833 34.5,110.5C 39.2826,112.913 42.9492,111.58 45.5,106.5C 45.7822,109.057 45.9489,111.723 46,114.5C 46.6667,115.167 47.3333,115.833 48,116.5C 48.1981,114.618 48.6981,112.952 49.5,111.5 Z"/></g>
<g><path style="opacity:1" fill="#363316" d="M 66.5,106.5 C 65.438,108.099 65.438,109.766 66.5,111.5C 58.6745,114.26 58.6745,116.593 66.5,118.5C 67.5,119.167 68.5,119.833 69.5,120.5C 66.1226,120.041 62.7893,119.374 59.5,118.5C 59.5,117.5 59.5,116.5 59.5,115.5C 55.7779,116.32 53.4446,114.987 52.5,111.5C 55.6969,114.484 58.3636,114.151 60.5,110.5C 62.2459,108.748 64.2459,107.415 66.5,106.5 Z"/></g>
<g><path style="opacity:1" fill="#ded64e" d="M 66.5,111.5 C 66.8417,112.338 67.5084,112.672 68.5,112.5C 68.6107,113.117 68.944,113.617 69.5,114C 73.1141,114.945 76.7808,115.612 80.5,116C 81.3567,116.689 82.0233,117.522 82.5,118.5C 77.1715,119.612 71.8381,119.612 66.5,118.5C 58.6745,116.593 58.6745,114.26 66.5,111.5 Z"/></g>
<g><path style="opacity:1" fill="#e3dd7d" d="M 68.5,112.5 C 73.6972,114.087 79.0305,114.754 84.5,114.5C 87.2469,114.187 89.9135,114.52 92.5,115.5C 89.5235,116.921 87.1901,118.254 85.5,119.5C 85.5,119.833 85.5,120.167 85.5,120.5C 80.1667,120.5 74.8333,120.5 69.5,120.5C 68.5,119.833 67.5,119.167 66.5,118.5C 71.8381,119.612 77.1715,119.612 82.5,118.5C 82.0233,117.522 81.3567,116.689 80.5,116C 76.7808,115.612 73.1141,114.945 69.5,114C 68.944,113.617 68.6107,113.117 68.5,112.5 Z"/></g>
<g><path style="opacity:1" fill="#39391f" d="M 97.5,116.5 C 97.5,116.833 97.5,117.167 97.5,117.5C 93.8488,119.746 89.8488,120.746 85.5,120.5C 85.5,120.167 85.5,119.833 85.5,119.5C 89.784,119.531 93.784,118.531 97.5,116.5 Z"/></g>
<g><path style="opacity:1" fill="#16161d" d="M 121.5,104.5 C 122.962,105.458 124.295,106.624 125.5,108C 132.013,108.172 138.347,108.672 144.5,109.5C 137.646,109.176 130.979,109.509 124.5,110.5C 123.448,110.649 122.448,110.483 121.5,110C 122.654,109.086 122.487,108.253 121,107.5C 117.943,108.451 114.777,108.784 111.5,108.5C 111.5,110.167 111.5,111.833 111.5,113.5C 112.5,113.5 113.5,113.5 114.5,113.5C 112.466,117.896 110.133,122.229 107.5,126.5C 108.46,127.812 108.294,129.146 107,130.5C 106.333,127.833 105.667,127.833 105,130.5C 103.984,129.366 103.317,129.699 103,131.5C 102.086,130.346 101.253,130.513 100.5,132C 102.066,132.608 103.4,133.442 104.5,134.5C 103.5,134.5 102.5,134.5 101.5,134.5C 101.19,137.713 101.523,140.713 102.5,143.5C 102.927,146.986 101.26,149.486 97.5,151C 98.0585,151.725 98.3918,152.558 98.5,153.5C 97.1771,155.165 95.8438,156.832 94.5,158.5C 93.5084,158.328 92.8417,158.662 92.5,159.5C 89.1667,159.5 85.8333,159.5 82.5,159.5C 84.7293,156.048 86.7293,152.381 88.5,148.5C 89.6507,147.269 90.8173,147.269 92,148.5C 94.0955,147.285 93.9288,146.451 91.5,146C 91.7284,145.601 92.0618,145.435 92.5,145.5C 93.7498,145.577 94.5831,146.244 95,147.5C 96.6625,145.842 97.4959,143.842 97.5,141.5C 95.8212,141.715 94.8212,141.048 94.5,139.5C 96.5195,138.462 96.8528,137.128 95.5,135.5C 95.5,135.167 95.5,134.833 95.5,134.5C 94.8288,133.153 94.8288,131.986 95.5,131C 93.3799,129.477 93.0465,127.644 94.5,125.5C 93.5,124.5 92.5,123.5 91.5,122.5C 89.802,123.681 88.1353,123.681 86.5,122.5C 89.5,121.833 92.5,121.167 95.5,120.5C 96.6119,119.735 97.2786,118.735 97.5,117.5C 97.5,117.167 97.5,116.833 97.5,116.5C 102.952,113.437 107.618,109.437 111.5,104.5C 112.261,103.609 113.261,102.942 114.5,102.5C 116.762,103.467 119.095,104.134 121.5,104.5 Z"/></g>
<g><path style="opacity:1" fill="#1e1e25" d="M 97.5,117.5 C 97.2786,118.735 96.6119,119.735 95.5,120.5C 92.5,121.167 89.5,121.833 86.5,122.5C 88.1353,123.681 89.802,123.681 91.5,122.5C 92.5,123.5 93.5,124.5 94.5,125.5C 93.0465,127.644 93.3799,129.477 95.5,131C 94.8288,131.986 94.8288,133.153 95.5,134.5C 94.5,134.5 93.5,134.5 92.5,134.5C 92.3354,137.518 92.502,140.518 93,143.5C 93.49,142.207 93.6567,140.873 93.5,139.5C 93.8333,139.5 94.1667,139.5 94.5,139.5C 94.8212,141.048 95.8212,141.715 97.5,141.5C 97.4959,143.842 96.6625,145.842 95,147.5C 94.5831,146.244 93.7498,145.577 92.5,145.5C 92.0679,144.29 91.4013,143.29 90.5,142.5C 92.192,138.938 91.5254,135.938 88.5,133.5C 87.914,133.709 87.414,134.043 87,134.5C 86.1993,137.367 86.3659,140.034 87.5,142.5C 87.5,142.833 87.5,143.167 87.5,143.5C 86.6043,144.506 85.9377,144.506 85.5,143.5C 84.0583,140.77 83.0583,137.77 82.5,134.5C 81.5159,137.428 81.1826,140.428 81.5,143.5C 81.1667,143.5 80.8333,143.5 80.5,143.5C 79.7222,142.844 79.0556,142.011 78.5,141C 79.6953,139.467 79.6953,137.967 78.5,136.5C 79.1667,135.833 79.8333,135.167 80.5,134.5C 78.604,133.534 76.604,133.201 74.5,133.5C 74.3781,137.838 74.0447,138.172 73.5,134.5C 72.3129,133.466 71.4796,132.133 71,130.5C 70.7508,131.624 70.2508,132.624 69.5,133.5C 67.1002,132.982 65.1002,131.815 63.5,130C 64.4162,129.626 65.2496,129.126 66,128.5C 69.2073,131.15 69.7073,130.984 67.5,128C 68.6765,126.326 70.0098,124.826 71.5,123.5C 70.624,122.749 69.624,122.249 68.5,122C 74.3482,121.827 80.0149,121.327 85.5,120.5C 89.8488,120.746 93.8488,119.746 97.5,117.5 Z"/></g>
<g><path style="opacity:1" fill="#f7f8fa" d="M 95.5,134.5 C 95.5,134.833 95.5,135.167 95.5,135.5C 93.8235,136.183 93.1568,137.517 93.5,139.5C 93.6567,140.873 93.49,142.207 93,143.5C 92.502,140.518 92.3354,137.518 92.5,134.5C 93.5,134.5 94.5,134.5 95.5,134.5 Z"/></g>
<g><path style="opacity:1" fill="#b5b6ba" d="M 115.5,139.5 C 114.978,141.219 113.978,142.552 112.5,143.5C 112.5,140.5 112.5,137.5 112.5,134.5C 113.833,134.5 115.167,134.5 116.5,134.5C 116.634,136.292 116.301,137.958 115.5,139.5 Z"/></g>
<g><path style="opacity:1" fill="#393a3f" d="M 89.5,142.5 C 89.1583,143.338 88.4916,143.672 87.5,143.5C 87.5,143.167 87.5,142.833 87.5,142.5C 88.1667,133.167 88.8333,133.167 89.5,142.5 Z"/></g>
<g><path style="opacity:1" fill="#c5c6cb" d="M 104.5,134.5 C 105.993,135.312 106.66,136.645 106.5,138.5C 106.66,140.355 105.993,141.688 104.5,142.5C 104.5,142.833 104.5,143.167 104.5,143.5C 103.833,143.5 103.167,143.5 102.5,143.5C 101.523,140.713 101.19,137.713 101.5,134.5C 102.5,134.5 103.5,134.5 104.5,134.5 Z"/></g>
<g><path style="opacity:1" fill="#515257" d="M 104.5,142.5 C 103.275,141.848 102.608,140.681 102.5,139C 102.833,137.833 103.167,136.667 103.5,135.5C 104.474,137.743 104.808,140.076 104.5,142.5 Z"/></g>
<g><path style="opacity:1" fill="#cccdd1" d="M 129.5,142.5 C 129.167,142.5 128.833,142.5 128.5,142.5C 127.992,139.824 127.825,137.157 128,134.5C 128.667,137.167 129.333,137.167 130,134.5C 130.175,137.157 130.008,139.824 129.5,142.5 Z"/></g>
<g><path style="opacity:1" fill="#c1c1c5" d="M 30.5,142.5 C 29.5084,142.672 28.8417,142.338 28.5,141.5C 29.7928,139.636 29.7928,137.636 28.5,135.5C 27.5481,137.045 27.2148,138.712 27.5,140.5C 26.8333,140.5 26.5,140.167 26.5,139.5C 26.5,137.833 26.5,136.167 26.5,134.5C 31.3355,135.209 32.6688,137.875 30.5,142.5 Z"/></g>
<g><path style="opacity:1" fill="#e4e5e9" d="M 35.5,143.5 C 34.5,143.5 33.5,143.5 32.5,143.5C 32.5,140.5 32.5,137.5 32.5,134.5C 33.552,134.351 34.552,134.517 35.5,135C 32.972,136.017 32.972,137.184 35.5,138.5C 32.9084,140.245 32.9084,141.911 35.5,143.5 Z"/></g>
<g><path style="opacity:1" fill="#c9cace" d="M 39.5,143.5 C 38.8333,143.5 38.1667,143.5 37.5,143.5C 37.3881,140.087 37.8881,136.754 39,133.5C 39.4922,134.549 39.3256,135.549 38.5,136.5C 39.9712,138.83 40.3045,141.164 39.5,143.5 Z"/></g>
<g><path style="opacity:1" fill="#c1c2c6" d="M 45.5,133.5 C 49.2887,134.596 49.2887,135.263 45.5,135.5C 45.1924,137.924 45.5258,140.257 46.5,142.5C 47.1131,141.02 47.4464,139.687 47.5,138.5C 48.4519,140.045 48.7852,141.712 48.5,143.5C 46.901,143.768 45.5676,143.434 44.5,142.5C 43.1288,139.344 43.4621,136.344 45.5,133.5 Z"/></g>
<g><path style="opacity:1" fill="#c6c7cb" d="M 90.5,142.5 C 90.1667,142.5 89.8333,142.5 89.5,142.5C 88.8333,133.167 88.1667,133.167 87.5,142.5C 86.3659,140.034 86.1993,137.367 87,134.5C 87.414,134.043 87.914,133.709 88.5,133.5C 91.5254,135.938 92.192,138.938 90.5,142.5 Z"/></g>
<g><path style="opacity:1" fill="#cecfd3" d="M 111.5,143.5 C 110.5,143.5 109.5,143.5 108.5,143.5C 107.523,140.713 107.19,137.713 107.5,134.5C 108.552,134.351 109.552,134.517 110.5,135C 107.972,136.017 107.972,137.184 110.5,138.5C 109.147,139.524 108.48,140.857 108.5,142.5C 109.791,142.263 110.791,142.596 111.5,143.5 Z"/></g>
<g><path style="opacity:1" fill="#acadb1" d="M 80.5,143.5 C 79.1667,143.5 77.8333,143.5 76.5,143.5C 76.6633,141.143 76.4966,138.81 76,136.5C 75.6097,139.104 74.7763,141.438 73.5,143.5C 72.992,140.611 72.3253,137.778 71.5,135C 72.0944,134.536 72.7611,134.369 73.5,134.5C 74.0447,138.172 74.3781,137.838 74.5,133.5C 76.604,133.201 78.604,133.534 80.5,134.5C 79.8333,135.167 79.1667,135.833 78.5,136.5C 79.6953,137.967 79.6953,139.467 78.5,141C 79.0556,142.011 79.7222,142.844 80.5,143.5 Z"/></g>
<g><path style="opacity:1" fill="#9c9da2" d="M 95.5,135.5 C 96.8528,137.128 96.5195,138.462 94.5,139.5C 94.1667,139.5 93.8333,139.5 93.5,139.5C 93.1568,137.517 93.8235,136.183 95.5,135.5 Z"/></g>
<g><path style="opacity:1" fill="#515256" d="M 28.5,141.5 C 27.8333,141.5 27.5,141.167 27.5,140.5C 27.2148,138.712 27.5481,137.045 28.5,135.5C 29.7928,137.636 29.7928,139.636 28.5,141.5 Z"/></g>
<g><path style="opacity:1" fill="#adaeb3" d="M 85.5,143.5 C 84.1667,143.5 82.8333,143.5 81.5,143.5C 81.1826,140.428 81.5159,137.428 82.5,134.5C 83.0583,137.77 84.0583,140.77 85.5,143.5 Z"/></g>
<g><path style="opacity:1" fill="#b7b8bc" d="M 123.5,133.5 C 125.884,134.425 126.884,136.258 126.5,139C 126.826,141.271 125.992,142.771 124,143.5C 120.865,140.343 120.698,137.01 123.5,133.5 Z"/></g>
<g><path style="opacity:1" fill="#161619" d="M 123.5,135.5 C 125.94,137.573 126.106,139.906 124,142.5C 123.503,140.19 123.337,137.857 123.5,135.5 Z"/></g>
<g><path style="opacity:1" fill="#abacb1" d="M 119.5,134.5 C 119.012,137.711 119.679,140.544 121.5,143C 120.207,143.49 118.873,143.657 117.5,143.5C 117.5,142.167 117.5,140.833 117.5,139.5C 117.077,137.219 117.744,135.552 119.5,134.5 Z"/></g>
<g><path style="opacity:0.945" fill="#2f2f34" d="M 49.5,111.5 C 50.5,111.5 51.5,111.5 52.5,111.5C 53.4446,114.987 55.7779,116.32 59.5,115.5C 59.5,116.5 59.5,117.5 59.5,118.5C 62.7893,119.374 66.1226,120.041 69.5,120.5C 74.8333,120.5 80.1667,120.5 85.5,120.5C 80.0149,121.327 74.3482,121.827 68.5,122C 69.624,122.249 70.624,122.749 71.5,123.5C 70.0098,124.826 68.6765,126.326 67.5,128C 69.7073,130.984 69.2073,131.15 66,128.5C 65.2496,129.126 64.4162,129.626 63.5,130C 65.1002,131.815 67.1002,132.982 69.5,133.5C 70.2508,132.624 70.7508,131.624 71,130.5C 71.4796,132.133 72.3129,133.466 73.5,134.5C 72.7611,134.369 72.0944,134.536 71.5,135C 72.3253,137.778 72.992,140.611 73.5,143.5C 72.5,142.167 71.5,142.167 70.5,143.5C 67.9084,141.911 67.9084,140.245 70.5,138.5C 67.972,137.184 67.972,136.017 70.5,135C 69.552,134.517 68.552,134.351 67.5,134.5C 67.5,137.5 67.5,140.5 67.5,143.5C 66.5,143.5 65.5,143.5 64.5,143.5C 67.903,138.726 66.903,135.726 61.5,134.5C 61.5,136.833 61.5,139.167 61.5,141.5C 60.7611,141.631 60.0944,141.464 59.5,141C 60.9233,138.38 60.7566,135.88 59,133.5C 58.5,134 58,134.5 57.5,135C 57.0574,136.518 57.7241,137.685 59.5,138.5C 58.0475,140.721 56.8808,143.054 56,145.5C 54.4931,144.465 52.9931,144.632 51.5,146C 54.2636,147.544 54.0969,148.711 51,149.5C 50.5065,151.134 50.3398,152.801 50.5,154.5C 43.3448,152.094 37.0114,148.428 31.5,143.5C 31.8333,143.5 32.1667,143.5 32.5,143.5C 33.5,143.5 34.5,143.5 35.5,143.5C 36.1667,143.5 36.8333,143.5 37.5,143.5C 38.1667,143.5 38.8333,143.5 39.5,143.5C 41.2161,143.371 42.8828,143.038 44.5,142.5C 45.5676,143.434 46.901,143.768 48.5,143.5C 48.7852,141.712 48.4519,140.045 47.5,138.5C 47.4464,139.687 47.1131,141.02 46.5,142.5C 45.5258,140.257 45.1924,137.924 45.5,135.5C 49.2887,135.263 49.2887,134.596 45.5,133.5C 45.0618,133.565 44.7284,133.399 44.5,133C 45.6667,132.5 46.5,131.667 47,130.5C 47.3333,131.167 47.6667,131.833 48,132.5C 48.49,131.207 48.6567,129.873 48.5,128.5C 46.8008,128.66 45.1341,128.494 43.5,128C 45.5191,126.055 47.6858,123.555 50,120.5C 50.2734,118.899 50.7734,117.399 51.5,116C 49.9632,114.89 49.2965,113.39 49.5,111.5 Z"/></g>
<g><path style="opacity:1" fill="#aaabaf" d="M 49.5,134.5 C 50.7498,134.577 51.5831,135.244 52,136.5C 52.3076,135.692 52.8076,135.025 53.5,134.5C 54.8333,137.5 54.8333,140.5 53.5,143.5C 52.8076,142.975 52.3076,142.308 52,141.5C 51.6924,142.308 51.1924,142.975 50.5,143.5C 49.5159,140.572 49.1826,137.572 49.5,134.5 Z"/></g>
<g><path style="opacity:1" fill="#d3d4d8" d="M 64.5,143.5 C 62.8212,143.715 61.8212,143.048 61.5,141.5C 61.5,139.167 61.5,136.833 61.5,134.5C 66.903,135.726 67.903,138.726 64.5,143.5 Z"/></g>
<g><path style="opacity:1" fill="#434448" d="M 62.5,135.5 C 63.6935,135.97 64.3601,136.97 64.5,138.5C 64.1667,139.5 63.8333,140.5 63.5,141.5C 62.5344,139.604 62.2011,137.604 62.5,135.5 Z"/></g>
<g><path style="opacity:1" fill="#dfe0e4" d="M 70.5,143.5 C 70.1667,143.5 69.8333,143.5 69.5,143.5C 68.8333,143.5 68.1667,143.5 67.5,143.5C 67.5,140.5 67.5,137.5 67.5,134.5C 68.552,134.351 69.552,134.517 70.5,135C 67.972,136.017 67.972,137.184 70.5,138.5C 67.9084,140.245 67.9084,141.911 70.5,143.5 Z"/></g>
<g><path style="opacity:0.968" fill="#22222a" d="M 61.5,141.5 C 61.8212,143.048 62.8212,143.715 64.5,143.5C 65.5,143.5 66.5,143.5 67.5,143.5C 68.1667,143.5 68.8333,143.5 69.5,143.5C 68.791,144.404 67.791,144.737 66.5,144.5C 64.2653,148.641 62.2653,152.975 60.5,157.5C 57.0321,156.899 53.6988,155.899 50.5,154.5C 50.3398,152.801 50.5065,151.134 51,149.5C 54.0969,148.711 54.2636,147.544 51.5,146C 52.9931,144.632 54.4931,144.465 56,145.5C 56.8808,143.054 58.0475,140.721 59.5,138.5C 57.7241,137.685 57.0574,136.518 57.5,135C 58,134.5 58.5,134 59,133.5C 60.7566,135.88 60.9233,138.38 59.5,141C 60.0944,141.464 60.7611,141.631 61.5,141.5 Z"/></g>
<g><path style="opacity:0.997" fill="#17181f" d="M 80.5,143.5 C 80.8333,143.5 81.1667,143.5 81.5,143.5C 82.8333,143.5 84.1667,143.5 85.5,143.5C 85.9377,144.506 86.6043,144.506 87.5,143.5C 88.4916,143.672 89.1583,143.338 89.5,142.5C 89.8333,142.5 90.1667,142.5 90.5,142.5C 91.4013,143.29 92.0679,144.29 92.5,145.5C 92.0618,145.435 91.7284,145.601 91.5,146C 93.9288,146.451 94.0955,147.285 92,148.5C 90.8173,147.269 89.6507,147.269 88.5,148.5C 86.7293,152.381 84.7293,156.048 82.5,159.5C 77.1667,159.5 71.8333,159.5 66.5,159.5C 64.6264,158.715 62.6264,158.048 60.5,157.5C 62.2653,152.975 64.2653,148.641 66.5,144.5C 67.791,144.737 68.791,144.404 69.5,143.5C 69.8333,143.5 70.1667,143.5 70.5,143.5C 71.5,142.167 72.5,142.167 73.5,143.5C 74.7763,141.438 75.6097,139.104 76,136.5C 76.4966,138.81 76.6633,141.143 76.5,143.5C 77.8333,143.5 79.1667,143.5 80.5,143.5 Z"/></g>
</svg>
