<svg xmlns="http://www.w3.org/2000/svg" xmlns:xlink="http://www.w3.org/1999/xlink" version="1.1" width="1000" height="1000" viewBox="0 0 1000 1000" xml:space="preserve">
<desc>Created with Fabric.js 3.5.0</desc>
<defs>
</defs>
<rect x="0" y="0" width="100%" height="100%" fill="#ffffff"/>
<g transform="matrix(7.3982 0 0 7.3982 500.0008 500.0005)" id="419459">
<path style="stroke: none; stroke-width: 1; stroke-dasharray: none; stroke-linecap: butt; stroke-dashoffset: 0; stroke-linejoin: miter; stroke-miterlimit: 4; is-custom-font: none; font-file-url: none; fill: rgb(0,0,0); fill-rule: evenodd; opacity: 1;" vector-effect="non-scaling-stroke" transform=" translate(-61.4359, -36.6364)" d="M 104.27 58.88 l -0.54 -19.99 l -32.85 9.49 c -2.96 0.65 -5.88 0.96 -8.74 0.97 c -3.07 0.01 -6.09 -0.32 -9.06 -0.97 L 21.7 38.79 v 20.27 c 0.9 10.53 31.11 13.75 40.38 14.19 c 7.43 0.36 36.78 -3.52 40.64 -9.57 C 103.55 62.36 104.07 60.76 104.27 58.88 L 104.27 58.88 z M 117.58 24.5 v 24.43 h 0.77 c 0.53 0 0.96 0.43 0.96 0.96 v 6.57 c 0 0.52 -0.43 0.96 -0.96 0.96 h -0.77 v 2.3 c 0.98 0.18 1.73 1.05 1.73 2.08 v 0 c 0 1.16 -0.96 2.12 -2.12 2.12 h -3.79 c -1.16 0 -2.12 -0.95 -2.12 -2.12 v 0 c 0 -1.03 0.75 -1.9 1.73 -2.08 v -2.3 h -0.77 c -0.52 0 -0.96 -0.43 -0.96 -0.96 v -6.57 c 0 -0.53 0.43 -0.96 0.96 -0.96 h 0.77 v -23 L 73.03 38.35 c -7.24 1.72 -14.48 1.84 -21.72 0 L 7.18 25.18 l -3.99 -1.19 c -4.97 -2.03 -3.73 -6.8 0.9 -7.9 L 54 1.19 c 5.15 -1.47 10.29 -1.7 15.44 0 l 49.01 14.72 c 5.33 1.3 6.38 6.23 0.18 8.26 L 117.58 24.5 L 117.58 24.5 z" stroke-linecap="round"/>
</g>
<g transform="matrix(1 0 0 1 500 665.591)" style="" id="861562">
		
<path xml:space="preserve" font-family="Baloo" font-size="144" font-style="normal" font-weight="normal" style="stroke: none; stroke-width: 1; stroke-dasharray: none; stroke-linecap: butt; stroke-dashoffset: 0; stroke-linejoin: miter; stroke-miterlimit: 4; is-custom-font: none; font-file-url: none; fill: rgb(255,255,255); fill-rule: nonzero; opacity: 1; white-space: pre;" d="M-176.85 9.66L-176.85 27.24Q-174.81 27.80-171.65 28.01Q-168.48 28.22-165.60 28.22L-165.60 28.22Q-159.84 28.22-156.04 25.87Q-152.24 23.51-152.24 18.45L-152.24 18.45Q-152.24 13.67-155.41 11.66Q-158.57 9.66-165.04 9.66L-165.04 9.66L-176.85 9.66ZM-176.85-24.87L-176.85-7.92L-166.30-7.92Q-160.12-7.92-157.30-10.21Q-154.49-12.49-154.49-16.99L-154.49-16.99Q-154.49-20.86-157.73-23.18Q-160.96-25.50-167.50-25.50L-167.50-25.50Q-169.68-25.50-172.46-25.32Q-175.23-25.15-176.85-24.87L-176.85-24.87ZM-167.50 47.56L-167.50 47.56Q-169.96 47.56-173.27 47.42Q-176.57 47.28-180.09 46.82Q-183.60 46.36-187.05 45.73Q-190.49 45.10-193.38 43.97L-193.38 43.97Q-201.32 40.95-201.32 33.42L-201.32 33.42L-201.32-33.80Q-201.32-36.82-199.67-38.47Q-198.02-40.12-195.13-41.18L-195.13-41.18Q-190.21-42.94-182.86-43.71Q-175.52-44.48-167.78-44.48L-167.78-44.48Q-149.36-44.48-139.41-38.30Q-129.46-32.11-129.46-19.10L-129.46-19.10Q-129.46-12.63-133.19-7.96Q-136.91-3.28-143.31-1.10L-143.31-1.10Q-136.14 0.94-131.29 6.25Q-126.44 11.56-126.44 19.57L-126.44 19.57Q-126.44 33.85-137.02 40.70Q-147.60 47.56-167.50 47.56ZM-118.42 33.56L-118.42 33.56Q-118.42 27.52-114.66 23.47Q-110.90 19.43-104.43 19.43L-104.43 19.43Q-97.96 19.43-94.23 23.47Q-90.51 27.52-90.51 33.56L-90.51 33.56Q-90.51 39.61-94.23 43.65Q-97.96 47.70-104.43 47.70L-104.43 47.70Q-110.90 47.70-114.66 43.65Q-118.42 39.61-118.42 33.56ZM-67.59-21.84L-89.17-21.84Q-90.16-23.46-91.04-26.20Q-91.91-28.94-91.91-31.97L-91.91-31.97Q-91.91-37.59-89.38-40.02Q-86.85-42.44-82.84-42.44L-82.84-42.44L-20.05-42.44Q-19.07-40.83-18.19-38.12Q-17.31-35.41-17.31-32.39L-17.31-32.39Q-17.31-26.76-19.84-24.30Q-22.38-21.84-26.38-21.84L-26.38-21.84L-42.41-21.84L-42.41 44.67Q-44.03 45.10-47.37 45.52Q-50.71 45.94-54.09 45.94L-54.09 45.94Q-57.39 45.94-59.89 45.45Q-62.38 44.95-64.11 43.65Q-65.83 42.35-66.71 40.07Q-67.59 37.78-67.59 33.99L-67.59 33.99L-67.59-21.84ZM21.36 47.56L21.36 47.56Q12.85 47.56 5.57 45.17Q-1.70 42.78-7.08 38.03Q-12.46 33.28-15.59 26.08Q-18.72 18.87-18.72 9.24L-18.72 9.24Q-18.72-0.26-15.59-7.11Q-12.46-13.97-7.43-18.36Q-2.41-22.76 4.06-24.83Q10.53-26.90 17.28-26.90L17.28-26.90Q24.95-26.90 31.20-24.62Q37.46-22.33 42.00-18.29Q46.53-14.25 49.06-8.62Q51.59-3.00 51.59 3.61L51.59 3.61Q51.59 8.53 48.85 11.10Q46.11 13.67 41.19 14.44L41.19 14.44L5.68 19.78Q7.30 24.56 12.15 26.92Q17.00 29.28 23.40 29.28L23.40 29.28Q29.30 29.28 34.54 27.76Q39.78 26.25 43.09 24.21L43.09 24.21Q45.41 25.62 46.99 28.22Q48.57 30.82 48.57 33.70L48.57 33.70Q48.57 40.17 42.52 43.34L42.52 43.34Q37.88 45.80 32.15 46.68Q26.42 47.56 21.36 47.56ZM17.28-9.05L17.28-9.05Q13.84-9.05 11.34-7.88Q8.84-6.72 7.26-4.93Q5.68-3.14 4.87-0.92Q4.06 1.29 3.92 3.61L3.92 3.61L28.53-0.40Q28.11-3.28 25.37-6.16Q22.62-9.05 17.28-9.05ZM102.85-7.64L102.85-7.64Q99.27-7.64 96.00-6.48Q92.73-5.32 90.37-3.07Q88.02-0.82 86.57 2.49Q85.13 5.79 85.13 10.22L85.13 10.22Q85.13 19.15 90.23 23.62Q95.33 28.08 102.71 28.08L102.71 28.08Q107.00 28.08 110.16 27.10Q113.33 26.11 115.79 24.92L115.79 24.92Q118.67 26.95 120.11 29.31Q121.55 31.67 121.55 35.04L121.55 35.04Q121.55 40.95 115.93 44.18Q110.30 47.42 100.39 47.42L100.39 47.42Q91.32 47.42 83.97 44.74Q76.62 42.07 71.35 37.26Q66.08 32.44 63.20 25.65Q60.31 18.87 60.31 10.64L60.31 10.64Q60.31 1.15 63.44-5.95Q66.57-13.05 71.88-17.69Q77.19-22.33 84.18-24.62Q91.18-26.90 98.91-26.90L98.91-26.90Q109.25-26.90 114.91-23.18Q120.57-19.45 120.57-13.55L120.57-13.55Q120.57-10.80 119.27-8.41Q117.97-6.02 116.21-4.33L116.21-4.33Q113.75-5.46 110.30-6.55Q106.86-7.64 102.85-7.64ZM202.91 1.43L202.91 45.10Q201.50 45.52 198.37 45.94Q195.24 46.36 191.94 46.36L191.94 46.36Q188.77 46.36 186.24 45.94Q183.71 45.52 181.99 44.22Q180.27 42.92 179.32 40.70Q178.37 38.49 178.37 34.90L178.37 34.90L178.37 2.91Q178.37-3.00 175.41-5.39Q172.46-7.78 168.17-7.78L168.17-7.78Q165.29-7.78 162.69-7.04Q160.09-6.30 158.54-5.32L158.54-5.32L158.54 45.10Q157.13 45.52 154.00 45.94Q150.87 46.36 147.57 46.36L147.57 46.36Q144.41 46.36 141.87 45.94Q139.34 45.52 137.62 44.22Q135.90 42.92 134.98 40.70Q134.07 38.49 134.07 34.90L134.07 34.90L134.07-48.63Q135.69-48.91 138.75-49.44Q141.80-49.97 144.97-49.97L144.97-49.97Q148.13-49.97 150.66-49.51Q153.20-49.05 154.92-47.79Q156.64-46.52 157.59-44.27Q158.54-42.02 158.54-38.44L158.54-38.44L158.54-24.30Q160.44-25.01 164.23-25.96Q168.03-26.90 172.60-26.90L172.60-26.90Q186.87-26.90 194.89-19.77Q202.91-12.63 202.91 1.43L202.91 1.43Z"/></g>
</svg>