<svg xmlns="http://www.w3.org/2000/svg" xmlns:xlink="http://www.w3.org/1999/xlink" version="1.1" width="1000" height="1000" viewBox="0 0 1000 1000" xml:space="preserve">
<desc>Created with Fabric.js 3.5.0</desc>
<defs>
</defs>
<rect x="0" y="0" width="100%" height="100%" fill="#ffffff"/>
<g transform="matrix(7.3982 0 0 7.3982 500.0008 500.0005)" id="419459">
<path style="stroke: none; stroke-width: 1; stroke-dasharray: none; stroke-linecap: butt; stroke-dashoffset: 0; stroke-linejoin: miter; stroke-miterlimit: 4; is-custom-font: none; font-file-url: none; fill: rgb(0,0,0); fill-rule: evenodd; opacity: 1;" vector-effect="non-scaling-stroke" transform=" translate(-61.4359, -36.6364)" d="M 104.27 58.88 l -0.54 -19.99 l -32.85 9.49 c -2.96 0.65 -5.88 0.96 -8.74 0.97 c -3.07 0.01 -6.09 -0.32 -9.06 -0.97 L 21.7 38.79 v 20.27 c 0.9 10.53 31.11 13.75 40.38 14.19 c 7.43 0.36 36.78 -3.52 40.64 -9.57 C 103.55 62.36 104.07 60.76 104.27 58.88 L 104.27 58.88 z M 117.58 24.5 v 24.43 h 0.77 c 0.53 0 0.96 0.43 0.96 0.96 v 6.57 c 0 0.52 -0.43 0.96 -0.96 0.96 h -0.77 v 2.3 c 0.98 0.18 1.73 1.05 1.73 2.08 v 0 c 0 1.16 -0.96 2.12 -2.12 2.12 h -3.79 c -1.16 0 -2.12 -0.95 -2.12 -2.12 v 0 c 0 -1.03 0.75 -1.9 1.73 -2.08 v -2.3 h -0.77 c -0.52 0 -0.96 -0.43 -0.96 -0.96 v -6.57 c 0 -0.53 0.43 -0.96 0.96 -0.96 h 0.77 v -23 L 73.03 38.35 c -7.24 1.72 -14.48 1.84 -21.72 0 L 7.18 25.18 l -3.99 -1.19 c -4.97 -2.03 -3.73 -6.8 0.9 -7.9 L 54 1.19 c 5.15 -1.47 10.29 -1.7 15.44 0 l 49.01 14.72 c 5.33 1.3 6.38 6.23 0.18 8.26 L 117.58 24.5 L 117.58 24.5 z" stroke-linecap="round"/>
</g>
<g transform="matrix(1 0 0 1 500 665.591)" style="" id="861562">
		
<path xml:space="preserve" font-family="Baloo" font-size="144" font-style="normal" font-weight="normal" style="stroke: none; stroke-width: 1; stroke-dasharray: none; stroke-linecap: butt; stroke-dashoffset: 0; stroke-linejoin: miter; stroke-miterlimit: 4; is-custom-font: none; font-file-url: none; fill: rgb(255,255,255); fill-rule: nonzero; opacity: 1; white-space: pre;" d="M-154.17 23.79L-154.17 23.79Q-156.07 25.41-158.98 26.32Q-161.90 27.24-165.84 27.24L-165.84 27.24Q-171.04 27.24-174.42 25.94Q-177.79 24.63-178.78 21.47L-178.78 21.47Q-182.79 8.81-185.39 0.97Q-187.99-6.87-189.47-12.77L-189.47-12.77L-190.17-12.77Q-190.59-4.26-190.80 2.70Q-191.01 9.66-191.08 16.30Q-191.15 22.95-191.36 29.70Q-191.57 36.45-192.00 44.67L-192.00 44.67Q-193.89 45.38-196.92 45.87Q-199.94 46.36-202.97 46.36L-202.97 46.36Q-209.29 46.36-212.84 44.36Q-216.39 42.35-216.39 37.01L-216.39 37.01L-212.18-36.40Q-211.05-38.30-207.15-40.44Q-203.25-42.58-196.22-42.58L-196.22-42.58Q-188.55-42.58-184.23-40.23Q-179.90-37.87-177.93-32.53L-177.93-32.53Q-176.67-29.08-175.12-24.62Q-173.57-20.15-172.06-15.41Q-170.55-10.66-169.11-5.99Q-167.67-1.31-166.54 2.49L-166.54 2.49L-165.84 2.49Q-162.39-9.61-158.91-20.93Q-155.43-32.25-152.55-39.84L-152.55-39.84Q-150.37-40.97-147.00-41.78Q-143.62-42.58-139.47-42.58L-139.47-42.58Q-132.44-42.58-127.98-40.51Q-123.51-38.44-122.74-34.57L-122.74-34.57Q-122.18-31.69-121.54-25.71Q-120.91-19.73-120.17-12.24Q-119.43-4.76-118.73 3.61Q-118.03 11.98-117.36 19.68Q-116.69 27.38-116.27 33.78Q-115.85 40.17-115.71 43.62L-115.71 43.62Q-118.17 45.03-120.84 45.69Q-123.51 46.36-127.66 46.36L-127.66 46.36Q-133.14 46.36-136.87 44.50Q-140.60 42.63-140.88 37.15L-140.88 37.15Q-141.72 21.47-141.97 8.95Q-142.22-3.56-142.64-12.07L-142.64-12.07L-143.34-12.07Q-144.75-6.44-147.52 2.06Q-150.30 10.57-154.17 23.79ZM-105.23 33.56L-105.23 33.56Q-105.23 27.52-101.47 23.47Q-97.71 19.43-91.24 19.43L-91.24 19.43Q-84.77 19.43-81.04 23.47Q-77.32 27.52-77.32 33.56L-77.32 33.56Q-77.32 39.61-81.04 43.65Q-84.77 47.70-91.24 47.70L-91.24 47.70Q-97.71 47.70-101.47 43.65Q-105.23 39.61-105.23 33.56ZM-54.39-21.84L-75.98-21.84Q-76.97-23.46-77.84-26.20Q-78.72-28.94-78.72-31.97L-78.72-31.97Q-78.72-37.59-76.19-40.02Q-73.66-42.44-69.65-42.44L-69.65-42.44L-6.86-42.44Q-5.88-40.83-5.00-38.12Q-4.12-35.41-4.12-32.39L-4.12-32.39Q-4.12-26.76-6.65-24.30Q-9.18-21.84-13.19-21.84L-13.19-21.84L-29.22-21.84L-29.22 44.67Q-30.84 45.10-34.18 45.52Q-37.52 45.94-40.89 45.94L-40.89 45.94Q-44.20 45.94-46.70 45.45Q-49.19 44.95-50.91 43.65Q-52.64 42.35-53.52 40.07Q-54.39 37.78-54.39 33.99L-54.39 33.99L-54.39-21.84ZM34.55 47.56L34.55 47.56Q26.04 47.56 18.77 45.17Q11.49 42.78 6.11 38.03Q0.73 33.28-2.40 26.08Q-5.53 18.87-5.53 9.24L-5.53 9.24Q-5.53-0.26-2.40-7.11Q0.73-13.97 5.76-18.36Q10.78-22.76 17.25-24.83Q23.72-26.90 30.47-26.90L30.47-26.90Q38.14-26.90 44.39-24.62Q50.65-22.33 55.19-18.29Q59.72-14.25 62.25-8.62Q64.78-3.00 64.78 3.61L64.78 3.61Q64.78 8.53 62.04 11.10Q59.30 13.67 54.38 14.44L54.38 14.44L18.87 19.78Q20.49 24.56 25.34 26.92Q30.19 29.28 36.59 29.28L36.59 29.28Q42.50 29.28 47.73 27.76Q52.97 26.25 56.28 24.21L56.28 24.21Q58.60 25.62 60.18 28.22Q61.76 30.82 61.76 33.70L61.76 33.70Q61.76 40.17 55.71 43.34L55.71 43.34Q51.07 45.80 45.34 46.68Q39.61 47.56 34.55 47.56ZM30.47-9.05L30.47-9.05Q27.03-9.05 24.53-7.88Q22.03-6.72 20.45-4.93Q18.87-3.14 18.06-0.92Q17.25 1.29 17.11 3.61L17.11 3.61L41.72-0.40Q41.30-3.28 38.56-6.16Q35.82-9.05 30.47-9.05ZM116.04-7.64L116.04-7.64Q112.46-7.64 109.19-6.48Q105.92-5.32 103.56-3.07Q101.21-0.82 99.77 2.49Q98.32 5.79 98.32 10.22L98.32 10.22Q98.32 19.15 103.42 23.62Q108.52 28.08 115.90 28.08L115.90 28.08Q120.19 28.08 123.36 27.10Q126.52 26.11 128.98 24.92L128.98 24.92Q131.86 26.95 133.30 29.31Q134.75 31.67 134.75 35.04L134.75 35.04Q134.75 40.95 129.12 44.18Q123.50 47.42 113.58 47.42L113.58 47.42Q104.51 47.42 97.16 44.74Q89.82 42.07 84.54 37.26Q79.27 32.44 76.39 25.65Q73.50 18.87 73.50 10.64L73.50 10.64Q73.50 1.15 76.63-5.95Q79.76-13.05 85.07-17.69Q90.38-22.33 97.37-24.62Q104.37-26.90 112.11-26.90L112.11-26.90Q122.44-26.90 128.10-23.18Q133.76-19.45 133.76-13.55L133.76-13.55Q133.76-10.80 132.46-8.41Q131.16-6.02 129.40-4.33L129.40-4.33Q126.94-5.46 123.50-6.55Q120.05-7.64 116.04-7.64ZM216.10 1.43L216.10 45.10Q214.69 45.52 211.56 45.94Q208.43 46.36 205.13 46.36L205.13 46.36Q201.96 46.36 199.43 45.94Q196.90 45.52 195.18 44.22Q193.46 42.92 192.51 40.70Q191.56 38.49 191.56 34.90L191.56 34.90L191.56 2.91Q191.56-3.00 188.61-5.39Q185.65-7.78 181.36-7.78L181.36-7.78Q178.48-7.78 175.88-7.04Q173.28-6.30 171.73-5.32L171.73-5.32L171.73 45.10Q170.32 45.52 167.19 45.94Q164.07 46.36 160.76 46.36L160.76 46.36Q157.60 46.36 155.07 45.94Q152.53 45.52 150.81 44.22Q149.09 42.92 148.18 40.70Q147.26 38.49 147.26 34.90L147.26 34.90L147.26-48.63Q148.88-48.91 151.94-49.44Q155.00-49.97 158.16-49.97L158.16-49.97Q161.32-49.97 163.86-49.51Q166.39-49.05 168.11-47.79Q169.83-46.52 170.78-44.27Q171.73-42.02 171.73-38.44L171.73-38.44L171.73-24.30Q173.63-25.01 177.43-25.96Q181.22-26.90 185.79-26.90L185.79-26.90Q200.07-26.90 208.08-19.77Q216.10-12.63 216.10 1.43L216.10 1.43Z"/></g>
</svg>