<svg xmlns="http://www.w3.org/2000/svg" xmlns:xlink="http://www.w3.org/1999/xlink" version="1.1" width="1000" height="1000" viewBox="0 0 1000 1000" xml:space="preserve">
<desc>Created with Fabric.js 3.5.0</desc>
<defs>
</defs>
<rect x="0" y="0" width="100%" height="100%" fill="#ffffff"/>
<g transform="matrix(7.3982 0 0 7.3982 500.0008 500.0005)" id="419459">
<path style="stroke: none; stroke-width: 1; stroke-dasharray: none; stroke-linecap: butt; stroke-dashoffset: 0; stroke-linejoin: miter; stroke-miterlimit: 4; is-custom-font: none; font-file-url: none; fill: rgb(0,0,0); fill-rule: evenodd; opacity: 1;" vector-effect="non-scaling-stroke" transform=" translate(-61.4359, -36.6364)" d="M 104.27 58.88 l -0.54 -19.99 l -32.85 9.49 c -2.96 0.65 -5.88 0.96 -8.74 0.97 c -3.07 0.01 -6.09 -0.32 -9.06 -0.97 L 21.7 38.79 v 20.27 c 0.9 10.53 31.11 13.75 40.38 14.19 c 7.43 0.36 36.78 -3.52 40.64 -9.57 C 103.55 62.36 104.07 60.76 104.27 58.88 L 104.27 58.88 z M 117.58 24.5 v 24.43 h 0.77 c 0.53 0 0.96 0.43 0.96 0.96 v 6.57 c 0 0.52 -0.43 0.96 -0.96 0.96 h -0.77 v 2.3 c 0.98 0.18 1.73 1.05 1.73 2.08 v 0 c 0 1.16 -0.96 2.12 -2.12 2.12 h -3.79 c -1.16 0 -2.12 -0.95 -2.12 -2.12 v 0 c 0 -1.03 0.75 -1.9 1.73 -2.08 v -2.3 h -0.77 c -0.52 0 -0.96 -0.43 -0.96 -0.96 v -6.57 c 0 -0.53 0.43 -0.96 0.96 -0.96 h 0.77 v -23 L 73.03 38.35 c -7.24 1.72 -14.48 1.84 -21.72 0 L 7.18 25.18 l -3.99 -1.19 c -4.97 -2.03 -3.73 -6.8 0.9 -7.9 L 54 1.19 c 5.15 -1.47 10.29 -1.7 15.44 0 l 49.01 14.72 c 5.33 1.3 6.38 6.23 0.18 8.26 L 117.58 24.5 L 117.58 24.5 z" stroke-linecap="round"/>
</g>
<g transform="matrix(1 0 0 1 500 665.591)" style="" id="861562">
		
<path xml:space="preserve" font-family="Baloo" font-size="144" font-style="normal" font-weight="normal" style="stroke: none; stroke-width: 1; stroke-dasharray: none; stroke-linecap: butt; stroke-dashoffset: 0; stroke-linejoin: miter; stroke-miterlimit: 4; is-custom-font: none; font-file-url: none; fill: rgb(255,255,255); fill-rule: nonzero; opacity: 1; white-space: pre;" d="M-93.63-1.59L-85.97-1.59Q-79.92-1.59-76.69-4.37Q-73.45-7.15-73.45-12.91L-73.45-12.91Q-73.45-18.40-76.83-21.35Q-80.20-24.30-86.67-24.30L-86.67-24.30Q-88.99-24.30-90.50-24.23Q-92.02-24.16-93.63-23.88L-93.63-23.88L-93.63-1.59ZM-93.42 18.17L-93.42 44.67Q-95.04 45.10-98.41 45.52Q-101.79 45.94-105.09 45.94L-105.09 45.94Q-108.40 45.94-110.93 45.45Q-113.46 44.95-115.18 43.65Q-116.91 42.35-117.79 40.07Q-118.66 37.78-118.66 33.99L-118.66 33.99L-118.66-33.80Q-118.66-36.82-117.01-38.47Q-115.36-40.12-112.48-41.18L-112.48-41.18Q-107.56-42.94-101.30-43.71Q-95.04-44.48-88.71-44.48L-88.71-44.48Q-68.81-44.48-58.30-35.97Q-47.79-27.47-47.79-12.91L-47.79-12.91Q-47.79-5.88-50.04-0.19Q-52.29 5.51-56.68 9.59Q-61.08 13.67-67.76 15.92Q-74.44 18.17-83.23 18.17L-83.23 18.17L-93.42 18.17ZM-10.03-23.60L-10.03 26.53Q-8.41 26.81-6.09 27.03Q-3.77 27.24-1.81 27.24L-1.81 27.24Q3.12 27.24 7.23 25.79Q11.34 24.35 14.30 21.33Q17.25 18.31 18.90 13.49Q20.55 8.67 20.55 1.92L20.55 1.92Q20.55-11.01 14.51-17.59Q8.46-24.16-1.66-24.16L-1.66-24.16Q-3.70-24.16-5.78-24.02Q-7.85-23.88-10.03-23.60L-10.03-23.60ZM-1.95 47.56L-1.95 47.56Q-4.41 47.56-7.57 47.42Q-10.73 47.28-14.11 46.82Q-17.48 46.36-20.86 45.73Q-24.23 45.10-27.12 43.97L-27.12 43.97Q-35.06 40.95-35.06 33.42L-35.06 33.42L-35.06-33.80Q-35.06-36.82-33.41-38.47Q-31.76-40.12-28.88-41.18L-28.88-41.18Q-22.69-43.22-15.76-43.85Q-8.84-44.48-3.35-44.48L-3.35-44.48Q7.90-44.48 17.04-41.74Q26.18-39.00 32.72-33.30Q39.26-27.61 42.84-18.99Q46.43-10.38 46.43 1.43L46.43 1.43Q46.43 12.96 42.98 21.54Q39.54 30.12 33.14 35.95Q26.74 41.79 17.81 44.67Q8.88 47.56-1.95 47.56ZM74.20-42.02L122.16-42.02Q123.14-40.40 123.91-37.77Q124.69-35.13 124.69-32.25L124.69-32.25Q124.69-26.62 122.33-24.23Q119.98-21.84 115.97-21.84L115.97-21.84L85.66-21.84L85.66-5.60L117.23-5.60Q118.36-3.98 119.17-1.42Q119.98 1.15 119.98 4.03L119.98 4.03Q119.98 9.52 117.59 11.91Q115.19 14.30 111.19 14.30L111.19 14.30L86.02 14.30L86.02 44.67Q84.40 45.10 81.02 45.52Q77.65 45.94 74.34 45.94L74.34 45.94Q71.04 45.94 68.51 45.45Q65.98 44.95 64.25 43.65Q62.53 42.35 61.65 40.07Q60.77 37.78 60.77 33.99L60.77 33.99L60.77-28.66Q60.77-34.85 64.39-38.44Q68.02-42.02 74.20-42.02L74.20-42.02Z"/></g>
</svg>