<svg xmlns="http://www.w3.org/2000/svg" xmlns:xlink="http://www.w3.org/1999/xlink" version="1.1" width="1000" height="1000" viewBox="0 0 1000 1000" xml:space="preserve">
<desc>Created with Fabric.js 3.5.0</desc>
<defs>
</defs>
<rect x="0" y="0" width="100%" height="100%" fill="#ffffff"/>
<g transform="matrix(7.3982 0 0 7.3982 500.0008 500.0005)" id="419459">
<path style="stroke: none; stroke-width: 1; stroke-dasharray: none; stroke-linecap: butt; stroke-dashoffset: 0; stroke-linejoin: miter; stroke-miterlimit: 4; is-custom-font: none; font-file-url: none; fill: rgb(0,0,0); fill-rule: evenodd; opacity: 1;" vector-effect="non-scaling-stroke" transform=" translate(-61.4359, -36.6364)" d="M 104.27 58.88 l -0.54 -19.99 l -32.85 9.49 c -2.96 0.65 -5.88 0.96 -8.74 0.97 c -3.07 0.01 -6.09 -0.32 -9.06 -0.97 L 21.7 38.79 v 20.27 c 0.9 10.53 31.11 13.75 40.38 14.19 c 7.43 0.36 36.78 -3.52 40.64 -9.57 C 103.55 62.36 104.07 60.76 104.27 58.88 L 104.27 58.88 z M 117.58 24.5 v 24.43 h 0.77 c 0.53 0 0.96 0.43 0.96 0.96 v 6.57 c 0 0.52 -0.43 0.96 -0.96 0.96 h -0.77 v 2.3 c 0.98 0.18 1.73 1.05 1.73 2.08 v 0 c 0 1.16 -0.96 2.12 -2.12 2.12 h -3.79 c -1.16 0 -2.12 -0.95 -2.12 -2.12 v 0 c 0 -1.03 0.75 -1.9 1.73 -2.08 v -2.3 h -0.77 c -0.52 0 -0.96 -0.43 -0.96 -0.96 v -6.57 c 0 -0.53 0.43 -0.96 0.96 -0.96 h 0.77 v -23 L 73.03 38.35 c -7.24 1.72 -14.48 1.84 -21.72 0 L 7.18 25.18 l -3.99 -1.19 c -4.97 -2.03 -3.73 -6.8 0.9 -7.9 L 54 1.19 c 5.15 -1.47 10.29 -1.7 15.44 0 l 49.01 14.72 c 5.33 1.3 6.38 6.23 0.18 8.26 L 117.58 24.5 L 117.58 24.5 z" stroke-linecap="round"/>
</g>
<g transform="matrix(1 0 0 1 500 665.591)" style="" id="861562">
		
<path xml:space="preserve" font-family="Baloo" font-size="144" font-style="normal" font-weight="normal" style="stroke: none; stroke-width: 1; stroke-dasharray: none; stroke-linecap: butt; stroke-dashoffset: 0; stroke-linejoin: miter; stroke-miterlimit: 4; is-custom-font: none; font-file-url: none; fill: rgb(255,255,255); fill-rule: nonzero; opacity: 1; white-space: pre;" d="M-97.52-1.59L-89.86-1.59Q-83.81-1.59-80.58-4.37Q-77.34-7.15-77.34-12.91L-77.34-12.91Q-77.34-18.40-80.72-21.35Q-84.09-24.30-90.56-24.30L-90.56-24.30Q-92.88-24.30-94.39-24.23Q-95.90-24.16-97.52-23.88L-97.52-23.88L-97.52-1.59ZM-97.31 18.17L-97.31 44.67Q-98.93 45.10-102.30 45.52Q-105.68 45.94-108.98 45.94L-108.98 45.94Q-112.29 45.94-114.82 45.45Q-117.35 44.95-119.07 43.65Q-120.79 42.35-121.67 40.07Q-122.55 37.78-122.55 33.99L-122.55 33.99L-122.55-33.80Q-122.55-36.82-120.90-38.47Q-119.25-40.12-116.36-41.18L-116.36-41.18Q-111.44-42.94-105.19-43.71Q-98.93-44.48-92.60-44.48L-92.60-44.48Q-72.70-44.48-62.19-35.97Q-51.68-27.47-51.68-12.91L-51.68-12.91Q-51.68-5.88-53.93-0.19Q-56.18 5.51-60.57 9.59Q-64.97 13.67-71.65 15.92Q-78.33 18.17-87.11 18.17L-87.11 18.17L-97.31 18.17ZM28.34 1.43L28.34 45.10Q26.93 45.52 23.80 45.94Q20.67 46.36 17.37 46.36L17.37 46.36Q14.21 46.36 11.67 45.94Q9.14 45.52 7.42 44.22Q5.70 42.92 4.75 40.70Q3.80 38.49 3.80 34.90L3.80 34.90L3.80 2.91Q3.80-3.00 0.85-5.39Q-2.11-7.78-6.40-7.78L-6.40-7.78Q-9.28-7.78-11.88-7.04Q-14.48-6.30-16.03-5.32L-16.03-5.32L-16.03 45.10Q-17.44 45.52-20.56 45.94Q-23.69 46.36-27.00 46.36L-27.00 46.36Q-30.16 46.36-32.69 45.94Q-35.22 45.52-36.95 44.22Q-38.67 42.92-39.58 40.70Q-40.50 38.49-40.50 34.90L-40.50 34.90L-40.50-48.63Q-38.88-48.91-35.82-49.44Q-32.76-49.97-29.60-49.97L-29.60-49.97Q-26.44-49.97-23.90-49.51Q-21.37-49.05-19.65-47.79Q-17.93-46.52-16.98-44.27Q-16.03-42.02-16.03-38.44L-16.03-38.44L-16.03-24.30Q-14.13-25.01-10.33-25.96Q-6.54-26.90-1.97-26.90L-1.97-26.90Q12.31-26.90 20.32-19.77Q28.34-12.63 28.34 1.43L28.34 1.43ZM70.31-23.60L70.31 26.53Q71.93 26.81 74.25 27.03Q76.57 27.24 78.54 27.24L78.54 27.24Q83.46 27.24 87.58 25.79Q91.69 24.35 94.64 21.33Q97.60 18.31 99.25 13.49Q100.90 8.67 100.90 1.92L100.90 1.92Q100.90-11.01 94.85-17.59Q88.81-24.16 78.68-24.16L78.68-24.16Q76.64-24.16 74.57-24.02Q72.49-23.88 70.31-23.60L70.31-23.60ZM78.40 47.56L78.40 47.56Q75.94 47.56 72.78 47.42Q69.61 47.28 66.24 46.82Q62.86 46.36 59.49 45.73Q56.11 45.10 53.23 43.97L53.23 43.97Q45.28 40.95 45.28 33.42L45.28 33.42L45.28-33.80Q45.28-36.82 46.94-38.47Q48.59-40.12 51.47-41.18L51.47-41.18Q57.66-43.22 64.58-43.85Q71.51-44.48 76.99-44.48L76.99-44.48Q88.24-44.48 97.39-41.74Q106.53-39.00 113.06-33.30Q119.60-27.61 123.19-18.99Q126.78-10.38 126.78 1.43L126.78 1.43Q126.78 12.96 123.33 21.54Q119.89 30.12 113.49 35.95Q107.09 41.79 98.16 44.67Q89.23 47.56 78.40 47.56Z"/></g>
</svg>