<?xml version="1.0"?>
<svg width="512" height="512" xmlns="http://www.w3.org/2000/svg" xmlns:svg="http://www.w3.org/2000/svg">
 <!--!Font Awesome Free 6.5.1 by @fontawesome - https://fontawesome.com License - https://fontawesome.com/license/free Copyright 2023 Fonticons, Inc.-->
 <g class="layer">
  <title>Layer 1</title>
  <path d="m502.6,278.6c12.5,-12.5 12.5,-32.8 0,-45.3l-128,-128c-12.5,-12.5 -32.8,-12.5 -45.3,0s-12.5,32.8 0,45.3l73.4,73.4l-210.7,0c-17.7,0 -32,14.3 -32,32s14.3,32 32,32l210.7,0l-73.4,73.4c-12.5,12.5 -12.5,32.8 0,45.3s32.8,12.5 45.3,0l128,-128l0,-0.1zm-342.6,-182.6c17.7,0 32,-14.3 32,-32s-14.3,-32 -32,-32l-64,0c-53,0 -96,43 -96,96l0,256c0,53 43,96 96,96l64,0c17.7,0 32,-14.3 32,-32s-14.3,-32 -32,-32l-64,0c-17.7,0 -32,-14.3 -32,-32l0,-256c0,-17.7 14.3,-32 32,-32l64,0z" fill="#eb0f0f" id="svg_1" transform="rotate(179.802 255.987 256)"/>
 </g>
</svg>