<?xml version="1.0" encoding="UTF-8" standalone="no" ?>
<!DOCTYPE svg PUBLIC "-//W3C//DTD SVG 1.1//EN" "http://www.w3.org/Graphics/SVG/1.1/DTD/svg11.dtd">
<svg xmlns="http://www.w3.org/2000/svg" xmlns:xlink="http://www.w3.org/1999/xlink" version="1.1" width="1080" height="1080" viewBox="0 0 1080 1080" xml:space="preserve">
<desc>Created with Fabric.js 5.2.4</desc>
<defs>
</defs>
<rect x="0" y="0" width="100%" height="100%" fill="transparent"></rect>
<g transform="matrix(1 0 0 1 540 540)" id="68971f14-4816-4708-8e08-ed0e70e6c6af"  >
<rect style="stroke: none; stroke-width: 1; stroke-dasharray: none; stroke-linecap: butt; stroke-dashoffset: 0; stroke-linejoin: miter; stroke-miterlimit: 4; fill: rgb(255,255,255); fill-rule: nonzero; opacity: 1; visibility: hidden;" vector-effect="non-scaling-stroke"  x="-540" y="-540" rx="0" ry="0" width="1080" height="1080" />
</g>
<g transform="matrix(1 0 0 1 540 540)" id="3519ccdf-a9c3-4f73-ac5c-370964be5c68"  >
</g>
<g transform="matrix(3.74 0 0 3.74 540.12 540.07)"  >
<path style="stroke: rgb(0,0,0); stroke-width: 0; stroke-dasharray: none; stroke-linecap: butt; stroke-dashoffset: 0; stroke-linejoin: miter; stroke-miterlimit: 4; fill: rgb(0,0,0); fill-rule: nonzero; opacity: 1;" vector-effect="non-scaling-stroke"  transform=" translate(-61.44, -36.64)" d="M 104.27 58.88 L 103.72999999999999 38.89 L 70.88 48.38 C 67.92 49.03 65 49.34 62.13999999999999 49.35 C 59.06999999999999 49.36 56.05 49.03 53.07999999999999 48.38 L 21.7 38.79 L 21.7 59.06 C 22.599999999999998 69.59 52.81 72.81 62.08 73.25 C 69.50999999999999 73.61 98.86 69.73 102.72 63.68 C 103.55 62.36 104.07 60.76 104.27 58.88 L 104.27 58.88 z M 117.58 24.5 L 117.58 48.93 L 118.35 48.93 C 118.88 48.93 119.30999999999999 49.36 119.30999999999999 49.89 L 119.30999999999999 56.46 C 119.30999999999999 56.980000000000004 118.87999999999998 57.42 118.35 57.42 L 117.58 57.42 L 117.58 59.72 C 118.56 59.9 119.31 60.769999999999996 119.31 61.8 L 119.31 61.8 C 119.31 62.959999999999994 118.35000000000001 63.919999999999995 117.19 63.919999999999995 L 113.39999999999999 63.919999999999995 C 112.24 63.919999999999995 111.27999999999999 62.96999999999999 111.27999999999999 61.8 L 111.27999999999999 61.8 C 111.27999999999999 60.769999999999996 112.02999999999999 59.9 113.00999999999999 59.72 L 113.00999999999999 57.42 L 112.24 57.42 C 111.72 57.42 111.28 56.99 111.28 56.46 L 111.28 49.89 C 111.28 49.36 111.71000000000001 48.93 112.24 48.93 L 113.00999999999999 48.93 L 113.00999999999999 25.93 L 73.03 38.35 C 65.79 40.07 58.55 40.190000000000005 51.31 38.35 L 7.18 25.18 L 3.1899999999999995 23.99 C -1.7800000000000002 21.959999999999997 -0.5400000000000005 17.189999999999998 4.09 16.089999999999996 L 54 1.19 C 59.15 -0.28 64.28999999999999 -0.51 69.44 1.19 L 118.44999999999999 15.91 C 123.77999999999999 17.21 124.82999999999998 22.14 118.63 24.17 L 117.58 24.5 L 117.58 24.5 z" stroke-linecap="round" />
</g>
<g transform="matrix(1 0 0 1 540 625.29)" style="" id="801f909e-11d8-4df0-9803-945f8f48f138"  >
		<text xml:space="preserve" font-family="Raleway" font-size="60" font-style="normal" font-weight="900" style="stroke: none; stroke-width: 1; stroke-dasharray: none; stroke-linecap: butt; stroke-dashoffset: 0; stroke-linejoin: miter; stroke-miterlimit: 4; fill: rgb(255,255,255); fill-rule: nonzero; opacity: 1; white-space: pre;" ><tspan x="-97.05" y="18.85" >B.Tech</tspan></text>
</g>
</svg>