<svg xmlns="http://www.w3.org/2000/svg" xmlns:xlink="http://www.w3.org/1999/xlink" version="1.1" width="940" height="788" viewBox="0 0 940 788" xml:space="preserve">
<desc>Created with Fabric.js 3.5.0</desc>
<defs>
</defs>
<rect x="0" y="0" width="100%" height="100%" fill="#ffffff"/>
<g transform="matrix(6.3483 0 0 6.3483 441.6463 390.5572)" id="198886">
<path style="stroke: none; stroke-width: 1; stroke-dasharray: none; stroke-linecap: butt; stroke-dashoffset: 0; stroke-linejoin: miter; stroke-miterlimit: 4; is-custom-font: none; font-file-url: none; fill: rgb(0,0,0); fill-rule: evenodd; opacity: 1;" vector-effect="non-scaling-stroke" transform=" translate(-51.185, -61.4472)" d="M 5.13 64.37 a 0.39 0.39 0 0 0 -0.17 0 l 0 0 a 0.27 0.27 0 0 0 -0.09 0.21 v 11.7 a 0.27 0.27 0 0 0 0 0.18 l 0 0 a 0.27 0.27 0 0 0 0.21 0.09 H 97.24 a 0.35 0.35 0 0 0 0.22 -0.08 a 0.33 0.33 0 0 0 0.08 -0.22 V 64.67 a 0.31 0.31 0 0 0 -0.3 -0.3 Z M 29.21 111 a 13.16 13.16 0 0 1 -2.11 -0.17 c -0.69 -0.11 -2.23 -0.36 -2.69 -0.5 v -4.71 c 0.4 0 1.78 0.13 2.19 0.13 h 1.22 a 2.21 2.21 0 0 0 1.07 -0.22 a 1.28 1.28 0 0 0 0.59 -0.58 a 2.16 2.16 0 0 0 0.18 -0.92 V 88.35 h 5.86 v 16.54 a 7.92 7.92 0 0 1 -0.62 3.29 a 4.21 4.21 0 0 1 -2 2.07 a 8.14 8.14 0 0 1 -3.68 0.71 Z m 18.65 0 a 16.77 16.77 0 0 1 -4.18 -0.47 a 6.35 6.35 0 0 1 -3 -1.68 a 7.43 7.43 0 0 1 -1.81 -3.45 a 22.66 22.66 0 0 1 -0.61 -5.81 a 22.6 22.6 0 0 1 0.61 -5.81 a 7.52 7.52 0 0 1 1.81 -3.46 a 6.42 6.42 0 0 1 3 -1.67 a 18.82 18.82 0 0 1 8.36 0 a 6.51 6.51 0 0 1 3 1.67 a 7.71 7.71 0 0 1 1.81 3.46 a 23.12 23.12 0 0 1 0.6 5.81 a 23.17 23.17 0 0 1 -0.6 5.81 a 7.62 7.62 0 0 1 -1.81 3.45 a 6.44 6.44 0 0 1 -3 1.68 a 16.77 16.77 0 0 1 -4.18 0.47 Z m 0 -5.25 a 5.15 5.15 0 0 0 1.87 -0.28 a 2.16 2.16 0 0 0 1.13 -0.93 a 4.74 4.74 0 0 0 0.58 -1.87 a 23.66 23.66 0 0 0 0.16 -3.08 a 24.45 24.45 0 0 0 -0.16 -3.17 a 4.69 4.69 0 0 0 -0.58 -1.86 a 2 2 0 0 0 -1.13 -0.89 a 6 6 0 0 0 -1.87 -0.24 a 6.18 6.18 0 0 0 -1.86 0.24 a 2.07 2.07 0 0 0 -1.14 0.89 a 4.87 4.87 0 0 0 -0.57 1.86 a 22.54 22.54 0 0 0 -0.17 3.17 a 21.8 21.8 0 0 0 0.17 3.08 a 4.92 4.92 0 0 0 0.57 1.87 a 2.18 2.18 0 0 0 1.14 0.93 a 5.28 5.28 0 0 0 1.86 0.28 Z m 12.35 5.07 V 88.35 H 69.5 c 2.42 0 4.15 0.53 5.21 1.6 a 6 6 0 0 1 1.58 4.38 A 6.92 6.92 0 0 1 76 96.61 a 4.33 4.33 0 0 1 -1 1.63 a 3.6 3.6 0 0 1 -1.71 0.89 a 5.55 5.55 0 0 1 1.48 0.63 a 4 4 0 0 1 1.21 1.12 a 5.28 5.28 0 0 1 0.8 1.63 a 7.18 7.18 0 0 1 0.29 2.11 a 7 7 0 0 1 -0.79 3.56 a 4.52 4.52 0 0 1 -2.35 2 a 10.75 10.75 0 0 1 -3.89 0.62 Z m 5.85 -5.25 h 3.71 a 1.51 1.51 0 0 0 1.47 -0.93 a 2.51 2.51 0 0 0 0.19 -1 a 2.54 2.54 0 0 0 -0.19 -1 a 1.57 1.57 0 0 0 -0.56 -0.68 a 1.6 1.6 0 0 0 -0.91 -0.24 H 66.06 v 3.93 Z m 0 -8.37 h 3.38 a 1.07 1.07 0 0 0 1 -0.51 a 2.37 2.37 0 0 0 0.32 -1.27 a 1.89 1.89 0 0 0 -0.41 -1.4 a 1.3 1.3 0 0 0 -0.89 -0.38 H 66.06 v 3.56 Z M 41.68 44.32 l 5.26 13.82 l 2.65 -7.53 l -1.3 -1.42 c -1 -1.43 -0.64 -3 1.17 -3.33 a 12.57 12.57 0 0 1 1.95 0 a 10.19 10.19 0 0 1 2.15 0.08 c 1.68 0.37 1.85 2 1 3.29 l -1.3 1.42 l 2.65 7.53 l 4.76 -13.82 C 64.12 47.41 76.22 48 80 50.14 s 4.75 5.64 5.43 9.41 H 97.24 a 5.14 5.14 0 0 1 5.13 5.12 v 11.7 A 5.11 5.11 0 0 1 100.86 80 h 0 a 5.1 5.1 0 0 1 -3.61 1.5 H 95.47 V 119 a 3.89 3.89 0 0 1 -3.89 3.89 H 12 a 3.88 3.88 0 0 1 -2.76 -1.15 a 1.12 1.12 0 0 1 -0.18 -0.2 a 3.87 3.87 0 0 1 -1 -2.55 V 81.5 h -3 A 5.14 5.14 0 0 1 1.5 80 l -0.16 -0.18 A 5.1 5.1 0 0 1 0 76.37 V 64.67 a 5.14 5.14 0 0 1 1.5 -3.62 l 0.19 -0.17 a 5.08 5.08 0 0 1 3.43 -1.33 H 16.93 c 0.69 -3.77 1.68 -7.33 5.44 -9.41 c 4.65 -2.59 15.5 -2.39 19.31 -5.82 Z M 12.91 81.5 v 36.55 H 90.65 V 81.5 Z M 42.59 40.27 c -1.79 -1.6 -3.21 -2.76 -3.52 -6.08 h -0.19 a 2.63 2.63 0 0 1 -1.27 -0.34 a 3.49 3.49 0 0 1 -1.41 -1.7 c -0.64 -1.49 -1.16 -5.4 0.47 -6.52 l -0.3 -0.2 l 0 -0.44 c -0.06 -0.78 -0.08 -1.74 -0.09 -2.74 c -0.06 -3.68 -0.14 -8.13 -3.09 -9 l -1.27 -0.38 l 0.83 -1 A 47.66 47.66 0 0 1 40.12 4.3 A 18.82 18.82 0 0 1 48.7 0.13 A 10.35 10.35 0 0 1 57 2.46 a 15.33 15.33 0 0 1 2.23 2.25 A 9.48 9.48 0 0 1 66 8.61 A 13.68 13.68 0 0 1 68.13 13 a 15.16 15.16 0 0 1 0.58 5 A 12 12 0 0 1 65.24 26 a 2.43 2.43 0 0 1 1.08 0.27 c 1.24 0.66 1.28 2.1 1 3.3 c -0.32 1 -0.72 2.17 -1.11 3.15 c -0.47 1.32 -1.15 1.57 -2.47 1.42 c -0.06 3.27 -1.57 4.17 -3.6 6.09 c 0.08 4.92 -17.61 4.34 -17.5 0 Z" stroke-linecap="round"/>
</g>
<g transform="matrix(1 0 0 1 443.2749 451.1229)" style="" id="882974">
		
<path xml:space="preserve" font-family="Aleo" font-size="72" font-style="normal" font-weight="bold" style="stroke: none; stroke-width: 1; stroke-dasharray: none; stroke-linecap: butt; stroke-dashoffset: 0; stroke-linejoin: miter; stroke-miterlimit: 4; is-custom-font: none; font-file-url: none; fill: rgb(0,0,0); fill-rule: nonzero; opacity: 1; white-space: pre;" d="M-168.70-29.44L-168.70-25.19Q-168.70-23.39-170.50-22.96L-170.50-22.96L-170.93-22.89Q-171.15-22.89-171.40-22.81Q-171.65-22.74-172.01-22.67L-172.01-22.67L-174.10-22.31L-174.10 22.62L-179.14 22.62Q-180.15 22.62-181.01 22.26L-181.01 22.26Q-181.73 21.97-182.52 20.96L-182.52 20.96L-209.74-13.67Q-209.60-12.09-209.60-11.44L-209.60-11.44L-209.52-9.35L-209.52 15.49L-204.84 16.14Q-203.04 16.57-203.04 18.37L-203.04 18.37L-203.04 22.62L-223.49 22.62L-223.49 18.37Q-223.49 16.57-221.69 16.14L-221.69 16.14L-221.26 16.07L-220.18 15.85L-218.02 15.49L-218.02-22.31L-220.18-22.67Q-220.54-22.74-220.79-22.81Q-221.04-22.89-221.26-22.89L-221.26-22.89L-221.69-22.96Q-223.49-23.39-223.49-25.19L-223.49-25.19L-223.49-29.44L-212.98-29.44L-211.90-29.37Q-211.40-29.37-211.11-29.15L-211.11-29.15Q-210.82-29.08-210.46-28.72L-210.46-28.72L-209.74-27.85L-182.38 6.92L-182.60 4.47Q-182.67 3.68-182.67 2.17L-182.67 2.17L-182.67-22.31L-187.35-22.96Q-189.15-23.39-189.15-25.19L-189.15-25.19L-189.15-29.44L-168.70-29.44ZM-147.39-22.96L-147.82-22.89Q-148.04-22.89-148.29-22.81Q-148.54-22.74-148.90-22.67L-148.90-22.67L-150.99-22.31L-150.99 15.49L-148.90 15.85Q-148.54 15.92-148.29 15.99Q-148.04 16.07-147.82 16.07L-147.82 16.07L-147.39 16.14Q-145.59 16.57-145.59 18.37L-145.59 18.37L-145.59 22.62L-166.18 22.62L-166.18 18.37Q-166.18 16.57-164.38 16.14L-164.38 16.14L-163.95 16.07L-162.87 15.85L-160.71 15.49L-160.71-22.31L-162.87-22.67Q-163.23-22.74-163.48-22.81Q-163.73-22.89-163.95-22.89L-163.95-22.89L-164.38-22.96Q-166.18-23.39-166.18-25.19L-166.18-25.19L-166.18-29.44L-145.59-29.44L-145.59-25.19Q-145.59-23.39-147.39-22.96L-147.39-22.96ZM-99.72-29.44L-99.72-17.13L-103.83-17.13Q-105.20-17.13-105.56-18.49L-105.56-18.49Q-105.77-19.72-105.92-21.45L-105.92-21.45L-116.50-21.45L-116.50 15.49L-114.41 15.85Q-114.05 15.92-113.80 15.99Q-113.55 16.07-113.33 16.07L-113.33 16.07L-112.90 16.14Q-111.03 16.57-111.03 18.37L-111.03 18.37L-111.03 22.62L-131.62 22.62L-131.62 18.37Q-131.62 16.57-129.82 16.14L-129.82 16.14L-129.39 16.07Q-129.17 16.07-128.92 15.99Q-128.67 15.92-128.31 15.85L-128.31 15.85L-126.22 15.49L-126.22-21.52L-136.80-21.52Q-136.95-19.65-137.16-18.49L-137.16-18.49Q-137.52-17.13-138.82-17.13L-138.82-17.13L-143.00-17.13L-143.00-29.44L-99.72-29.44ZM-14.98-22.96L-15.41-22.89Q-15.63-22.89-15.88-22.81Q-16.13-22.74-16.49-22.67L-16.49-22.67L-18.58-22.31L-18.58 15.49L-16.49 15.85Q-16.13 15.92-15.88 15.99Q-15.63 16.07-15.41 16.07L-15.41 16.07L-14.98 16.14Q-13.18 16.57-13.18 18.37L-13.18 18.37L-13.18 22.62L-33.63 22.62L-33.63 18.37Q-33.63 16.57-31.83 16.14L-31.83 16.14L-27.15 15.49L-27.15-11.01L-27.08-13.02Q-27.08-13.74-26.93-15.33L-26.93-15.33L-42.63 14.19Q-43.20 15.27-44.07 15.78L-44.07 15.78Q-45.00 16.35-46.08 16.35L-46.08 16.35L-47.38 16.35Q-48.46 16.35-49.40 15.78L-49.40 15.78Q-50.26 15.27-50.84 14.19L-50.84 14.19L-66.75-15.40L-66.60-13.09Q-66.53-12.37-66.53-11.01L-66.53-11.01L-66.53 15.49L-61.85 16.14Q-60.05 16.57-60.05 18.37L-60.05 18.37L-60.05 22.62L-80.50 22.62L-80.50 18.37Q-80.50 16.57-78.70 16.14L-78.70 16.14L-78.27 16.07L-77.19 15.85L-75.03 15.49L-75.03-22.31L-77.19-22.67Q-77.55-22.74-77.80-22.81Q-78.05-22.89-78.27-22.89L-78.27-22.89L-78.70-22.96Q-80.50-23.39-80.50-25.19L-80.50-25.19L-80.50-29.44L-67.76-29.44L-66.60-29.37Q-66.17-29.37-65.74-29.22L-65.74-29.22Q-65.52-29.15-65.09-28.72L-65.09-28.72Q-64.80-28.43-64.44-27.85L-64.44-27.85L-48.89 1.02Q-48.46 1.81-48.21 2.42Q-47.96 3.03-47.81 3.39L-47.81 3.39L-46.73 5.91L-45.72 3.39Q-45.15 1.95-44.57 0.95L-44.57 0.95L-29.16-27.85Q-28.73-28.57-28.59-28.72L-28.59-28.72Q-28.16-29.15-27.87-29.22L-27.87-29.22Q-27.29-29.37-27.00-29.37L-27.00-29.37L-25.92-29.44L-13.18-29.44L-13.18-25.19Q-13.18-23.39-14.98-22.96L-14.98-22.96ZM5.25-25.12Q5.25-24.11 4.75-22.96L4.75-22.96Q4.32-21.95 3.52-21.16L3.52-21.16Q2.66-20.29 1.72-19.93L1.72-19.93Q0.64-19.50-0.51-19.50L-0.51-19.50Q-1.66-19.50-2.74-19.93L-2.74-19.93Q-3.60-20.29-4.47-21.16L-4.47-21.16Q-5.26-21.95-5.69-22.96L-5.69-22.96Q-6.12-23.97-6.12-25.12L-6.12-25.12Q-6.12-26.27-5.69-27.35L-5.69-27.35Q-5.33-28.29-4.47-29.15L-4.47-29.15Q-3.68-29.94-2.74-30.30L-2.74-30.30Q-1.44-30.81-0.51-30.81L-0.51-30.81Q0.43-30.81 1.72-30.30L1.72-30.30Q2.80-29.87 3.52-29.15L3.52-29.15Q4.39-28.29 4.75-27.35L4.75-27.35Q5.25-26.13 5.25-25.12L5.25-25.12ZM7.56 16.14Q9.36 16.57 9.36 18.37L9.36 18.37L9.36 22.62L-10.44 22.62L-10.44 18.37Q-10.44 16.57-8.64 16.14L-8.64 16.14L-8.21 16.07L-7.13 15.85L-4.97 15.49L-4.97-7.19L-7.13-7.55Q-7.49-7.62-7.74-7.69Q-8.00-7.77-8.21-7.77L-8.21-7.77L-8.64-7.84Q-10.44-8.27-10.44-10.07L-10.44-10.07L-10.44-14.32L3.88-14.32L3.88 15.49L6.04 15.85Q6.40 15.92 6.66 15.99Q6.91 16.07 7.12 16.07L7.12 16.07L7.56 16.14ZM41.40 10.52L41.40 22.62L11.88 22.62L11.88 18.87Q11.88 18.23 12.16 17.43L12.16 17.43Q12.52 16.43 13.03 15.85L13.03 15.85L30.74-7.48L19.15-7.48Q18.86-4.60 18.72-3.88L18.72-3.88Q18.36-2.51 17.06-2.51L17.06-2.51L12.88-2.51L12.88-14.32L40.89-14.32L40.89-10.65Q40.89-9.64 40.60-8.85L40.60-8.85Q40.39-8.34 39.74-7.33L39.74-7.33L22.24 15.78L35.13 15.78L35.56 11.89Q35.92 10.52 37.22 10.52L37.22 10.52L41.40 10.52ZM62.35-14.89Q66.31-14.89 69.84-13.53L69.84-13.53Q73.29-12.16 75.60-9.78L75.60-9.78Q77.90-7.41 79.20-3.81L79.20-3.81Q80.49-0.28 80.49 4.04L80.49 4.04Q80.49 8.36 79.20 11.96L79.20 11.96Q77.83 15.63 75.60 18.01L75.60 18.01Q73.22 20.53 69.84 21.83L69.84 21.83Q66.52 23.12 62.35 23.12L62.35 23.12Q58.17 23.12 54.79 21.83L54.79 21.83Q51.40 20.53 49.03 18.01L49.03 18.01Q46.51 15.42 45.28 11.96L45.28 11.96Q43.99 8.36 43.99 4.04L43.99 4.04Q43.99-0.28 45.28-3.81L45.28-3.81Q46.51-7.12 49.03-9.78L49.03-9.78Q51.33-12.16 54.79-13.53L54.79-13.53Q58.32-14.89 62.35-14.89L62.35-14.89ZM62.35 16.28Q66.96 16.28 69.12 13.19L69.12 13.19Q71.35 9.95 71.35 4.11L71.35 4.11Q71.35-1.72 69.12-4.96L69.12-4.96Q66.96-8.13 62.35-8.13L62.35-8.13Q57.74-8.13 55.44-4.96L55.44-4.96Q53.13-1.79 53.13 4.19L53.13 4.19Q53.13 10.02 55.44 13.19L55.44 13.19Q57.67 16.28 62.35 16.28L62.35 16.28ZM107.49-14.97Q110.30-14.97 112.03-13.74L112.03-13.74L110.88-7.05Q110.80-6.40 110.44-6.18L110.44-6.18Q110.01-5.89 109.44-5.89L109.44-5.89Q108.93-5.89 108.00-6.11L108.00-6.11Q106.70-6.40 105.48-6.40L105.48-6.40Q102.67-6.40 100.72-4.89L100.72-4.89Q98.92-3.52 97.41-0.35L97.41-0.35L97.41 15.49L101.01 16.14Q102.81 16.57 102.81 18.37L102.81 18.37L102.81 22.62L83.08 22.62L83.08 18.37Q83.08 16.57 84.88 16.14L84.88 16.14L88.48 15.49L88.48-7.19L84.88-7.84Q83.08-8.27 83.08-10.07L83.08-10.07L83.08-14.32L93.74-14.32Q95.11-14.32 95.61-13.81L95.61-13.81Q96.12-13.31 96.33-12.09L96.33-12.09L96.91-7.62Q98.85-11.15 101.52-13.02L101.52-13.02Q104.25-14.97 107.49-14.97L107.49-14.97ZM147.45 16.07Q149.25 16.50 149.25 18.30L149.25 18.30L149.25 22.55L140.76 22.55Q139.39 22.55 138.74 22.19L138.74 22.19Q138.02 21.90 137.66 20.60L137.66 20.60L136.87 18.01Q135.43 19.38 134.13 20.24L134.13 20.24Q133.12 20.96 131.32 21.83L131.32 21.83Q130.03 22.40 128.30 22.76L128.30 22.76Q126.50 23.12 124.70 23.12L124.70 23.12Q122.32 23.12 120.38 22.47L120.38 22.47Q118.29 21.75 117.00 20.60L117.00 20.60Q115.48 19.23 114.76 17.43L114.76 17.43Q113.97 15.49 113.97 13.11L113.97 13.11Q113.97 10.95 115.05 8.94L115.05 8.94Q116.13 6.85 118.72 5.27L118.72 5.27Q121.46 3.54 125.49 2.53L125.49 2.53Q129.74 1.45 136.08 1.45L136.08 1.45L136.08-0.71Q136.08-4.31 134.49-6.25L134.49-6.25Q132.98-8.05 129.96-8.05L129.96-8.05Q127.65-8.05 126.36-7.55L126.36-7.55Q124.70-6.90 123.84-6.40L123.84-6.40L121.89-5.32Q121.10-4.81 119.95-4.81L119.95-4.81Q119.01-4.81 118.36-5.25L118.36-5.25Q117.93-5.53 117.36-6.40L117.36-6.40L115.70-9.21Q122.18-15.11 131.04-15.11L131.04-15.11Q134.28-15.11 136.87-14.03L136.87-14.03Q139.39-12.95 141.12-11.08L141.12-11.08Q143.06-8.85 143.85-6.54L143.85-6.54Q144.72-3.95 144.72-0.78L144.72-0.78L144.72 15.56L146.66 15.92L147.45 16.07ZM136.08 6.85Q132.04 6.85 129.60 7.35L129.60 7.35Q126.93 7.93 125.35 8.65L125.35 8.65Q123.76 9.37 123.12 10.38L123.12 10.38Q122.47 11.31 122.47 12.61L122.47 12.61Q122.47 15.06 123.84 15.99L123.84 15.99Q125.28 17.00 127.44 17.00L127.44 17.00Q128.80 17.00 129.96 16.79L129.96 16.79Q131.18 16.57 132.19 15.99L132.19 15.99Q133.48 15.27 134.13 14.77L134.13 14.77Q135.14 13.98 136.08 13.04L136.08 13.04L136.08 6.85ZM212.90 16.14Q214.70 16.57 214.70 18.37L214.70 18.37L214.70 22.62L200.37 22.62L200.37-0.85Q200.37-4.45 198.86-6.18L198.86-6.18Q197.35-7.98 194.32-7.98L194.32-7.98Q193.10-7.98 191.73-7.48L191.73-7.48Q190.58-7.05 189.72-6.18L189.72-6.18Q189.00-5.46 188.35-3.95L188.35-3.95Q187.84-2.73 187.84-0.85L187.84-0.85L187.84 15.49L189.93 15.85L191.01 16.07L191.44 16.14Q193.24 16.57 193.24 18.37L193.24 18.37L193.24 22.62L178.92 22.62L178.92-0.85Q178.92-4.53 177.40-6.25L177.40-6.25Q175.89-7.98 173.01-7.98L173.01-7.98Q171.07-7.98 169.41-7.05L169.41-7.05Q167.90-6.18 166.32-4.38L166.32-4.38L166.32 15.49L168.40 15.85L169.48 16.07L169.92 16.14Q171.72 16.57 171.72 18.37L171.72 18.37L171.72 22.62L151.99 22.62L151.99 18.37Q151.99 16.57 153.79 16.14L153.79 16.14L154.22 16.07Q154.44 16.07 154.69 15.99Q154.94 15.92 155.30 15.85L155.30 15.85L157.39 15.49L157.39-7.19L155.30-7.55Q154.94-7.62 154.69-7.69Q154.44-7.77 154.22-7.77L154.22-7.77L153.79-7.84Q151.92-8.27 151.92-10.07L151.92-10.07L151.92-14.32L162.86-14.32Q164.52-14.32 165.09-12.66L165.09-12.66L165.67-9.93Q166.96-11.37 167.68-11.94L167.68-11.94Q168.69-12.73 169.99-13.45L169.99-13.45Q171.14-14.10 172.58-14.53L172.58-14.53Q173.73-14.89 175.60-14.89L175.60-14.89Q179.20-14.89 181.36-13.02L181.36-13.02Q183.67-11.01 184.75-7.98L184.75-7.98Q185.61-9.85 186.91-11.15L186.91-11.15Q188.06-12.30 189.72-13.24L189.72-13.24Q190.94-13.96 193.03-14.46L193.03-14.46Q194.76-14.89 196.56-14.89L196.56-14.89Q199.65-14.89 201.96-13.96L201.96-13.96Q204.48-12.95 205.99-11.22L205.99-11.22Q207.57-9.42 208.44-6.83L208.44-6.83Q209.30-4.24 209.30-0.85L209.30-0.85L209.30 15.49L211.39 15.85Q211.75 15.92 212.00 15.99Q212.25 16.07 212.47 16.07L212.47 16.07L212.90 16.14Z"/></g>
</svg>