<svg xmlns="http://www.w3.org/2000/svg" shape-rendering="geometricPrecision" text-rendering="geometricPrecision" image-rendering="optimizeQuality" fill-rule="evenodd" clip-rule="evenodd" viewBox="0 0 512 492.703"><path fill-rule="nonzero" d="M300.084 16.989C300.084 7.618 309.352 0 320.806 0c11.459 0 20.727 7.618 20.727 16.989v79.014c0 9.37-9.268 16.988-20.727 16.988-11.454 0-20.722-7.618-20.722-16.988V16.989zm156.621 269.352c-5.021-3.441-11.513-2.435-15.003 2.608l-9.571 13.504c-6.466-2.894-14.722-4.782-21.728-5.794l-3.003-17.644c-1.136-5.918-6.363-9.749-12.363-8.613l-22.118 3.934c-5.794 1.163-9.906 6.443-8.819 12.389l2.819 16.118c-6.806 2.846-13.553 6.985-19.299 11.616l-15.003-10.323c-5.015-3.468-11.33-2.38-14.798 2.64l-12.752 18.185c-3.463 5.015-2.429 11.508 2.64 14.976l13.478 9.571c-2.846 6.417-4.788 14.77-5.795 21.728l-17.616 3.003c-5.973 1.136-9.728 6.308-8.64 12.363l3.933 22.118c1.163 5.767 6.465 9.955 12.39 8.819l16.117-2.819c2.971 7.06 7.034 13.396 11.611 19.505l-10.318 14.797c-3.468 5.015-2.353 11.329 2.635 14.792l18.369 12.936c4.885 3.442 11.616 1.991 15.181-2.613l9.55-13.683c6.568 2.895 14.641 4.734 21.75 5.816l3.003 17.617c1.087 5.951 6.389 9.755 12.363 8.613l22.117-3.928c5.768-1.163 9.907-6.444 8.798-12.368l-2.798-16.112c7.115-3.003 13.326-7.039 19.478-11.644l14.824 10.323c5.043 3.49 11.487 2.457 14.976-2.64l12.937-18.363c3.387-4.891 1.991-11.589-2.614-15.187l-13.683-9.36c2.846-6.416 4.783-14.77 5.795-21.733l17.617-2.998c5.919-1.136 9.776-6.336 8.635-12.363l-3.928-22.118c-1.164-5.767-6.471-9.96-12.39-8.824l-16.118 2.824c-3.105-7.012-6.801-13.326-11.616-19.299l10.323-15.003c3.468-5.021 2.354-11.329-2.64-14.825l-18.185-12.725-.541.184zm-56.209 47.85c26.1 0 47.26 21.16 47.26 47.26 0 26.105-21.16 47.26-47.26 47.26-26.1 0-47.26-21.155-47.26-47.26 0-26.1 21.16-47.26 47.26-47.26zM267.914 469.159H42.916c-11.768 0-22.491-4.831-30.277-12.606C4.832 448.735 0 438.012 0 426.244V86.101c0-23.573 19.342-42.915 42.916-42.915h39.588v52.817c0 14.683 6.828 27.657 17.849 36.687 9.311 7.635 21.696 12.369 34.94 12.369 13.234 0 25.635-4.734 34.946-12.369 11.021-9.03 17.849-22.004 17.849-36.687V43.186h79.929v52.817c0 14.683 6.828 27.657 17.848 36.687 9.312 7.635 21.696 12.369 34.941 12.369 13.234 0 25.635-4.734 34.946-12.369 11.021-9.03 17.849-22.004 17.849-36.687V43.186h41.325c23.573 0 42.921 19.342 42.921 42.921v147.082a157.886 157.886 0 00-18.331-5.843v-59.904H18.331v249.637c0 18.552 15.187 33.75 33.75 33.75h205.358a159.374 159.374 0 0010.475 18.33zM186.947 325.54h64.714c-6.536 17.394-10.129 36.233-10.129 55.911 0 8.586.693 17.011 2.002 25.229h-56.587c-4.28 0-7.835-3.522-7.835-7.829v-65.482c0-4.307 3.528-7.829 7.835-7.829zm124.012-123.114h75.816c4.313 0 7.835 3.554 7.835 7.829v12.373c-34.41 1.245-66.034 13.434-91.485 33.182v-45.555c0-4.307 3.527-7.829 7.834-7.829zm-124.012 0h75.811c4.312 0 7.834 3.554 7.834 7.829v65.482c0 4.274-3.555 7.829-7.834 7.829h-75.811c-4.28 0-7.835-3.523-7.835-7.829v-65.482c0-4.307 3.528-7.829 7.835-7.829zm-124.018 0h75.811c4.312 0 7.834 3.554 7.834 7.829v65.482c0 4.274-3.555 7.829-7.834 7.829H62.929c-4.28 0-7.835-3.523-7.835-7.829v-65.482c0-4.307 3.528-7.829 7.835-7.829zm0 123.114h75.811c4.312 0 7.834 3.554 7.834 7.829v65.482c0 4.274-3.555 7.829-7.834 7.829H62.929c-4.28 0-7.835-3.522-7.835-7.829v-65.482c0-4.307 3.528-7.829 7.835-7.829zm51.642-308.551C114.571 7.618 123.84 0 135.293 0c11.459 0 20.728 7.618 20.728 16.989v79.014c0 9.37-9.269 16.988-20.728 16.988-11.453 0-20.722-7.618-20.722-16.988V16.989z"/></svg>